<?xml version="1.0" encoding="utf-8"?>
<!-- Generator: Adobe Illustrator 16.0.0, SVG Export Plug-In . SVG Version: 6.00 Build 0)  -->
<!DOCTYPE svg PUBLIC "-//W3C//DTD SVG 1.1//EN" "http://www.w3.org/Graphics/SVG/1.1/DTD/svg11.dtd">
<svg version="1.1" id="Layer_1" xmlns="http://www.w3.org/2000/svg" xmlns:xlink="http://www.w3.org/1999/xlink" x="0px" y="0px"
	 width="213px" height="245px" viewBox="0 0 213 245" enable-background="new 0 0 213 245" xml:space="preserve">
<g>
	<g>
		<defs>
			<path id="SVGID_1_" d="M103.649,36c0,0-9.931,32.164-53.873,49.818c0,0-4.619,25.244,6.131,40.378c0,0,8.447,20.156,16.863,26.71
				L81.06,166H36.335c0,0-10.754,1.39-10.754-28.368c0-29.76,0.472-74.981,8.887-90.612C42.883,31.387,56.436,4,98.506,4h14.024
				c42.075,0,55.631,27.195,64.045,42.83c8.415,15.633,8.885,60.657,8.885,90.415c0,29.76-10.753,28.755-10.753,28.755h-43.998
				l7.561-13.238c8.415-6.554,16.861-26.668,16.861-26.668c10.751-15.127,6.136-57.517,6.136-57.517
				C117.32,50.922,109.726,36,109.726,36H103.649z"/>
		</defs>
		<clipPath id="SVGID_2_">
			<use xlink:href="#SVGID_1_"  overflow="visible"/>
		</clipPath>
		<g clip-path="url(#SVGID_2_)">
			
				<rect x="-57.048" y="174.954" transform="matrix(0.7071 0.7071 -0.7071 0.7071 141.4778 11.2462)" width="228.423" height="2.896"/>
			
				<rect x="-50.996" y="165.878" transform="matrix(0.7071 0.7071 -0.7071 0.7071 136.8326 4.3082)" width="228.423" height="2.895"/>
			
				<rect x="-44.943" y="156.798" transform="matrix(0.7071 0.7071 -0.7071 0.7071 132.1852 -2.6307)" width="228.422" height="2.895"/>
			<rect x="-38.89" y="147.72" transform="matrix(0.7071 0.7071 -0.7071 0.7071 127.537 -9.5703)" width="228.421" height="2.895"/>
			
				<rect x="-32.839" y="138.642" transform="matrix(0.7071 0.7071 -0.7071 0.7071 122.8913 -16.5075)" width="228.422" height="2.895"/>
			
				<rect x="-26.787" y="129.563" transform="matrix(0.7071 0.7071 -0.7071 0.7071 118.2449 -23.4457)" width="228.422" height="2.895"/>
			
				<rect x="-18.705" y="117.589" transform="matrix(0.7199 0.6941 -0.6941 0.7199 108.8043 -31.5384)" width="224.366" height="2.897"/>
			
				<rect x="-12.654" y="108.511" transform="matrix(0.7199 0.6941 -0.6941 0.7199 104.1996 -38.2814)" width="224.366" height="2.898"/>
			<rect x="-6.601" y="99.432" transform="matrix(0.7199 0.6941 -0.6941 0.7199 99.593 -45.0259)" width="224.367" height="2.898"/>
			
				<rect x="-0.548" y="90.354" transform="matrix(0.7199 0.6941 -0.6941 0.7199 94.9868 -51.7693)" width="224.365" height="2.898"/>
			<rect x="3.475" y="84.172" transform="matrix(0.7071 0.7071 -0.7071 0.7071 95.0121 -58.1397)" width="228.423" height="2.895"/>
			<rect x="9.526" y="75.092" transform="matrix(0.7071 0.7071 -0.7071 0.7071 90.3643 -65.0776)" width="228.423" height="2.896"/>
			
				<rect x="15.579" y="66.015" transform="matrix(0.7071 0.7071 -0.7071 0.7071 85.7172 -72.0157)" width="228.421" height="2.895"/>
			<rect x="19.566" y="54.04" transform="matrix(0.6945 0.7194 -0.7194 0.6945 81.4147 -80.7828)" width="232.556" height="2.898"/>
			
				<rect x="25.618" y="44.961" transform="matrix(0.6945 0.7194 -0.7194 0.6945 76.7322 -87.9103)" width="232.555" height="2.898"/>
			<rect x="31.671" y="35.884" transform="matrix(0.6945 0.7194 -0.7194 0.6945 72.05 -95.0374)" width="232.556" height="2.898"/>
			
				<rect x="37.723" y="26.805" transform="matrix(0.6945 0.7194 -0.7194 0.6945 67.367 -102.1648)" width="232.554" height="2.898"/>
			<polygon points="239.771,103.837 78.252,-63.475 80.333,-65.488 241.853,101.822 			"/>
		</g>
	</g>
	<path d="M106.002,143.174c-10.092,0-13.932-6.472-14.09-6.749c-0.797-1.387-0.319-3.156,1.069-3.953
		c1.371-0.787,3.125-0.323,3.933,1.032c0.136,0.22,2.54,3.879,9.088,3.879c5.178,0,7.838-3.84,7.948-4.004
		c0.894-1.315,2.686-1.674,4.007-0.797c1.323,0.879,1.699,2.648,0.831,3.98C118.612,136.834,114.383,143.174,106.002,143.174z"/>
	<path d="M82.318,90.725c0,2.299-1.86,4.163-4.162,4.163c-2.296,0-4.16-1.864-4.16-4.163c0-2.298,1.864-4.158,4.16-4.158
		C80.458,86.566,82.318,88.427,82.318,90.725z"/>
	<path d="M140.481,76h-17.373c-1.601,0-2.896-1.399-2.896-3s1.295-3,2.896-3h17.373c1.601,0,2.896,1.399,2.896,3
		S142.082,76,140.481,76z"/>
	<path d="M85.468,76H73.886c-1.599,0-2.896-1.399-2.896-3s1.296-3,2.896-3h11.582c1.601,0,2.896,1.399,2.896,3S87.068,76,85.468,76z
		"/>
	<path d="M111.527,154H97.05c-1.601,0-2.896-1.399-2.896-3s1.295-3,2.896-3h14.478c1.6,0,2.895,1.399,2.895,3
		S113.127,154,111.527,154z"/>
	<path d="M36.12,168.977c-1.431,0-5.101-0.527-8.254-5.293c-3.437-5.193-5.18-13.953-5.18-26.024c0-37.036,1.097-76.938,9.234-92.05
		l0.688-1.286C41.295,28.118,55.836,1,98.506,1h14.024c42.773,0,57.29,27.065,65.965,43.236l0.631,1.171
		c8.133,15.107,9.229,54.9,9.229,91.831c0,29.416-10.36,31.7-13.535,31.7c-0.085,0-0.286-0.006-0.371-0.015l-44.47,0.012
		c-1.052,0-2.021-0.571-2.533-1.493c-0.51-0.918-0.48-2.044,0.079-2.937l8.29-13.26c0.179-0.288,0.407-0.54,0.676-0.749
		c6.414-4.993,13.703-20.109,15.971-25.513c0.082-0.198,0.187-0.385,0.308-0.558c8.822-12.412,6.481-45.8,5.78-53.769
		C123.007,56.134,111.326,43,108.153,39h-2.474c-2.966,7-15.566,33.093-52.947,48.788c0.248,6.668,1.375,28.334,5.767,37.142
		c2.351,5.604,9.647,20.737,16.05,25.726c0.204,0.16,0.388,0.321,0.541,0.532l9.803,13.134c0.653,0.876,0.758,2.077,0.266,3.055
		C84.67,168.354,83.667,169,82.572,169H36.394C36.285,169,36.178,168.977,36.12,168.977z M98.506,7
		C59.301,7,46.309,31.128,37.711,47.16l-0.694,1.24c-8.541,15.865-8.541,67.301-8.541,89.277c0,13.595,2.294,19.899,4.219,22.81
		c1.682,2.538,3.222,2.594,3.409,2.6c0.077-0.006,0.154-0.087,0.231-0.087h40.466l-6.129-8.148
		c-8.794-7.164-17.083-26.796-17.436-27.639c-5.69-11.397-6.33-40.258-6.355-41.482c-0.024-1.201,0.7-2.287,1.815-2.733
		c42.172-16.946,52.091-47.722,52.185-48.032c0.373-1.216,1.496-1.965,2.768-1.965h6.076c1.095,0,2.093,0.541,2.585,1.518
		c0.062,0.109,8.146,14.459,50.037,31.289c0.991,0.398,1.682,1.293,1.798,2.355c0.192,1.771,4.556,43.32-6.467,59.362
		c-1.111,2.592-8.927,20.301-17.214,27.141l-5.26,8.335h39.502c2.262,0,7.857-4.771,7.857-25.834c0-21.914,0-73.191-8.539-89.053
		l-0.631-1.052C164.811,31.06,151.837,7,112.53,7H98.506z"/>
	<path d="M103.248,168.139c-13.402,0-31.414-12.922-32.175-13.471c-1.295-0.938-1.585-2.748-0.647-4.043
		c0.936-1.295,2.744-1.584,4.043-0.65c0.17,0.123,17.254,12.373,28.779,12.373c13.131,0,33.304-12.306,33.506-12.431
		c1.358-0.84,3.146-0.415,3.982,0.95c0.837,1.36,0.412,3.145-0.947,3.982C138.906,155.392,118.022,168.139,103.248,168.139z"/>
	<path d="M90.64,94.509c-0.809,0-1.615-0.34-2.189-0.999c-3.512-4.051-7.029-5.997-10.284-5.85c-4.886,0.248-8.316,5.053-8.35,5.101
		c-0.918,1.303-2.716,1.626-4.028,0.719c-1.308-0.914-1.637-2.703-0.733-4.016c0.203-0.294,5.022-7.156,12.757-7.583
		c5.2-0.28,10.261,2.349,15.014,7.835c1.046,1.21,0.916,3.036-0.291,4.085C91.988,94.276,91.312,94.509,90.64,94.509z"/>
	<circle cx="131.37" cy="90.725" r="4.162"/>
	<path d="M118.887,94.509c-0.672,0-1.349-0.232-1.896-0.708c-1.207-1.049-1.338-2.875-0.291-4.085
		c4.756-5.486,9.831-8.118,15.014-7.835c7.734,0.427,12.555,7.289,12.756,7.583c0.907,1.314,0.576,3.118-0.741,4.027
		c-1.31,0.907-3.11,0.575-4.021-0.733c-0.085-0.118-3.498-4.853-8.348-5.098c-3.28-0.153-6.772,1.796-10.283,5.85
		C120.502,94.169,119.696,94.509,118.887,94.509z"/>
	<path d="M106.083,121.925c-3.263,0-7.088-1.347-9.653-5.964c-0.345-0.619-0.45-1.346-0.294-2.039
		c0.054-0.236,1.329-5.869,3.26-9.735c0.712-1.431,2.452-2.019,3.882-1.298c1.431,0.713,2.013,2.452,1.298,3.883
		c-1.145,2.299-2.067,5.559-2.508,7.27c2.435,3.237,5.898,1.841,6.309,1.651c1.465-0.653,3.173,0.015,3.823,1.47
		c0.647,1.463-0.009,3.174-1.471,3.824C109.579,121.497,107.92,121.925,106.083,121.925z"/>
	<path d="M105.901,215.306C85.729,215.306,80,192.685,79,180.724V160.25c0-1.601,1.399-2.896,3-2.896s3,1.295,3,2.896v20.387
		c0,1.091,1.402,28.877,21.006,28.877c5.281,0,9.525-1.639,12.738-5.013c7.803-8.196,7.256-23.57,7.256-23.723V160.25
		c0-1.601,1.4-2.896,3-2.896c1.601,0,3,1.295,3,2.896v20.387c0,0.591,0.488,17.884-9.012,27.859
		C118.685,213.015,112.755,215.306,105.901,215.306z"/>
	<path d="M209.973,244c-0.003,0-0.009,0-0.012,0c-2.016,0-202.081-0.288-205.815-0.288c-1.599,0-3.146-0.823-3.146-2.424v-25.347
		C1,180.729,78.956,177,82.253,177c0.022,0,0.045,0,0.065,0c1.569,0,2.858,2.002,2.896,3.58c0.037,1.594-1.375,3.297-2.976,3.333
		C61.352,184.392,7,191.384,7,215.941v22.46c23,0.076,176,0.65,200,0.738v-23.198c0-24.558-55.736-31.177-77.226-31.654
		c-1.598-0.036-2.846-2.107-2.812-3.707c0.037-1.578,1.346-3.58,2.915-3.58c0.021,0,0.042,0,0.064,0
		c3.385,0,83.058,3.727,83.058,38.941v26.104c0,0.77-0.371,1.036-0.918,1.579C211.539,244.167,210.738,244,209.973,244z"/>
	<path d="M62.304,224H33.35c-1.599,0-2.895-1.4-2.895-3s1.296-3,2.895-3h28.955c1.599,0,2.896,1.4,2.896,3S63.903,224,62.304,224z"
		/>
	<path d="M105.77,227.981c-12.541,0-23.146-7.773-30.668-22.477c-5.583-10.914-7.496-21.647-7.575-22.1l2.853-0.498
		c0.074,0.421,7.7,42.179,35.39,42.179c27.718,0,36.323-41.788,36.408-42.21l2.839,0.56c-0.088,0.452-2.251,11.184-8.086,22.092
		C129.075,220.217,118.299,227.981,105.77,227.981z"/>
</g>
</svg>
