<?xml version="1.0" encoding="utf-8"?>
<!-- Generator: Adobe Illustrator 16.0.0, SVG Export Plug-In . SVG Version: 6.00 Build 0)  -->
<!DOCTYPE svg PUBLIC "-//W3C//DTD SVG 1.1//EN" "http://www.w3.org/Graphics/SVG/1.1/DTD/svg11.dtd">
<svg version="1.1" id="Layer_1" xmlns="http://www.w3.org/2000/svg" xmlns:xlink="http://www.w3.org/1999/xlink" x="0px" y="0px"
	 width="40px" height="40px" viewBox="0 0 40 40" enable-background="new 0 0 40 40" xml:space="preserve">
<path fill="#231F20" d="M40.033,37.79c0,1.222-0.99,2.21-2.211,2.21H27.623V24.498h5.201l0.781-6.043h-5.982v-3.856
	c0-1.749,0.484-2.941,2.994-2.941l3.199-0.001V6.251c-0.555-0.073-2.453-0.237-4.664-0.237c-4.611,0-7.771,2.815-7.771,7.985v4.456
	h-5.216v6.043h5.216V40H2.209C0.988,40,0,39.012,0,37.79V2.177c0-1.221,0.988-2.209,2.209-2.209h35.613
	c1.221,0,2.211,0.988,2.211,2.209V37.79z"/>
</svg>
