<?xml version="1.0" encoding="utf-8"?>
<!-- Generator: Adobe Illustrator 16.0.0, SVG Export Plug-In . SVG Version: 6.00 Build 0)  -->
<!DOCTYPE svg PUBLIC "-//W3C//DTD SVG 1.1//EN" "http://www.w3.org/Graphics/SVG/1.1/DTD/svg11.dtd">
<svg version="1.1" id="Layer_1" xmlns="http://www.w3.org/2000/svg" xmlns:xlink="http://www.w3.org/1999/xlink" x="0px" y="0px"
	 width="40px" height="40px" viewBox="0 0 40 40" enable-background="new 0 0 40 40" xml:space="preserve">
<path fill="#231F20" d="M35.159,0H4.743C2.125,0,0,2.12,0,4.732v30.436c0,2.617,2.125,4.734,4.743,4.734h30.416
	c2.622,0,4.743-2.117,4.743-4.734V4.732C39.902,2.12,37.781,0,35.159,0 M28.68,6.235c0-0.688,0.559-1.246,1.249-1.246h3.739
	c0.689,0,1.246,0.559,1.246,1.246v3.742c0,0.687-0.557,1.246-1.246,1.246h-3.739c-0.69,0-1.249-0.56-1.249-1.246V6.235z
	 M19.999,12.345c4.236,0,7.674,3.427,7.674,7.652c0,4.229-3.438,7.655-7.674,7.655c-4.238,0-7.672-3.427-7.672-7.655
	C12.327,15.772,15.761,12.345,19.999,12.345 M36.163,34.914c0,0.688-0.559,1.247-1.249,1.247H4.988
	c-0.688,0-1.246-0.559-1.246-1.247V16.21h4.986c-0.648,0.934-0.867,2.68-0.867,3.787c0,6.677,5.443,12.109,12.138,12.109
	c6.691,0,12.138-5.433,12.138-12.109c0-1.106-0.157-2.825-0.963-3.787h4.989V34.914z"/>
</svg>
