<?xml version="1.0" encoding="utf-8"?>
<!-- Generator: Adobe Illustrator 16.0.0, SVG Export Plug-In . SVG Version: 6.00 Build 0)  -->
<!DOCTYPE svg PUBLIC "-//W3C//DTD SVG 1.1//EN" "http://www.w3.org/Graphics/SVG/1.1/DTD/svg11.dtd">
<svg version="1.1" id="Layer_1" xmlns="http://www.w3.org/2000/svg" xmlns:xlink="http://www.w3.org/1999/xlink" x="0px" y="0px"
	 width="85px" height="85px" viewBox="0 0 85 85" enable-background="new 0 0 85 85" xml:space="preserve">
<g>
	<path fill="#231F20" d="M44.512,16.709c0.066,0.062-0.381,0.752-0.316,0.813c0.156,0.146,0.087,0.064,0.243,0.204
		c0.063,0.056,1.396-0.776,1.459-0.721c0.076,0.065-0.891,1.229-0.816,1.306c0.141,0.146,1,0.766,1.553,1.041
		c3.047,1.518,8.233,1.617,10.755,0.016c-0.489-0.612-1.047-1.221-1.679-1.807c-4.19-3.882-12.797-5.75-12.797-5.75
		s5.707,1.1,10.168,3.292c0.958,0.47,3.744,2.663,4.445,3.502c-0.142-1.242-0.842-6.043-3.458-8.023
		c-2.571-1.948-11.985-3.474-16.686,2.448c3.024,0.762,4.793,2.571,6.435,4.142C43.879,17.231,44.512,16.709,44.512,16.709z"/>
	<path fill="#231F20" d="M56.115,22.839c-0.684,0.705-3.877,0.938-6.618,1.353c-2.535,0.385-6.419,1.42-8.382,2.21v1.974
		c3.013-1.474,8.808-3.406,13.556-3.799c2.106-0.175,2.461-0.27,3.263-1.776l0.001,0c0.001-0.001,0.002-0.003,0.003-0.004
		c0.008-0.016,0.016-0.029,0.024-0.045h-0.005c3.261-7.06-1.487-14.063-1.564-13.36C56.426,9.617,60.58,19.206,56.115,22.839z"/>
	<path fill="#231F20" d="M71.376,1.561c-0.215,0.032-0.707,1.543-0.707,1.543s-0.356-1.371-0.759-1.275
		c-3.328,0.796-6.47,2.333-7.685,3.617c-3.034,3.205-2.819,10.398-2.731,12.077c1.263-2.525,1.999-3.868,3.962-5.231
		c5.561-3.856,8.395-3.826,8.395-3.826s-10.52,3.471-12.095,9.366c3.698,1.569,9.79,0.562,12.74-2.938
		c2.919-3.463,6.42-7.269,12.402-9.877C80.99,1.481,75.842,0.88,71.376,1.561z"/>
	<path fill="#231F20" d="M55.315,25.332c-4.586,0.581-11.492,2.489-14.2,3.872v5.919c2.266,0.71,8.699,1.577,12.418,2.177
		c5.257,0.85,12.173,1.061,20.057,1.259v-1.655c-6.397-0.129-11.971-0.01-16.259-0.671c-6.225-0.963-15.168-3.025-15.075-4.483
		c0.094-1.484,9.68-4.894,18.065-7.005c4.174-1.051,8.163-1.347,13.229-1.692h-12.41C59.365,23.45,58.898,24.878,55.315,25.332z"/>
	<path fill="#231F20" d="M65.58,30.35c-0.034,0.423,0.091,0.875,2.464,1.165c1.466,0.178,3.387-0.015,5.546,0.012v-3.062
		c-1.648,0.171-3.305,0.436-4.837,0.782C66.307,29.8,65.616,29.913,65.58,30.35z"/>
	<path fill="#231F20" d="M60.979,49.908c-1.429-0.26-3.505-0.211-5.776-0.284c-0.119-0.003-0.249-0.004-0.388-0.004
		c-1.752,0-4.78-0.025-5.383,0.861c-0.549,0.809-0.126,1.295,1.661,1.824h7.143c0.738-0.154,1.468-0.352,2.158-0.585
		c1.642-0.553,2.105-0.666,2.129-1.102C62.546,50.192,62.573,50.195,60.979,49.908z"/>
	<path fill="#231F20" d="M73.59,23.799c-5.038,0.385-13.642,2.053-18.469,3.439c-6.208,1.782-7.149,3.105-7.96,4.26
		c-0.789,1.124,2.826,2.573,8.85,3.503c4.7,0.726,10.738,0.731,17.579,0.931v-1.38c-4.081-0.182-7.616-0.018-10.434-0.393
		c-4.443-0.594-10.926-1.421-10.938-3.164c-0.013-1.667,7.24-3.173,11.796-4.303c3.036-0.754,6.326-0.912,9.575-1.283V23.799z"/>
	<path fill="#231F20" d="M73.59,25.913c-3.239,0.331-6.518,1.111-9.532,1.859c-4.432,1.1-7.455,2.2-7.518,3.068
		c-0.062,0.84,2.179,1.587,6.478,2.162c2.793,0.374,6.446,0.441,10.572,0.628v-1.153c-2.131-0.092-4.31-0.061-5.797-0.242
		c-2.453-0.299-6.425-1.425-6.402-1.879c0.048-1.031,3.646-1.321,6.16-1.891c1.842-0.417,4.593-0.583,6.039-0.742V25.913z"/>
	<path fill="#231F20" d="M51.015,23.053h-9.899v2.279c2.12-0.811,7.579-1.578,9.801-2.25C50.949,23.071,50.982,23.062,51.015,23.053
		z"/>
	<path fill="#231F20" d="M73.59,45.098c-0.919-0.266-1.921-0.521-2.984-0.771c-4.458-1.047-10.692-1.096-17.769-1.386
		c-0.372-0.016-1.496-0.051-1.926-0.051c-1.914,0-7.479,0.021-9.796,0.203v1.555c3.043-0.421,9.545-0.421,11.521-0.421
		c0.353,0,0.687,0.006,0.991,0.019c5.771,0.213,10.79,0.164,14.43,0.941c2.072,0.442,4.062,1.033,5.532,1.682V45.098z"/>
	<path fill="#231F20" d="M73.59,43.149c-5.251-1.252-12.666-1.724-20.944-2.075c-0.439-0.018-1.013-0.072-1.52-0.072
		c-1.954,0-7.566,0.058-10.011,0.262v1.24c2.755-0.223,8.615-0.223,10.396-0.223c0.432,0,0.842,0.008,1.215,0.023
		c7.089,0.29,13.251,0.223,17.72,1.27c1.079,0.255,2.142,0.542,3.145,0.859V43.149z"/>
	<path fill="#231F20" d="M73.59,39.689c-9.63-0.207-18.011-0.571-24.415-1.612c-1.651-0.27-6.502-0.796-8.06-1.124v3.166
		c2.652-0.158,8.331-0.158,10.083-0.158c0.51,0,17.061,0.299,22.331,1.578c0.02,0.005,0.04,0.003,0.061,0.009V39.689z"/>
	<path fill="#231F20" d="M68.138,50.127c0.042-0.84-1.012-1.588-3.896-2.163c-2.592-0.515-6.285-0.878-10.398-1.021
		c-0.215-0.007-0.452-0.01-0.701-0.01c-2.591,0-9.985,0.272-12.027,1.328v4.043h7.438c-0.62-0.498-2.59-0.949-2.59-1.609
		c0.002-1.641,7.017-1.992,8.78-1.992c0.139,0,0.31-0.003,0.431,0c2.274,0.071,4.21,0.247,5.645,0.507
		c1.645,0.298,3.382,0.799,3.358,1.251c-0.024,0.437-1.577,1.272-3.17,1.843h4.639C67.171,51.51,68.109,50.713,68.138,50.127z"/>
	<path fill="#231F20" d="M73.59,50.856v-0.353v-2.135c-0.917-0.758-2.739-1.892-5.402-2.458c-3.63-0.775-7.446-0.717-13.208-0.931
		c-0.191-0.007-9.207-0.195-13.864,0.491v1.729c2.606-1.016,9.941-1.172,12.029-1.172c0.25,0,0.562-0.006,0.779,0
		c4.12,0.144,7.628,0.491,10.225,1.006c2.98,0.593,5.721,2.039,5.677,2.938c-0.028,0.563-1.228,1.463-2.858,2.333h6.623V50.856z"/>
	<path fill="#231F20" d="M5.977,52.31h5.363c2.375-0.014,3.964-0.417,4.77-1.208c0.805-0.819,1.208-2.082,1.208-3.787V27.93
		c0-1.706-0.403-2.968-1.208-3.787c-0.806-0.792-2.395-1.194-4.77-1.208H5.977c-2.374,0.014-3.964,0.416-4.77,1.208
		C0.403,24.962,0,26.225,0,27.93v19.385c0,1.705,0.403,2.967,1.208,3.787C2.013,51.894,3.603,52.296,5.977,52.31z M6.551,29.363
		c0-0.519,0.245-0.778,0.737-0.778h2.722c0.504,0,0.757,0.259,0.757,0.778v16.519c0,0.519-0.253,0.779-0.757,0.779H7.288
		c-0.492,0-0.737-0.261-0.737-0.779V29.363z"/>
	<path fill="#231F20" d="M37.319,27.93c0-1.706-0.402-2.968-1.208-3.787c-0.805-0.792-2.395-1.194-4.769-1.208h-11.34V52.31h11.34
		c2.375-0.014,3.964-0.417,4.769-1.208c0.806-0.819,1.208-2.082,1.208-3.787V27.93z M30.769,45.882c0,0.519-0.252,0.779-0.757,0.779
		h-3.46V28.585h3.46c0.504,0,0.757,0.259,0.757,0.778V45.882z"/>
	<path fill="#231F20" d="M11.688,55.626H0.348V85h11.34c2.374-0.014,3.964-0.417,4.77-1.208c0.805-0.818,1.208-2.081,1.208-3.787
		V60.62c0-1.705-0.403-2.968-1.208-3.786C15.652,56.042,14.062,55.64,11.688,55.626z M11.116,78.572
		c0,0.519-0.253,0.779-0.758,0.779H6.898V61.276h3.459c0.504,0,0.758,0.259,0.758,0.777V78.572z"/>
	<polygon fill="#231F20" points="20.367,79.351 20.346,79.351 20.346,85 35.063,85 35.063,79.351 26.916,79.351 26.916,73.128 
		32.471,73.128 32.471,67.479 26.916,67.479 26.916,61.276 35.063,61.276 35.063,55.626 20.367,55.626 	"/>
	<path fill="#231F20" d="M47.98,55.626h-4.954c-2.375,0.014-3.964,0.417-4.77,1.208c-0.805,0.818-1.207,2.082-1.207,3.786v19.385
		c0,1.706,0.402,2.969,1.207,3.787c0.805,0.792,2.395,1.195,4.77,1.208h4.954c2.374-0.014,3.964-0.417,4.77-1.208
		c0.805-0.818,1.207-2.081,1.207-3.787v-5.458h-6.14v4.025c0,0.519-0.254,0.779-0.758,0.779h-2.724c-0.49,0-0.736-0.26-0.736-0.779
		V62.053c0-0.519,0.246-0.777,0.736-0.777h2.724c0.504,0,0.758,0.259,0.758,0.777v4.025h6.14V60.62c0-1.705-0.402-2.968-1.207-3.786
		C51.944,56.042,50.354,55.64,47.98,55.626z"/>
	<polygon fill="#231F20" points="67.097,66.754 62.881,66.754 62.881,55.626 56.33,55.626 56.33,85 62.881,85 62.881,73.852 
		67.097,73.852 67.097,85 73.646,85 73.646,55.626 67.097,55.626 	"/>
</g>
</svg>
