<?xml version="1.0" encoding="utf-8"?>
<!-- Generator: Adobe Illustrator 16.0.0, SVG Export Plug-In . SVG Version: 6.00 Build 0)  -->
<!DOCTYPE svg PUBLIC "-//W3C//DTD SVG 1.1//EN" "http://www.w3.org/Graphics/SVG/1.1/DTD/svg11.dtd">
<svg version="1.1" id="Layer_1" xmlns="http://www.w3.org/2000/svg" xmlns:xlink="http://www.w3.org/1999/xlink" x="0px" y="0px"
	 width="213px" height="245px" viewBox="0 0 213 245" enable-background="new 0 0 213 245" xml:space="preserve">
<g>
	<defs>
		<path id="SVGID_1_" d="M73.041,161.877C62.274,152.133,55,138.073,55,122.45V86.742c0,0,49.86,1.258,49.86-26.742h25.129
			c0,0,32.011,18.806,32.011,32.032v30.861C162,138.29,155.113,153,144.612,161h0.826l15.403,0.281
			c16.491-4.066,26.901-42.858,26.901-66.545c0-37.567-26.188-68.917-61.299-77.01c0.003-0.093,0.017-0.147,0.017-0.239
			c0-8.279-7.992-14.968-17.855-14.968c-9.86,0-17.854,6.721-17.854,15c0,0.096,0.015,0.19,0.018,0.283
			c-35.11,8.093-61.295,39.529-61.295,77.096c0,24.333,10.752,63.171,28.031,67.024L73.041,161.877z"/>
	</defs>
	<clipPath id="SVGID_2_">
		<use xlink:href="#SVGID_1_"  overflow="visible"/>
	</clipPath>
	<g clip-path="url(#SVGID_2_)">
		
			<rect x="-40.105" y="158.657" transform="matrix(0.7071 0.7071 -0.7071 0.7071 130.6165 4.6237)" width="199.664" height="2.644"/>
		
			<rect x="-34.815" y="150.721" transform="matrix(0.7071 0.7071 -0.7071 0.7071 126.5543 -1.4418)" width="199.665" height="2.644"/>
		
			<rect x="-29.524" y="142.785" transform="matrix(0.7071 0.7071 -0.7071 0.7071 122.4921 -7.5072)" width="199.664" height="2.645"/>
		
			<rect x="-24.234" y="134.849" transform="matrix(0.7071 0.7071 -0.7071 0.7071 118.4299 -13.5728)" width="199.665" height="2.646"/>
		
			<rect x="-18.944" y="126.914" transform="matrix(0.7071 0.7071 -0.7071 0.7071 114.3684 -19.6374)" width="199.664" height="2.645"/>
		
			<rect x="-13.653" y="118.979" transform="matrix(0.7071 0.7071 -0.7071 0.7071 110.3068 -25.7023)" width="199.664" height="2.645"/>
		
			<rect x="-8.363" y="111.043" transform="matrix(0.7071 0.7071 -0.7071 0.7071 106.245 -31.7672)" width="199.664" height="2.645"/>
		
			<rect x="-3.073" y="103.109" transform="matrix(0.7071 0.7071 -0.7071 0.7071 102.1851 -37.8319)" width="199.665" height="2.645"/>
		<rect x="2.217" y="95.173" transform="matrix(0.7071 0.7071 -0.7071 0.7071 98.1218 -43.8973)" width="199.665" height="2.645"/>
		<rect x="7.508" y="87.237" transform="matrix(0.7071 0.7071 -0.7071 0.7071 94.06 -49.9622)" width="199.664" height="2.645"/>
		<rect x="12.798" y="79.302" transform="matrix(0.7071 0.7071 -0.7071 0.7071 89.9987 -56.0272)" width="199.664" height="2.644"/>
		<rect x="18.088" y="71.367" transform="matrix(0.7071 0.7071 -0.7071 0.7071 85.9372 -62.0923)" width="199.664" height="2.644"/>
		<rect x="23.379" y="63.43" transform="matrix(0.7071 0.7071 -0.7071 0.7071 81.8744 -68.1573)" width="199.665" height="2.645"/>
		<rect x="28.669" y="55.496" transform="matrix(0.7071 0.7071 -0.7071 0.7071 77.8138 -74.2224)" width="199.665" height="2.645"/>
		<rect x="33.959" y="47.56" transform="matrix(0.7071 0.7071 -0.7071 0.7071 73.7525 -80.2872)" width="199.664" height="2.645"/>
		<rect x="39.249" y="39.625" transform="matrix(0.7071 0.7071 -0.7071 0.7071 69.6904 -86.352)" width="199.663" height="2.644"/>
		<rect x="44.539" y="31.69" transform="matrix(0.7071 0.7071 -0.7071 0.7071 65.6286 -92.4171)" width="199.664" height="2.645"/>
		<rect x="49.83" y="23.754" transform="matrix(0.7071 0.7071 -0.7071 0.7071 61.5669 -98.4824)" width="199.664" height="2.645"/>
	</g>
</g>
<path d="M109,178.221c-30.63,0-56-25.018-56-55.771V84.026l3.223,0.081c4.631,0,44.777-0.67,44.777-23.817V57h29.704l0.93,0.683
	C135.019,59.657,165,77.7,165,92.032v30.861C165,153.399,139.627,178.221,109,178.221z M58,89.381v33.069
	c0,27.833,22.788,50.48,50.5,50.48c27.711,0,50.5-22.448,50.5-50.038V92.032C159,83.651,141.058,69,129.269,62h-21.897
	C104.917,86,69,89.184,58,89.381z"/>
<path d="M109,178.221c-30.63,0-56-25.018-56-55.771V84.026l3.223,0.081c4.631,0,44.777-0.67,44.777-23.817V57h29.704l0.93,0.683
	C135.019,59.657,165,77.7,165,92.032v30.861C165,153.399,139.627,178.221,109,178.221z M58,89.381v33.069
	c0,27.833,22.788,50.48,50.5,50.48c27.711,0,50.5-22.448,50.5-50.038V92.032C159,83.651,141.058,69,129.269,62h-21.897
	C104.917,86,69,89.184,58,89.381z"/>
<path d="M110.15,154.853c-10.498,0-14.55-5.501-14.718-5.736c-0.849-1.188-0.573-2.841,0.616-3.689
	c1.174-0.842,2.809-0.58,3.666,0.583c0.164,0.208,2.915,3.553,10.436,3.553c6.064,0,9.157-3.611,9.186-3.646
	c0.914-1.132,2.586-1.31,3.72-0.393c1.137,0.919,1.312,2.583,0.394,3.72C123.263,149.473,118.809,154.853,110.15,154.853z"/>
<circle cx="136.271" cy="119.475" r="3.637"/>
<circle cx="78.078" cy="119.475" r="3.637"/>
<path d="M151.15,105h-15.871c-1.462,0-2.646-1.038-2.646-2.5c0-1.462,1.184-2.5,2.646-2.5h15.871c1.461,0,2.645,1.038,2.645,2.5
	C153.795,103.962,152.611,105,151.15,105z"/>
<path d="M85.021,105H69.15c-1.46,0-2.645-1.038-2.645-2.5c0-1.462,1.185-2.5,2.645-2.5h15.871c1.461,0,2.646,1.038,2.646,2.5
	C87.667,103.962,86.482,105,85.021,105z"/>
<g>
	<path d="M161.729,113H55.925c-1.46,0-2.645-1.038-2.645-2.5c0-1.462,1.185-2.5,2.645-2.5h105.804c1.463,0,2.646,1.038,2.646,2.5
		C164.375,111.962,163.192,113,161.729,113z"/>
	<path d="M150.488,134h-25.789c-1.104,0-2.093-0.509-2.479-1.544l-7.493-19.969c-0.512-1.367,0.184-2.846,1.554-3.357
		c1.367-0.513,2.89,0.673,3.401,2.042L126.535,130h21.688l2.735-18.067c0.226-1.444,1.584-2.662,3.021-2.443
		c1.444,0.225,2.434,1.459,2.209,2.904l-3.085,19.603C152.9,133.284,151.793,134,150.488,134z"/>
	<path d="M90.534,134H64.744c-1.304,0-2.414-0.774-2.614-2.062l-3.085-19.75c-0.225-1.442,0.764-2.752,2.207-2.976
		c1.439-0.223,2.795,1.251,3.021,2.699L67.009,130h21.689l6.852-18.806c0.51-1.369,2.03-2.298,3.403-1.786
		c1.368,0.511,2.063,1.917,1.551,3.284l-7.494,19.822C92.625,133.55,91.638,134,90.534,134z"/>
</g>
<path d="M114.118,166h-10.581c-1.46,0-2.645-1.039-2.645-2.5s1.185-2.5,2.645-2.5h10.581c1.462,0,2.646,1.039,2.646,2.5
	S115.58,166,114.118,166z"/>
<path d="M57.448,164.569l-0.288-0.065c-20.195-4.502-30.331-47.051-30.331-69.605c0-37.635,25.141-69.916,61.386-79.192
	c1.063-8.871,9.803-15.813,20.391-15.813c10.589,0,19.327,6.942,20.392,15.813c36.249,9.274,61.392,41.556,61.392,79.192
	c0,22.305-9.662,64.533-28.914,69.274l-0.625,0.078l-15.403,0.049l-0.016-5.29l15.068-0.049
	c14.286-3.976,24.599-40.861,24.599-64.062c0-35.832-24.364-66.474-59.246-74.513l-2.111-0.487l0.078-2.449
	c-0.003-6.727-6.825-12.266-15.213-12.266c-8.386,0-15.209,5.539-15.209,12.345l0.078,2.37l-2.11,0.487
	c-34.883,8.04-59.244,38.681-59.244,74.513c0,12.383,2.868,27.815,7.487,40.273c5.142,13.871,11.679,22.415,18.433,24.106
	l15.942-0.049l0.016,5.29L57.448,164.569z"/>
<polygon points="107.004,231.541 74,190.83 74,166 79,166 79,188.975 106.612,223.208 135,189.816 135,166 141,166 141,191.748 "/>
<path d="M109.827,138.864c-3.139,0-5.543-0.997-7.167-2.974c-3.444-4.197-1.441-10.859-1.203-11.604
	c0.447-1.395,1.941-2.151,3.327-1.71c1.39,0.447,2.154,1.932,1.713,3.322c-0.474,1.495-1.028,5.084,0.255,6.638
	c0.912,1.101,2.9,1.121,4.416,0.953c1.439-0.175,2.766,0.874,2.931,2.326c0.167,1.448-0.874,2.761-2.325,2.929
	C111.098,138.826,110.447,138.864,109.827,138.864z"/>
<path d="M206.036,245H6.019c-1.357,0-2.496-0.805-2.633-2.156c-0.285-2.82-2.499-27.684,7.612-35.626
	c15.561-12.227,60.826-18.99,62.746-19.274c1.45-0.188,2.79,0.812,3.004,2.258c0.214,1.444-0.784,2.806-2.229,3.02
	c-0.456,0.066-45.791,6.821-60.253,18.182C8.271,216.113,7.956,232,8.46,240h195.134c0.5-8,0.18-23.89-5.806-28.591
	c-14.466-11.363-59.786-17.983-60.244-18.05c-1.443-0.207-2.446-1.529-2.237-2.978c0.208-1.439,1.52-2.448,2.998-2.227
	c1.919,0.277,47.188,6.94,62.754,19.17c10.111,7.942,7.895,32.697,7.609,35.518C208.531,244.193,207.396,245,206.036,245z"/>
<polygon points="106.124,245.354 66.334,192.902 68.441,191.307 106.242,241.133 148.381,191.688 150.396,193.403 "/>
</svg>
