<?xml version="1.0" encoding="utf-8"?>
<!-- Generator: Adobe Illustrator 16.0.0, SVG Export Plug-In . SVG Version: 6.00 Build 0)  -->
<!DOCTYPE svg PUBLIC "-//W3C//DTD SVG 1.1//EN" "http://www.w3.org/Graphics/SVG/1.1/DTD/svg11.dtd">
<svg version="1.1" id="Layer_1" xmlns="http://www.w3.org/2000/svg" xmlns:xlink="http://www.w3.org/1999/xlink" x="0px" y="0px"
	 width="113px" height="21px" viewBox="0 0 113 21" enable-background="new 0 0 113 21" xml:space="preserve">
<path fill="#A2AB8A" d="M107.588,16.042L94.917,0.899c-0.464-0.555-1.149-0.88-1.874-0.886c-0.756-0.092-1.414,0.304-1.891,0.853
	L79.92,13.816L69.111,0.899c-0.463-0.555-1.148-0.88-1.873-0.886c-0.785-0.092-1.415,0.304-1.891,0.853L54.115,13.816L43.308,0.899
	c-0.464-0.555-1.15-0.88-1.875-0.886c-0.766-0.049-1.416,0.306-1.889,0.853L28.311,13.816L17.503,0.899
	c-0.465-0.555-1.151-0.88-1.875-0.886c-0.752-0.049-1.416,0.306-1.889,0.853L0.604,16.008c-0.895,1.031-0.784,2.594,0.247,3.489
	c1.03,0.894,2.591,0.779,3.488-0.249L15.572,6.297L26.38,19.215c0.032,0.038,0.071,0.064,0.104,0.1
	c0.057,0.061,0.107,0.127,0.172,0.183c0.024,0.021,0.051,0.033,0.075,0.053c0.056,0.045,0.115,0.083,0.174,0.122
	c0.087,0.059,0.175,0.114,0.267,0.16c0.062,0.031,0.125,0.057,0.188,0.082c0.095,0.038,0.191,0.07,0.289,0.097
	c0.068,0.018,0.135,0.032,0.204,0.045c0.096,0.016,0.191,0.025,0.287,0.03c0.046,0.003,0.091,0.015,0.137,0.015
	c0.035,0,0.07-0.008,0.105-0.009c0.052-0.002,0.103-0.008,0.155-0.014c0.102-0.011,0.203-0.027,0.303-0.051
	c0.048-0.011,0.094-0.022,0.142-0.037c0.1-0.029,0.197-0.067,0.293-0.11c0.046-0.021,0.093-0.04,0.138-0.063
	c0.088-0.046,0.173-0.101,0.256-0.158c0.049-0.033,0.098-0.064,0.145-0.102c0.016-0.012,0.033-0.021,0.048-0.033
	c0.051-0.043,0.089-0.094,0.136-0.139c0.048-0.047,0.101-0.086,0.146-0.137L41.377,6.297l10.808,12.917
	c0.032,0.038,0.071,0.064,0.105,0.101c0.057,0.061,0.107,0.126,0.171,0.182c0.023,0.021,0.05,0.033,0.074,0.053
	c0.057,0.045,0.116,0.083,0.176,0.123c0.087,0.059,0.174,0.113,0.265,0.159c0.062,0.03,0.125,0.057,0.19,0.083
	c0.095,0.037,0.19,0.07,0.288,0.096c0.068,0.018,0.136,0.032,0.205,0.045c0.095,0.016,0.19,0.025,0.287,0.03
	c0.046,0.003,0.091,0.015,0.137,0.015c0.035,0,0.07-0.008,0.105-0.009c0.052-0.002,0.104-0.008,0.155-0.014
	c0.102-0.011,0.2-0.027,0.3-0.05c0.05-0.012,0.098-0.024,0.146-0.039c0.097-0.028,0.19-0.065,0.284-0.106
	c0.051-0.021,0.101-0.043,0.15-0.068c0.082-0.043,0.16-0.095,0.238-0.148c0.055-0.037,0.111-0.071,0.163-0.113
	c0.014-0.011,0.028-0.019,0.042-0.029c0.044-0.036,0.076-0.081,0.117-0.119c0.055-0.053,0.115-0.098,0.166-0.156L67.183,6.297
	l10.81,12.917c0.029,0.035,0.065,0.059,0.097,0.092c0.059,0.063,0.111,0.132,0.179,0.19c0.023,0.021,0.052,0.034,0.076,0.054
	c0.055,0.044,0.113,0.081,0.171,0.12c0.088,0.06,0.178,0.115,0.271,0.162c0.061,0.03,0.121,0.055,0.183,0.08
	c0.099,0.039,0.197,0.073,0.3,0.1c0.063,0.017,0.126,0.03,0.19,0.042c0.102,0.018,0.203,0.027,0.307,0.032
	c0.042,0.002,0.083,0.014,0.125,0.014c0.031,0,0.063-0.007,0.095-0.008c0.06-0.003,0.118-0.009,0.178-0.016
	c0.092-0.01,0.184-0.025,0.274-0.046c0.057-0.013,0.113-0.027,0.169-0.044c0.089-0.027,0.175-0.061,0.261-0.099
	c0.057-0.024,0.113-0.048,0.169-0.077c0.078-0.041,0.152-0.09,0.227-0.141c0.058-0.038,0.115-0.074,0.17-0.118
	c0.014-0.011,0.028-0.018,0.042-0.029c0.046-0.038,0.08-0.085,0.123-0.126c0.053-0.051,0.11-0.093,0.159-0.149L92.987,6.297
	l10.81,12.917c0.488,0.584,1.19,0.886,1.897,0.886c0.559,0,1.121-0.188,1.584-0.577C108.326,18.647,108.464,17.09,107.588,16.042z"
	/>
</svg>
