<?xml version="1.0" encoding="utf-8"?>
<!-- Generator: Adobe Illustrator 16.0.0, SVG Export Plug-In . SVG Version: 6.00 Build 0)  -->
<!DOCTYPE svg PUBLIC "-//W3C//DTD SVG 1.1//EN" "http://www.w3.org/Graphics/SVG/1.1/DTD/svg11.dtd">
<svg version="1.1" id="Layer_1" xmlns="http://www.w3.org/2000/svg" xmlns:xlink="http://www.w3.org/1999/xlink" x="0px" y="0px"
	 width="176px" height="176px" viewBox="0 0 176 176" enable-background="new 0 0 176 176" xml:space="preserve">
<path d="M71.821,159.862c-0.121,0-0.24,0-0.359-0.002c-0.702-0.016-1.257-0.595-1.244-1.297c0.015-0.699,0.602-1.187,1.295-1.241
	c3.263,0.066,5.797-0.92,7.665-3.021c4.94-5.555,3.44-16.837,3.426-16.951c-0.097-0.694,0.388-1.333,1.082-1.431
	c0.687-0.094,1.337,0.387,1.432,1.084c0.071,0.508,1.667,12.563-4.043,18.985C78.786,158.561,75.675,159.862,71.821,159.862z"/>
<path d="M99.723,159.543c-0.324,0-0.649-0.124-0.896-0.372c-7.136-7.136-2.568-21.167-2.37-21.762
	c0.222-0.662,0.93-1.033,1.606-0.804c0.663,0.224,1.024,0.94,0.803,1.606c-0.045,0.129-4.271,13.14,1.755,19.165
	c0.495,0.495,0.495,1.298,0,1.794C100.373,159.419,100.047,159.543,99.723,159.543z"/>
<path d="M85.764,142.728c-0.092,0-0.184-0.01-0.277-0.029c-0.685-0.153-1.114-0.833-0.961-1.518
	c5.809-25.913,3.151-36.487-0.586-44.055c-1.038-2.101-2.831-4.682-4.906-7.67C74.154,82.43,68.08,73.685,66.272,63.589
	c-4.517-25.22,9.442-35.324,10.04-35.741c0.479-0.336,1.127-0.3,1.569,0.089c0.438,0.389,0.554,1.029,0.278,1.547
	c-10.242,19.254,0.132,42.95,12.126,57.393c9.507,11.447,9.14,22.603,9.12,23.07c-0.032,0.698-0.642,1.256-1.32,1.212
	c-0.699-0.028-1.244-0.619-1.217-1.318c0.004-0.106,0.314-10.687-8.537-21.343c-11.147-13.423-20.904-34.604-15.19-53.475
	c-3.359,5.021-6.897,14.011-4.371,28.118c1.711,9.552,7.609,18.045,12.347,24.869c2.135,3.071,3.975,5.723,5.098,7.993
	c3.942,7.985,6.77,19.053,0.787,45.734C86.869,142.327,86.346,142.728,85.764,142.728z"/>
<path d="M75.136,125.54c-0.172,0-0.348-0.038-0.517-0.112c-0.639-0.285-0.927-1.036-0.642-1.676
	c0.071-0.158,6.924-16.074-5.157-32.784c-0.41-0.567-0.282-1.36,0.285-1.771c0.566-0.415,1.361-0.284,1.772,0.284
	c12.967,17.937,5.73,34.608,5.416,35.31C76.083,125.259,75.62,125.54,75.136,125.54z"/>
<path d="M61.811,79.017c-0.362,0-0.723-0.155-0.973-0.455c-0.889-1.061-21.627-26.201-9.595-44.039
	c1.485-2.201,3.056-4.041,4.576-5.822c5.102-5.979,9.509-11.142,6.65-26.87c-0.107-0.586,0.208-1.167,0.757-1.397
	c0.545-0.231,1.185-0.048,1.528,0.439c0.464,0.658,11.221,16.388-2.71,38.836c-9.484,15.281,2.974,27.867,8.961,33.916
	c0.881,0.89,1.619,1.637,2.129,2.229c0.458,0.53,0.398,1.331-0.131,1.79c-0.528,0.456-1.329,0.401-1.79-0.131
	c-0.482-0.558-1.18-1.261-2.011-2.101c-5.941-6.003-19.854-20.059-9.314-37.04c7.163-11.542,7.338-21.222,6.02-27.634
	c0.003,10.046-3.986,14.723-8.157,19.612c-1.473,1.727-2.998,3.511-4.402,5.594c-10.965,16.254,9.231,40.746,9.436,40.991
	c0.45,0.538,0.38,1.337-0.158,1.787C62.387,78.92,62.098,79.017,61.811,79.017z"/>
<path d="M94.012,94.188c-0.247,0-0.495-0.071-0.713-0.221c-0.58-0.394-0.729-1.183-0.336-1.763
	c0.065-0.098,6.571-9.811,5.969-21.587c-0.473-9.197,3.252-25.458,13.01-32.819c5.605-4.226,12.352-5.034,20.078-2.393
	c5.951,2.032,11.824,0.393,16.041-1.611c-4.353,0.537-9.917,0.444-14.815-2.088c-4.577-2.37-13.532-2.895-21.804,0.673
	c-4.63,1.999-10.621,6.039-12.879,13.934c-1.494,5.237-3.758,13.15-3.439,23.567c0.35,11.603-5.421,16.798-5.669,17.014
	c-0.525,0.459-1.329,0.411-1.789-0.118c-0.461-0.527-0.409-1.329,0.118-1.791c0.045-0.042,5.113-4.697,4.801-15.029
	c-0.326-10.811,2.001-18.953,3.54-24.34c2.528-8.852,9.179-13.352,14.312-15.568c7.938-3.426,18.021-3.675,23.976-0.599
	c8.605,4.454,20.121,0.296,20.234,0.254c0.578-0.212,1.222,0.018,1.532,0.548c0.312,0.528,0.2,1.204-0.266,1.605
	c-0.488,0.421-12.122,10.254-24.716,5.949c-6.869-2.351-12.834-1.669-17.725,2.018c-8.918,6.725-12.436,22.273-12.007,30.663
	c0.649,12.654-6.116,22.724-6.404,23.146C94.814,93.994,94.416,94.188,94.012,94.188z"/>
<path d="M100.519,99.741c-0.029,0-0.06-0.001-0.089-0.002c-0.699-0.05-1.228-0.655-1.18-1.354c0.004-0.062,0.371-6.166-3.188-9.086
	c-0.54-0.444-0.619-1.244-0.175-1.787c0.445-0.543,1.248-0.618,1.786-0.176c4.581,3.758,4.13,10.922,4.109,11.225
	C101.735,99.231,101.178,99.741,100.519,99.741z"/>
<path d="M107.496,87.843c-0.387,0-0.771-0.177-1.019-0.512c-2.638-3.552-6.075-7.697-7.029-8.201
	c-0.62-0.327-0.858-1.096-0.53-1.715c0.329-0.621,1.1-0.855,1.714-0.528c1.906,1.007,6.515,7.09,7.883,8.93
	c0.419,0.563,0.3,1.358-0.263,1.776C108.026,87.761,107.761,87.843,107.496,87.843z"/>
<path d="M90.998,83.56c-0.342,0-0.684-0.139-0.934-0.411c-14.759-16.1-12.23-36.479-5.581-49.041
	c5.771-10.903,26.433-27.012,27.311-27.692c0.476-0.372,1.149-0.357,1.606,0.042c0.458,0.394,0.575,1.056,0.276,1.583
	c-2.221,3.947-4.859,6.801-7.658,9.822c-4.565,4.933-9.738,10.523-14.8,22.719c-7.85,18.919,3.302,31.531,3.415,31.657
	c0.472,0.519,0.432,1.321-0.086,1.792c-0.516,0.47-1.318,0.435-1.793-0.086c-0.123-0.138-12.34-13.946-3.88-34.333
	c5.234-12.616,10.573-18.382,15.281-23.471c0.056-0.059,0.11-0.12,0.167-0.18c-6.435,5.669-14.478,13.442-17.598,19.337
	c-1.389,2.625-13.048,26.221,5.207,46.137c0.473,0.517,0.439,1.32-0.077,1.793C91.612,83.449,91.306,83.56,90.998,83.56z"/>
<path d="M85.5,175.252c-8.114,0-11.371-6.672-14.521-13.124l-0.721-1.473c-1.147-2.314-2.772-4.31-4.491-6.422
	c-5.698-6.997-12.157-14.926-7.518-38.779c4.768-24.511-2.916-28.127-8.526-30.768c-1.06-0.499-2.061-0.97-2.927-1.547
	c-6.446-4.297-10.651-15.173-11.839-30.625c-1.151-14.963-19.54-19.829-19.726-19.876c-0.821-0.209-1.403-0.935-1.432-1.781
	c-0.028-0.845,0.506-1.608,1.309-1.872c0.133-0.042,3.284-1.06,7.55-1.06c7.367,0,20.183,3.111,23.269,23.951
	c2.484,16.763,7.251,19.111,12.298,21.597c1.564,0.77,3.181,1.565,4.745,2.765c8.329,6.392,8.871,17.681,9.348,27.641
	c0.279,5.806,0.542,11.291,2.237,15.196c0.936,2.157,2.438,4.197,4.178,6.557c2.311,3.139,4.932,6.694,6.843,11.474
	c2.899,7.245,2.055,15.741,0.751,22.732c4.95-10.551,11.176-25.689,10.807-34.421c-0.096-2.279-0.193-4.294-0.278-6.088
	c-0.624-13.133-0.719-15.151,3.775-22.631c6.063-10.093,6.561-18.986,6.96-26.133l0.122-2.034
	c1.172-18.184,15.959-19.597,20.463-19.597c0.949,0,1.509,0.06,1.509,0.06c0.793,0.084,1.452,0.653,1.648,1.425
	c0.196,0.772-0.106,1.584-0.764,2.036c-2.635,1.812-10.649,7.328-11.337,22.15c-0.123,2.7-0.2,5.014-0.267,7.028
	c-0.309,9.203-0.425,12.646-4.061,17.64c-7.092,9.735-5.693,15.328-4.461,20.263l0.171,0.691
	c4.459,18.171-1.341,26.809-5.998,33.751c-1.505,2.24-2.926,4.356-3.815,6.548C98.419,166.391,94.82,175.252,85.5,175.252z
	 M84.847,171.423c0.213,0.015,0.432,0.022,0.653,0.022c5.682,0,8.52-4.34,11.771-12.351c1.038-2.556,2.565-4.832,4.184-7.238
	c4.462-6.647,9.519-14.183,5.46-30.722l-0.167-0.677c-1.29-5.17-3.06-12.253,5.077-23.425c2.95-4.049,3.04-6.709,3.332-15.527
	c0.069-2.027,0.146-4.358,0.272-7.076c0.407-8.771,3.223-15.89,8.393-21.24c-5.148,1.092-11.607,4.66-12.313,15.587l-0.117,2.001
	c-0.4,7.166-0.948,16.979-7.5,27.879c-3.898,6.491-3.849,7.549-3.234,20.489c0.087,1.803,0.181,3.823,0.277,6.11
	C101.5,138.601,88.703,164.07,84.847,171.423z M23.312,31.74c6.297,3.183,14.59,9.43,15.439,20.48
	c1.065,13.848,4.862,24.222,10.156,27.75c0.631,0.42,1.467,0.814,2.438,1.27c5.975,2.813,15.974,7.52,10.642,34.942
	c-4.299,22.102,1.309,28.987,6.731,35.647c1.776,2.18,3.614,4.439,4.95,7.135l0.732,1.492c1.847,3.782,3.53,7.235,6.017,9.223
	c0.219-1.378,0.578-3.016,1.002-4.939c1.568-7.142,3.941-17.927,0.622-26.224c-1.731-4.324-4.091-7.53-6.375-10.628
	c-1.798-2.438-3.498-4.744-4.604-7.297c-1.973-4.545-2.252-10.369-2.547-16.532c-0.459-9.579-0.935-19.485-7.863-24.802
	c-1.266-0.972-2.646-1.65-4.108-2.371c-5.44-2.68-11.607-5.717-14.381-24.455C39.701,35.815,30.697,31.95,23.312,31.74z"/>
<path d="M81.641,133.368c-0.114,0-0.229-0.014-0.344-0.046c-0.674-0.188-1.067-0.891-0.88-1.564
	c6.762-24.181,1.002-39.014,0.942-39.16c-0.261-0.649,0.055-1.39,0.702-1.65c0.653-0.268,1.389,0.051,1.65,0.7
	c0.256,0.629,6.166,15.709-0.851,40.794C82.705,133.003,82.194,133.368,81.641,133.368z"/>
</svg>
