<svg version="1.1" xmlns="http://www.w3.org/2000/svg" xmlns:xlink="http://www.w3.org/1999/xlink" x="0px" y="0px" width="176px"
	 height="176px" viewBox="0 0 176 176" enable-background="new 0 0 176 176" xml:space="preserve">
<g id="end_7">
	<path fill="none" stroke="#A2AB8A" stroke-miterlimit="10" d="M86,169.125c0.015-0.17-0.059-0.264-0.221-0.28
		c-1.305,1.646,3.175,3.375,4.477,2.203c1.127-1.014-0.025-1.187-0.881-1.298c-1.204-0.156-1.75-0.128-2.249-1.411
		c-0.189-0.484-0.694-2.696,0.436-2.416c0.422,0.104,0.877,1.785,1.363,2.149c1.011,0.759,5.729,1.084,4.907-1.182
		c-1.177-0.597-3.143,0.062-4.234-0.69c-1.412-0.974-0.829-3.499-0.332-4.657c1.626-0.624,0.964,2.386,1.922,3.055
		c1.081,0.753,2.805-0.366,3.479-1.268c0.299-0.399,0.822-1.553,0.373-2.022c-0.575-0.6-1.28,0.232-1.912,0.262
		c-1.654,0.076-2.759-2.061-1.689-3.484c1.216-1.619,1.977-0.085,2.874,0.698c1.24,1.081,3.678,0.581,2.506-1.451
		c-0.581-1.006-2.2-1.024-2.766-2.167c-0.761-1.536-0.146-4.072,1.779-3.166c0.054-0.25,0.109-0.612,0.043-0.874"/>
	<path fill="none" stroke="#A2AB8A" stroke-miterlimit="10" d="M74,160.625c1.122,0,3.898,0.339,5.354-0.694
		c0.979-0.695,1.392-1.266,1.987-2.229c0.44-0.712,0.881-1.786,1.868-1.411c0.224,1.933-0.899,4.422-2.673,5.381
		c-1.584,0.855-3.616,0.543-5.366,0.744c-0.701,1.98,2.771,1.947,3.961,1.716c0.916-0.179,3.455-2.455,2.793-0.104
		c-0.625,2.221-3.284,0.805-3.93,2.213c-0.267,0.581,0.078,1.829,0.718,2.021c0.913,0.273,1.093-0.889,2.027-0.745
		c0.387,1.803-2.738,2.76,0.01,3.732"/>
</g>
<g id="weed_3">
	<path fill="none" stroke="#A2AB8A" stroke-miterlimit="10" d="M87.083,146.334c2.167-11.417,5.232-21.182,4.833-32.25
		c-0.338-9.374-4.949-20.339-10.591-27.741c-2.855-3.746-5.02-7.423-7.684-11.202c-2.87-4.07-2.938-8.439-3.473-13.223
		c-0.518-4.628-2.42-9.585-1.02-14.37c1.046-3.576,0.871-4.777,1.758-7.872c0.162-0.563,2.521-4.93,2.535-5.509"/>
	<path fill="none" stroke="#A2AB8A" stroke-miterlimit="10" d="M86.5,157.5c0.761-8.395,5.115-15.67,5.675-24.066
		c0.588-8.817,2.512-17.992,0.251-26.775c-1.811-7.034-4.757-13.207-8.301-19.908c-3.727-7.047-10.616-14.529-11.307-22.333
		c-0.575-6.494-3.758-11.334-0.223-26.25"/>
	<path fill="none" stroke="#A2AB8A" stroke-miterlimit="10" d="M88.834,157.833c-0.175-5.859,3.021-10.667,4.685-16.016
		c1.165-3.742,1.669-9.386,1.648-13.576c-0.022-4.611,0.926-9.245,0.701-13.567c-0.269-5.174-0.9-7.992-1.618-11.674
		c-1.577-8.093-15.386-27.125-18.303-33.912c-0.801-1.864-1.78-8.154-1.78-10.19c0-0.132,0-0.265,0-0.398"/>
	<path fill="none" stroke="#A2AB8A" stroke-miterlimit="10" d="M102.834,94c-0.902-0.558-1.008-2.885-1.455-4.026
		c-0.526-1.345-1.588-2.618-2.212-3.863c-0.431-0.859-1.4-3.05,0.425-2.507c0.969,0.289,1.95,3.222,2.334,4.063
		c0.315,0.691,1.248,3.659,2.148,3.78c1.962,0.263,0.236-3.625-0.17-4.401c-1.215-2.319-3.258-5.1-4.07-7.545"/>
	<path fill="none" stroke="#A2AB8A" stroke-miterlimit="10" d="M91.462,79.5c-1.541-2.514-3.422-5.353-4.722-8
		c-4.348-8.86-3.938-21.033-3.407-23.75c2.947-15.092,18.781-30.431,19.962-31.75"/>
	<path fill="none" stroke="#A2AB8A" stroke-miterlimit="10" d="M92.167,76.333c0.04,0.245-0.038,0.349-0.234,0.311
		c-6.057-8.933-8.84-21.377-5.652-31.791c1.577-5.151,2.516-6.767,4.39-10.521c0.915-1.833,6.534-9.572,7.329-10"/>
</g>
<g id="weed_2">
	<path fill="none" stroke="#A2AB8A" stroke-miterlimit="10" d="M97.5,150.833c0.033-8.932,4.281-15.699,4.667-24.416
		c0.226-5.09-0.732-13.503-0.363-18.417c0.397-5.294,4.21-8.772,6.049-13.39c3.179-7.981,3.173-17.148,5.121-25.624
		c0.971-4.222,0.191-6.343,2.897-9.82c1.147-1.476,6.92-5.903,8.629-6.667"/>
	<path fill="none" stroke="#A2AB8A" stroke-miterlimit="10" d="M97.834,155.167c1.578-7.702,4.474-13.324,5.934-20.834
		c0.779-4.006,0.803-10.353,1.089-14.35c0.306-4.262-2.189-9.354-1.089-13.483c2.028-7.611,7.232-12.097,9.38-22.436
		c1.519-7.313-0.061-22.36,8.563-28.411"/>
	<path fill="none" stroke="#A2AB8A" stroke-miterlimit="10" d="M98.904,155.833c1.66-2.894,7.556-16.807,7.93-19.926
		c1.027-8.574-1.779-23.834-1-29.407c0.854-6.106,4.945-7.06,6.969-13.105c0.46-1.375,3.535-8.906,3.031-11.895"/>
	<path fill="none" stroke="#A2AB8A" stroke-miterlimit="10" d="M77,125c0.397-3.968,1.413-5.753,2.204-9.694
		c0.871-4.342,0.134-9.998-1.33-14.243c-2.101-6.094-0.593-4.314-3.144-10.102c-3.718-8.435-15.407-17.84-18.852-25.67
		C49.923,51.75,52.368,44.09,54,39.676c2.242-6.064,4.383-7.932,7.607-13.323c2.751-4.601,6.882-11.381,5.143-17.103"/>
	<path fill="none" stroke="#A2AB8A" stroke-miterlimit="10" d="M79,126.25c-0.063-1.961,5.72-13.416,0.578-29.75
		c-3.537-11.237-15.43-22.286-17.406-25c-1.753-2.407-6.849-13.233-7.35-16.167C52.833,43.688,56.726,41.452,58.5,37.5
		c1.519-3.383,2.912-5.724,4.5-8.167c1.41-2.168,3.484-8.652,3.917-11.167"/>
	<path fill="none" stroke="#A2AB8A" stroke-miterlimit="10" d="M80.667,128.5c1.67-5.016,2.664-19.814,2.667-22.333
		c0.003-2.346-0.288-4.489-0.649-6.717c-0.659-4.057-2.989-6.996-4.596-10.709C77.3,86.922,63.833,69.572,62.172,66.333"/>
</g>
<g id="weed_1">
	<path fill="none" stroke="#A2AB8A" stroke-miterlimit="10" d="M90.671,89.762c0.575-2.081,1.21-4.148,2.197-6.08
		c2.252-4.409,3.289-7.601,3.743-12.467c0.432-4.63,0.85-9.372,1.151-14.007c0.248-3.81,1.257-7.012,1.85-10.775
		c0.504-3.206,1.894-5.436,4.155-7.808c4.294-4.502,17.214-10.539,25.982-7.151c1.705,0.659,3.416,0.798,5.318,1.278
		c2.313,0.583,4.893,0.584,7.101,1.012c3.615,0.701,7.735,1.014,10.581-1.263"/>
	<path fill="none" stroke="#A2AB8A" stroke-miterlimit="10" d="M83.25,133.25c0.367-4.046,1.51-7.97,2.012-11.884
		c0.547-4.271,0.891-8.752,1.25-13.042c0.261-3.123,0.532-5.973,1.226-8.847"/>
	<path fill="none" stroke="#A2AB8A" stroke-miterlimit="10" d="M84.75,136.5c-0.186-2.703,1.007-4.999,1.389-7.424
		c0.414-2.623,0.594-4.805,0.835-7.4c0.462-4.961,0.393-10.451,1.776-15.176"/>
	<path fill="none" stroke="#A2AB8A" stroke-miterlimit="10" d="M91.75,90.75c-0.038-1.556,3.167-7.153,3.85-8.458
		c1.08-2.065,3.102-8.167,2.65-13.579c-0.314-3.77,1.678-16.031,2.742-19.713c2.133-7.375,10.544-14.518,13.883-15.25
		c3.49-0.765,9.25-1.446,13.092-0.887c1.85,0.269,5.849,1.81,7.659,2.154c1.449,0.275,4.745,0.749,9.72,0.426"/>
	<path fill="none" stroke="#A2AB8A" stroke-miterlimit="10" d="M73.5,157.333c-1.886-13.287-10.335-19.05-10.333-32.666
		c0-3.77,0.442-13.989,0.983-17.67c1.225-8.33-0.467-17.381-1.816-19.948c-2.5-4.757-7.667-4.757-13.5-10.31
		C43.917,72.06,42.924,70.316,42,63.333C40.5,52,39.74,49.1,37.167,41.833c-2.833-8-15.134-10.532-16.5-10.351"/>
	<path fill="none" stroke="#A2AB8A" stroke-miterlimit="10" d="M27.833,31.474c3.377,2.213,9.092,5.394,11.218,10.413
		c2.231,5.267,4.47,22.963,5.286,25.757c1.884,6.456,7.977,8.976,12.246,12.451c4.249,3.458,8.338,3.876,8.791,9.405
		c0.251,3.068,1.459,11.081,1.459,14.167c0,3.129-0.476,13.731-0.296,16.286c0.216,3.078,2.076,6.305,3.375,9.121
		c1.066,2.313,2.314,4.484,2.909,7.039c0.663,2.85,3.126,17.877,3.126,20.477"/>
	<path fill="none" stroke="#A2AB8A" stroke-miterlimit="10" d="M27.667,35.167c3.938,0.169,7.954,5.458,8.513,7.185
		c1.791,5.531,1.907,11.482,3.514,17.093c1.413,4.935,1.332,9.809,3.936,14.128c0.967,1.603,2.555,2.576,3.995,3.854
		c1.518,1.346,2.978,3.008,4.496,4.314c1.487,1.28,3.3,2.603,5.046,3.434c1.722,0.819,3.898,1.232,4.763,3.334
		c0.813,1.976,0.708,5.013,0.903,7.064c0.251,2.654,0.001,5.463,0.001,8.131c0,5.345-1.167,10.338-1.167,15.672
		c0,5.274-1.393,10.885-0.342,16.175c0.872,4.392,3.254,7.8,5.936,11.229c2.367,3.026,5.138,6.987,4.907,11.055"/>
	<path fill="none" stroke="#A2AB8A" stroke-miterlimit="10" d="M76.833,155.833c0,0.056,0,0.111,0,0.167"/>
	<path fill="none" stroke="#A2AB8A" stroke-miterlimit="10" d="M45.5,64.667c-0.415,5.953,5.698,10.127,10.143,12.75
		c1.238,0.73,2.157,1.927,3.394,2.591c0.856,0.46,1.913,0.58,2.762,1.064c2.545,1.452,4.191,4.117,5.026,6.69
		c1.895,5.841,2.049,12.34,3.185,18.416c1.189,6.358,1.09,12.828,2.324,19.129c1.063,5.426,2.899,10.67,4.953,15.639
		c1.925,4.656,1.547,9.829,1.547,14.889"/>
	<path fill="none" stroke="#A2AB8A" stroke-miterlimit="10" d="M81.5,152c-0.773-1.92,0.043-4.979-0.149-7.124
		c-0.201-2.247-1.022-4.382-1.763-6.586c-0.724-2.152-1.362-4.506-2.014-6.53c-0.711-2.206-2.001-4.365-2.74-6.593"/>
</g>
<g id="contur">
	<path d="M71.821,159.861c-0.121,0-0.24,0-0.359-0.002c-0.702-0.016-1.257-0.594-1.244-1.297c0.015-0.699,0.602-1.187,1.295-1.24
		c3.263,0.066,5.797-0.92,7.665-3.021c4.94-5.555,3.44-16.837,3.426-16.951c-0.097-0.693,0.388-1.332,1.082-1.431
		c0.687-0.094,1.337,0.388,1.432,1.084c0.071,0.509,1.667,12.563-4.043,18.985C78.786,158.561,75.675,159.861,71.821,159.861z"/>
	<path d="M99.723,159.543c-0.324,0-0.648-0.124-0.896-0.372c-7.136-7.136-2.568-21.167-2.37-21.762
		c0.223-0.662,0.93-1.033,1.605-0.804c0.664,0.224,1.024,0.939,0.804,1.605c-0.046,0.129-4.271,13.141,1.755,19.165
		c0.495,0.495,0.495,1.298,0,1.794C100.373,159.419,100.047,159.543,99.723,159.543z"/>
	<path d="M85.764,142.729c-0.092,0-0.184-0.01-0.277-0.029c-0.685-0.153-1.114-0.833-0.961-1.518
		c5.809-25.914,3.151-36.488-0.586-44.056c-1.038-2.101-2.831-4.683-4.906-7.67c-4.88-7.026-10.954-15.771-12.762-25.867
		c-4.517-25.22,9.442-35.324,10.04-35.741c0.479-0.336,1.127-0.3,1.569,0.089c0.438,0.389,0.554,1.029,0.278,1.547
		c-10.242,19.254,0.132,42.95,12.126,57.393c9.507,11.447,9.14,22.604,9.119,23.07c-0.031,0.697-0.641,1.256-1.319,1.212
		c-0.698-0.028-1.244-0.619-1.217-1.318c0.004-0.106,0.313-10.687-8.537-21.343c-11.147-13.423-20.904-34.604-15.19-53.475
		c-3.359,5.021-6.897,14.011-4.371,28.118c1.711,9.552,7.609,18.045,12.347,24.869c2.135,3.071,3.975,5.722,5.098,7.993
		c3.942,7.985,6.77,19.054,0.787,45.733C86.869,142.327,86.346,142.729,85.764,142.729z"/>
	<path d="M75.136,125.54c-0.172,0-0.348-0.038-0.517-0.112c-0.639-0.285-0.927-1.035-0.642-1.676
		c0.071-0.158,6.924-16.074-5.157-32.783c-0.41-0.568-0.282-1.361,0.285-1.771c0.566-0.416,1.361-0.284,1.772,0.283
		c12.967,17.938,5.73,34.608,5.416,35.311C76.083,125.259,75.62,125.54,75.136,125.54z"/>
	<path d="M61.811,79.017c-0.362,0-0.723-0.155-0.973-0.455c-0.889-1.061-21.627-26.201-9.595-44.039
		c1.485-2.201,3.056-4.041,4.576-5.822c5.102-5.979,9.509-11.142,6.65-26.87c-0.107-0.586,0.208-1.167,0.757-1.397
		c0.545-0.231,1.185-0.048,1.528,0.439c0.464,0.658,11.221,16.388-2.71,38.836c-9.484,15.281,2.974,27.867,8.961,33.916
		c0.881,0.89,1.619,1.637,2.129,2.229c0.458,0.53,0.398,1.331-0.131,1.79c-0.528,0.456-1.329,0.401-1.79-0.131
		c-0.482-0.558-1.18-1.261-2.011-2.101c-5.941-6.003-19.854-20.059-9.314-37.04c7.163-11.542,7.338-21.222,6.02-27.634
		c0.003,10.046-3.986,14.723-8.157,19.612c-1.473,1.727-2.998,3.511-4.402,5.594C42.384,52.198,62.58,76.69,62.785,76.935
		c0.45,0.538,0.38,1.337-0.158,1.787C62.387,78.92,62.098,79.017,61.811,79.017z"/>
	<path d="M94.012,94.188c-0.246,0-0.494-0.07-0.713-0.221c-0.58-0.395-0.729-1.183-0.336-1.763
		c0.064-0.099,6.571-9.811,5.969-21.587c-0.473-9.197,3.252-25.458,13.01-32.819c5.605-4.226,12.353-5.034,20.078-2.393
		c5.951,2.032,11.824,0.393,16.041-1.611c-4.353,0.537-9.916,0.444-14.814-2.088c-4.577-2.37-13.532-2.895-21.805,0.673
		c-4.629,1.999-10.621,6.039-12.879,13.934c-1.494,5.237-3.758,13.15-3.438,23.567c0.351,11.603-5.421,16.798-5.669,17.014
		c-0.525,0.459-1.329,0.411-1.789-0.118c-0.461-0.527-0.409-1.329,0.118-1.791c0.045-0.042,5.112-4.697,4.801-15.029
		c-0.326-10.811,2.001-18.953,3.54-24.34c2.527-8.852,9.18-13.352,14.313-15.568c7.938-3.426,18.021-3.675,23.976-0.599
		c8.604,4.454,20.121,0.296,20.233,0.254c0.578-0.212,1.223,0.018,1.533,0.548c0.312,0.528,0.199,1.204-0.267,1.605
		c-0.488,0.421-12.122,10.254-24.716,5.949c-6.869-2.351-12.834-1.669-17.725,2.018c-8.918,6.725-12.437,22.273-12.008,30.663
		c0.648,12.654-6.115,22.724-6.404,23.146C94.814,93.994,94.416,94.188,94.012,94.188z"/>
	<path d="M100.52,99.741c-0.029,0-0.061-0.001-0.09-0.003c-0.699-0.049-1.228-0.654-1.18-1.354c0.004-0.063,0.371-6.166-3.188-9.086
		c-0.541-0.443-0.619-1.244-0.176-1.787c0.445-0.543,1.248-0.618,1.786-0.176c4.581,3.758,4.13,10.922,4.109,11.225
		C101.734,99.23,101.178,99.741,100.52,99.741z"/>
	<path d="M107.496,87.843c-0.387,0-0.771-0.177-1.02-0.512c-2.638-3.552-6.074-7.697-7.029-8.201
		c-0.619-0.327-0.857-1.096-0.529-1.715c0.329-0.621,1.1-0.855,1.714-0.528c1.906,1.007,6.515,7.09,7.884,8.93
		c0.418,0.563,0.299,1.358-0.264,1.776C108.025,87.761,107.762,87.843,107.496,87.843z"/>
	<path d="M90.998,83.56c-0.342,0-0.684-0.139-0.934-0.411c-14.759-16.1-12.23-36.479-5.582-49.041
		c5.771-10.903,26.433-27.012,27.311-27.692c0.476-0.372,1.149-0.357,1.606,0.042c0.457,0.394,0.574,1.056,0.275,1.583
		c-2.221,3.947-4.859,6.801-7.658,9.822c-4.564,4.933-9.738,10.523-14.799,22.719c-7.851,18.919,3.301,31.531,3.414,31.657
		c0.473,0.519,0.432,1.321-0.086,1.792c-0.516,0.47-1.318,0.435-1.793-0.086c-0.123-0.138-12.34-13.946-3.88-34.333
		c5.233-12.616,10.573-18.382,15.28-23.471c0.057-0.059,0.111-0.12,0.168-0.18c-6.436,5.669-14.479,13.442-17.598,19.337
		c-1.389,2.625-13.048,26.221,5.208,46.137c0.473,0.517,0.438,1.32-0.078,1.793C91.611,83.449,91.307,83.56,90.998,83.56z"/>
	<path d="M85.5,175.252c-8.114,0-11.371-6.672-14.521-13.124l-0.721-1.474c-1.147-2.313-2.772-4.309-4.491-6.422
		c-5.698-6.996-12.157-14.926-7.518-38.778c4.768-24.511-2.916-28.127-8.526-30.768c-1.06-0.499-2.061-0.97-2.927-1.547
		c-6.446-4.297-10.651-15.173-11.839-30.625c-1.151-14.963-19.54-19.829-19.726-19.876c-0.821-0.209-1.403-0.935-1.432-1.781
		c-0.028-0.845,0.506-1.608,1.309-1.872c0.133-0.042,3.284-1.06,7.55-1.06c7.367,0,20.183,3.111,23.269,23.951
		c2.484,16.763,7.251,19.111,12.298,21.597c1.564,0.77,3.181,1.565,4.745,2.765c8.329,6.392,8.871,17.681,9.348,27.641
		c0.279,5.807,0.542,11.291,2.237,15.196c0.936,2.157,2.438,4.196,4.178,6.557c2.311,3.14,4.932,6.694,6.843,11.474
		c2.899,7.246,2.055,15.742,0.751,22.732c4.95-10.551,11.176-25.689,10.807-34.421c-0.096-2.278-0.192-4.294-0.278-6.088
		c-0.623-13.134-0.719-15.151,3.775-22.632c6.063-10.092,6.561-18.985,6.96-26.132l0.122-2.034
		c1.172-18.184,15.959-19.597,20.463-19.597c0.949,0,1.51,0.06,1.51,0.06c0.793,0.084,1.451,0.653,1.647,1.425
		s-0.106,1.584-0.765,2.036c-2.635,1.812-10.648,7.328-11.336,22.15c-0.123,2.7-0.2,5.014-0.268,7.028
		c-0.309,9.203-0.425,12.646-4.061,17.641c-7.092,9.734-5.693,15.328-4.461,20.263l0.17,0.69c4.459,18.172-1.34,26.81-5.997,33.752
		c-1.505,2.24-2.927,4.355-3.815,6.547C98.419,166.391,94.82,175.252,85.5,175.252z M84.847,171.423
		c0.213,0.015,0.432,0.022,0.653,0.022c5.682,0,8.52-4.34,11.771-12.352c1.037-2.556,2.564-4.832,4.184-7.238
		c4.462-6.646,9.52-14.183,5.46-30.722l-0.167-0.677c-1.29-5.17-3.061-12.253,5.077-23.426c2.95-4.049,3.04-6.709,3.332-15.526
		c0.069-2.027,0.146-4.358,0.272-7.076c0.406-8.771,3.223-15.89,8.393-21.24c-5.148,1.092-11.607,4.66-12.313,15.587l-0.116,2.001
		c-0.4,7.166-0.949,16.979-7.5,27.879c-3.898,6.49-3.85,7.549-3.234,20.488c0.087,1.803,0.181,3.823,0.277,6.11
		C101.5,138.602,88.703,164.07,84.847,171.423z M23.312,31.74c6.297,3.183,14.59,9.43,15.439,20.48
		c1.065,13.848,4.862,24.222,10.156,27.75c0.631,0.42,1.467,0.814,2.438,1.27c5.975,2.813,15.974,7.52,10.642,34.942
		c-4.299,22.103,1.309,28.987,6.731,35.647c1.776,2.18,3.614,4.438,4.95,7.135l0.732,1.492c1.847,3.782,3.53,7.235,6.017,9.224
		c0.219-1.379,0.578-3.017,1.002-4.939c1.568-7.143,3.941-17.928,0.622-26.225c-1.731-4.324-4.091-7.529-6.375-10.627
		c-1.798-2.438-3.498-4.744-4.604-7.298c-1.973-4.545-2.252-10.368-2.547-16.532c-0.459-9.578-0.935-19.484-7.863-24.802
		c-1.266-0.972-2.646-1.65-4.108-2.371c-5.44-2.68-11.607-5.717-14.381-24.455C39.701,35.815,30.697,31.95,23.312,31.74z"/>
	<path d="M81.641,133.368c-0.114,0-0.229-0.015-0.344-0.046c-0.674-0.188-1.067-0.891-0.88-1.564
		c6.762-24.181,1.002-39.014,0.942-39.16c-0.261-0.648,0.055-1.39,0.702-1.65c0.653-0.268,1.389,0.052,1.65,0.701
		c0.256,0.629,6.166,15.709-0.851,40.793C82.705,133.003,82.194,133.368,81.641,133.368z"/>
</g>
</svg>
