<svg version="1.1" id="pot-plant" class="image-on" xmlns="http://www.w3.org/2000/svg" x="0px" y="0px" width="176px"
	 height="176px" viewBox="0 0 176 176" enable-background="new 0 0 176 176" xml:space="preserve">
<g id="Layer_1">
	<g>
		<path d="M88.628,54.804c-32.559,0-67.162-5.925-67.162-16.903c0-10.98,34.603-16.904,67.162-16.904
			c32.558,0,67.161,5.924,67.161,16.904C155.789,48.879,121.186,54.804,88.628,54.804z M88.628,24.604
			c-39.377,0-63.556,7.744-63.556,13.297c0,5.553,24.178,13.297,63.556,13.297c39.377,0,63.556-7.744,63.556-13.297
			C152.184,32.348,128.005,24.604,88.628,24.604z"/>
		<path d="M123.376,52.325c-0.997,0-1.803-0.807-1.803-1.803c0-1.861-11.209-6.224-32.945-6.224
			c-21.737,0-32.945,4.364-32.945,6.224c0,0.996-0.807,1.803-1.803,1.803c-0.996,0-1.803-0.807-1.803-1.803
			c0-7.775,23.909-9.83,36.551-9.83c12.643,0,36.552,2.055,36.552,9.83C125.18,51.518,124.373,52.325,123.376,52.325z"/>
		<path d="M88.628,175.184c-14.398,0-41.535-2.283-41.915-10.89L30.511,74.507c-0.178-0.98,0.474-1.918,1.453-2.094
			c0.988-0.186,1.918,0.474,2.094,1.453l16.227,89.924c0.019,0.106,0.029,0.213,0.029,0.321c0,2.534,13.524,7.465,38.314,7.465
			s38.313-4.931,38.313-7.465c0-0.098,0.007-0.195,0.022-0.289l14.425-89.023c0.16-0.982,1.066-1.65,2.068-1.492
			c0.981,0.159,1.649,1.085,1.489,2.069l-14.403,88.9C130.2,172.897,103.034,175.184,88.628,175.184z"/>
		<path d="M88.628,165.267c-0.498,0-0.901-0.403-0.901-0.901c0-0.499,0.403-0.902,0.901-0.902c2.123,0,4.224-0.038,6.278-0.112
			c0.474-0.02,0.915,0.372,0.933,0.87c0.019,0.497-0.372,0.915-0.87,0.933C92.893,165.228,90.771,165.267,88.628,165.267z"/>
		<path d="M108.672,164.383c-0.449,0-0.836-0.334-0.892-0.791c-0.063-0.492,0.289-0.943,0.784-1.004
			c13.544-1.666,20.63-5.029,20.63-7.49c0-0.5,0.403-0.902,0.901-0.902c0.497,0,0.9,0.402,0.9,0.902
			c0,6.077-17.002,8.639-22.214,9.279C108.746,164.381,108.708,164.383,108.672,164.383z"/>
		<path d="M88.628,158.181c-0.498,0-0.901-0.403-0.901-0.901c0-0.497,0.403-0.9,0.901-0.9c2.182,0,4.338-0.041,6.45-0.116
			c0.466-0.023,0.915,0.37,0.933,0.868c0.018,0.497-0.371,0.916-0.87,0.933C93.009,158.14,90.83,158.181,88.628,158.181z"/>
		<path d="M102.28,157.657c-0.464,0-0.86-0.358-0.896-0.831c-0.038-0.495,0.331-0.931,0.828-0.969
			c1.553-0.122,3.068-0.264,4.539-0.424c15.475-1.685,23.57-5.136,23.57-7.677c0-0.497,0.403-0.9,0.902-0.9
			c0.498,0,0.901,0.403,0.901,0.9c0,6.244-19.271,8.828-25.177,9.468c-1.492,0.167-3.025,0.309-4.596,0.429
			C102.329,157.657,102.305,157.657,102.28,157.657z"/>
		<path d="M104.084,146.839c-0.465,0-0.861-0.358-0.897-0.83c-0.038-0.496,0.332-0.932,0.827-0.969
			c1.554-0.122,3.069-0.265,4.542-0.425c15.475-1.685,23.569-5.135,23.569-7.676c0-0.498,0.403-0.9,0.901-0.9
			c0.497,0,0.9,0.402,0.9,0.9c0,6.243-19.271,8.827-25.177,9.469c-1.491,0.165-3.024,0.306-4.594,0.428
			C104.131,146.839,104.108,146.839,104.084,146.839z"/>
		<path d="M88.628,105.174c-0.498,0-0.901-0.403-0.901-0.901c0-0.499,0.403-0.901,0.901-0.901c2.627,0,5.292-0.049,7.924-0.143
			c2.973-0.11,5.922-0.275,8.769-0.495c0.45-0.023,0.93,0.331,0.967,0.829c0.04,0.495-0.333,0.93-0.828,0.968
			c-2.871,0.223-5.845,0.391-8.84,0.5C93.963,105.126,91.276,105.174,88.628,105.174z"/>
		<path d="M114.095,103.644c-0.447,0-0.834-0.332-0.893-0.788c-0.063-0.493,0.286-0.945,0.78-1.008
			c17.982-2.295,26.031-6.307,26.031-9.263c0-0.498,0.402-0.901,0.901-0.901c0.498,0,0.901,0.403,0.901,0.901
			c0,6.793-19.307,9.993-27.606,11.054C114.172,103.641,114.134,103.644,114.095,103.644z"/>
		<path d="M94.037,114.188c-0.499,0-0.902-0.403-0.902-0.9c0-0.5,0.403-0.903,0.902-0.903c2.627,0,5.291-0.048,7.925-0.141
			c0.468,0.001,0.914,0.371,0.933,0.868c0.018,0.497-0.372,0.917-0.87,0.934C99.371,114.141,96.686,114.188,94.037,114.188z"/>
		<path d="M110.457,112.883c-0.452,0-0.841-0.339-0.896-0.798c-0.056-0.495,0.297-0.941,0.792-0.999
			c2.234-0.261,4.429-0.563,6.519-0.898c15.749-2.531,21.337-6.208,21.337-8.588c0-0.497,0.403-0.9,0.902-0.9
			c0.498,0,0.901,0.403,0.901,0.9c0,5.825-14.32,8.997-22.856,10.37c-2.115,0.338-4.334,0.644-6.597,0.908
			C110.527,112.881,110.491,112.883,110.457,112.883z"/>
		<path d="M88.628,84.519c-31.227,0-62.837-5.438-63.103-15.835l-4.043-30.545c-0.131-0.988,0.564-1.894,1.55-2.024
			c0.986-0.123,1.894,0.563,2.024,1.551l4.057,30.65c0.011,0.078,0.016,0.158,0.016,0.237c0,5.162,22.636,12.361,59.499,12.361
			c36.862,0,59.499-7.199,59.499-12.361c0-0.079,0.005-0.158,0.017-0.237l4.056-30.65c0.131-0.987,1.056-1.684,2.023-1.551
			c0.987,0.131,1.681,1.037,1.552,2.024l-4.043,30.545C151.466,79.08,119.854,84.519,88.628,84.519z"/>
		<path d="M88.628,76.405c-0.498,0-0.901-0.403-0.901-0.901s0.403-0.901,0.901-0.901c8.237,0,16.233-0.373,23.772-1.11
			c0.491-0.037,0.937,0.313,0.986,0.81c0.049,0.495-0.314,0.936-0.81,0.984C104.979,76.028,96.923,76.405,88.628,76.405z"/>
		<path d="M131.449,72.376c-0.416,0-0.786-0.284-0.879-0.704c-0.11-0.485,0.194-0.967,0.68-1.078
			c17.063-3.85,18.905-7.598,18.905-9.03c0-0.499,0.402-0.901,0.899-0.901c0.498,0,0.901,0.403,0.901,0.901
			c0,4.175-6.643,7.705-20.309,10.788C131.581,72.369,131.514,72.376,131.449,72.376z"/>
		<path d="M112.487,68.079c-0.457,0-0.851-0.349-0.896-0.814c-0.048-0.496,0.315-0.937,0.81-0.986
			c3.268-0.32,6.442-0.71,9.442-1.158c3.371-0.505,6.535-1.09,9.407-1.739c13.216-2.981,19.13-7.023,19.13-9.706
			c0-0.499,0.403-0.901,0.901-0.901s0.9,0.403,0.9,0.901c0,6.339-15.719,10.377-20.534,11.466c-2.916,0.657-6.125,1.25-9.538,1.762
			c-3.03,0.453-6.236,0.847-9.532,1.169C112.546,68.076,112.518,68.079,112.487,68.079z"/>
	</g>
</g>
<g id="Layer_2">
	<g>
		<path fill="#F6F8F0" stroke="#A2AB8A" stroke-linecap="round" stroke-miterlimit="10" d="M92.177,51.552l3.375-0.192
			c-0.197-2.181-0.979-4.105-1.206-6.041c-1.382,2.142-3.451,3.876-4.634,6.232H92.177"/>
		<path display="none" fill="#F6F8F0" stroke="#A2AB8A" stroke-linecap="round" stroke-miterlimit="10" d="M93.913,51.385
			c-1.604,0-2.951,0.378-4.375,0.5L93.913,51.385z"/>
	</g>
	<path fill="#F6F8F0" stroke="#A2AB8A" stroke-linecap="round" stroke-miterlimit="10" d="M92.625,51.438
		c-0.055-0.429,0.526-1.289,0.688-1.709c0.158-0.414,0.32-0.811,0.465-1.214c0.313-0.875,0.419-1.684,0.598-2.576"/>
</g>
<g id="Layer_3">
	<g>
		<path fill="#F6F8F0" stroke="#A2AB8A" stroke-linecap="round" stroke-miterlimit="10" d="M90.703,51.438
			c-1.276-1.541-1.656-5.148-1.656-7.081c0-2.253,0.116-4.696-0.071-6.857c1.45,1.594,2.848,4.036,3.862,6.072
			c1.049,2.107,2.975,5.542,2.714,7.981"/>
		<path fill="#F6F8F0" stroke="#A2AB8A" stroke-linecap="round" stroke-miterlimit="10" d="M91.984,51.438
			c-0.03-2.211-0.715-5.547-1.281-7.67C90.349,42.44,90.415,40.07,89.422,39"/>
		<path fill="#F6F8F0" stroke="#A2AB8A" stroke-linecap="round" stroke-miterlimit="10" d="M94.049,50.874
			c0.019,0.249-0.006-0.887-0.064-1.311c-0.095-0.675-0.176-1.789-0.388-2.438c-0.226-0.687-0.447-2.125-0.759-3.554"/>
		<path fill="#F6F8F0" stroke="#A2AB8A" stroke-linecap="round" stroke-miterlimit="10" d="M95.552,51.552
			c-0.813,0-4.091-0.115-4.849-0.115"/>
	</g>
</g>
<g id="Layer_4">
	<path fill="#F6F8F0" stroke="#A2AB8A" stroke-linecap="round" stroke-miterlimit="10" d="M92.875,51.201
		c0.392-2.125,0.479-4.04,0.382-6.143c-0.099-2.125-0.513-4.13-0.744-6.229c-0.057-0.509-1.369-5.505-1.65-7.963
		c-0.091-0.79-0.063-2.029-0.259-2.791c-1.917,4.464-2.038,8.152-2.229,11.468c-0.219,3.814-0.666,8.082-0.125,11.907"/>
	<path fill="none" stroke="#A2AB8A" stroke-linecap="round" stroke-miterlimit="10" d="M92.438,38.445
		c-0.017,2.094-0.718,4.756-0.81,6.946c-0.088,2.088-0.128,3.636-0.128,5.748"/>
	<path fill="none" stroke="#A2AB8A" stroke-linecap="round" stroke-miterlimit="10" d="M90,51.139c0-3.976,0.144-7.536,0.5-11.402
		c0.292-3.172,0.104-7.754,0.104-11.035"/>
	<path fill="none" stroke="#A2AB8A" stroke-linecap="round" stroke-miterlimit="10" d="M88.375,51.389
		c1.272,0.35,2.986,0.063,4.313,0.063"/>
</g>
<g id="Layer_6">
	<path fill="#F6F8F0" stroke="#A2AB8A" stroke-linecap="round" stroke-miterlimit="10" d="M92.5,46.975
		c0.383-2.184-2.75-18.163,4.321-21.821c0.267,1.93-0.569,3.912-0.752,5.843c-0.233,2.469-0.225,5.145-0.514,7.53
		c-0.557,4.596-1.943,8.314-3.142,12.786"/>
	<path fill="none" stroke="#A2AB8A" stroke-linecap="round" stroke-miterlimit="10" d="M96.25,25.625
		c-0.468,2.195-1.421,4.063-2,6.147c-0.774,2.786-0.312,5.504-0.813,8.314c-0.398,2.233-0.937,4.58-0.938,6.889
		c0,1.256,0.508,3.039-0.086,4.338"/>
</g>
<g id="Layer_5">
	<path fill="#F6F8F0" stroke="#A2AB8A" stroke-linecap="round" stroke-miterlimit="10" d="M93.24,51.344
		c-0.059-0.772,0.02-1.694,0.125-2.313c0.124-0.721,0.368-1.268,0.431-1.998c0.141-1.639,0.444-3.24,0.444-4.937
		c0-3.299-0.135-6.042-1.063-9.152c-0.848-2.842-2.014-5.497-3.243-8.139c-1.069-2.295-1.12-4.163-1.773-7.079
		c-0.797,0.839-1.575,2.366-1.957,3.268c-0.626,1.48-0.939,3.17-1.089,4.713c-0.316,3.26-0.214,7.247,0.559,10.352
		c0.639,2.568,1.753,4.827,2.261,7.388c0.513,2.59,0.305,5.353,0.305,8.021"/>
	<path fill="none" stroke="#A2AB8A" stroke-linecap="round" stroke-miterlimit="10" d="M91.178,51.469
		c0-2.681,0.024-7.729-0.625-10.313c-0.65-2.586-3.109-9.875-3.188-13.816c-0.032-1.607-0.183-6.098,0.5-8.122"/>
	<path fill="none" stroke="#A2AB8A" stroke-linecap="round" stroke-miterlimit="10" d="M85.022,26.901
		c0.349,3.84,0.684,6.378,1.53,8.052c0.899,1.779,1.971,3.765,2.375,5.674c0.802,3.788,0.938,6.826,0.938,10.468"/>
	<path fill="none" stroke="#A2AB8A" stroke-linecap="round" stroke-miterlimit="10" d="M89.928,25.282
		c-0.039,0.84,0.58,4.846,0.69,5.825c0.233,2.068,0.459,4.162,0.84,6.161c0.4,2.096,0.881,4.216,1.282,6.307
		c0.38,1.975,0.563,3.883,0.563,5.958"/>
	<path fill="none" stroke="#A2AB8A" stroke-linecap="round" stroke-miterlimit="10" d="M88.24,50.483
		c1.686,0.155,2.531,0.215,5.063,0.088"/>
</g>
<g id="Layer_8">
	<path fill="#F6F8F0" stroke="#A2AB8A" stroke-linecap="round" stroke-miterlimit="10" d="M91.688,51.438
		c0-4.014-1.766-7.816-1.267-11.878c0.129-1.051,0.537-2.051,0.736-3.094c0.208-1.083,0.355-2.161,0.624-3.231
		c0.414-1.648,0.939-3.273,1.503-4.87c0.886-2.513,2.897-4.434,4.448-6.61c0.631-0.885,0.939-1.852,1.487-2.77
		c0.442-0.743,1.405-2.71,1.405-2.71s0.291,4.67-0.121,6.962c-0.205,1.14-0.582,2.151-1.099,3.179
		c-0.486,0.968-0.849,1.806-1.249,2.853c-0.4,1.045-0.912,2.065-1.152,3.15c-0.286,1.289-0.321,2.673-0.257,4.018
		c0.058,1.215,0.167,2.492,0.004,3.702c-0.176,1.305-0.711,2.607-1.091,3.87c-0.429,1.421-1.266,2.669-1.723,4.102
		C93.56,49.296,92.325,50.376,91.688,51.438"/>
	<path fill="none" stroke="#A2AB8A" stroke-linecap="round" stroke-miterlimit="10" d="M92.584,49.667
		c0.132-1.297,0.962-2.897,1.458-4.111c0.479-1.172,0.895-2.461,0.958-3.727c0.146-2.904-0.059-5.79,0.204-8.656
		c0.275-2.998,1.716-5.477,2.59-8.322c0.408-1.327,0.7-2.585,1.331-3.809c0.444-0.861,0.541-2.138,1.042-2.875"/>
	<path fill="none" stroke="#A2AB8A" stroke-linecap="round" stroke-miterlimit="10" d="M91.584,48.167
		c0.01-2.244,0.903-4.271,1.147-6.421c0.226-1.98-0.06-4.045,0.037-6.037c0.101-2.071,0.027-4.016,0.607-5.991
		c0.229-0.782,0.724-1.467,1.004-2.19c0.224-0.577,1.004-1.847,1.646-3.575"/>
</g>
<g id="Layer_7--">
	<path fill="#F6F8F0" stroke="#A2AB8A" stroke-linecap="round" stroke-miterlimit="10" d="M92.212,51.578
		c-0.061-1.048,0.021-2.3,0.13-3.139c0.128-0.979,0.381-1.721,0.445-2.712c0.146-2.224,0.459-4.398,0.459-6.701
		c0-4.479-0.139-8.202-1.099-12.422c-0.876-3.858-2.081-7.461-3.353-11.047c-1.105-3.116-1.158-5.65-1.833-9.608
		c-0.824,1.139-1.628,3.211-2.023,4.435c-0.647,2.008-0.971,4.302-1.125,6.397c-0.327,4.424-0.222,9.835,0.578,14.051
		c0.66,3.486,1.812,6.552,2.337,10.028c0.53,3.516,0.315,7.266,0.315,10.888"/>
	<path fill="none" stroke="#A2AB8A" stroke-linecap="round" stroke-miterlimit="10" d="M90.08,51.748
		c0-3.638,0.025-10.491-0.646-13.997c-0.673-3.51-3.214-13.404-3.295-18.753c-0.033-2.181-0.189-8.277,0.517-11.024"/>
	<path fill="none" stroke="#A2AB8A" stroke-linecap="round" stroke-miterlimit="10" d="M83.717,18.401
		c0.361,5.212,0.707,8.656,1.582,10.928c0.93,2.415,2.038,5.11,2.456,7.702c0.829,5.141,0.969,9.265,0.969,14.208"/>
	<path fill="none" stroke="#A2AB8A" stroke-linecap="round" stroke-miterlimit="10" d="M88.795,15.557
		c-0.04,1.14,0.593,7.223,0.707,8.552c0.241,2.807,0.475,5.649,0.868,8.362c0.414,2.844,0.91,5.723,1.326,8.562
		c0.392,2.68,0.581,5.27,0.58,8.086"/>
	<path fill="none" stroke="#A2AB8A" stroke-linecap="round" stroke-miterlimit="10" d="M88.24,50.483
		c1.686,0.155,2.531,0.215,5.063,0.088"/>
</g>
<g id="Layer_12">
	<path fill="#F6F8F0" stroke="#A2AB8A" stroke-linecap="round" stroke-miterlimit="10" d="M92.212,51.578
		c-0.061-1.048,0.021-2.3,0.13-3.139c0.128-0.979,0.381-1.721,0.445-2.712c0.146-2.224,0.459-4.398,0.459-6.701
		c0-4.479-0.139-8.202-1.099-12.422c-0.876-3.858-2.081-7.461-3.353-11.047c-1.105-3.116-1.158-5.65-1.833-9.608
		c-0.824,1.139-1.628,3.211-2.023,4.435c-0.647,2.008-0.971,4.302-1.125,6.397c-0.327,4.424-0.222,9.835,0.578,14.051
		c0.66,3.486,1.812,6.552,2.337,10.028c0.53,3.516,0.315,7.266,0.315,10.888"/>
	<path fill="none" stroke="#A2AB8A" stroke-linecap="round" stroke-miterlimit="10" d="M90.08,51.748
		c0-3.638,0.025-10.491-0.646-13.997c-0.673-3.51-3.214-13.404-3.295-18.753c-0.033-2.181-0.189-8.277,0.517-11.024"/>
	<path fill="none" stroke="#A2AB8A" stroke-linecap="round" stroke-miterlimit="10" d="M83.717,18.401
		c0.361,5.212,0.707,8.656,1.582,10.928c0.93,2.415,2.038,5.11,2.456,7.702c0.829,5.141,0.969,9.265,0.969,14.208"/>
	<path fill="none" stroke="#A2AB8A" stroke-linecap="round" stroke-miterlimit="10" d="M88.795,15.557
		c-0.04,1.14,0.593,7.223,0.707,8.552c0.241,2.807,0.475,5.649,0.868,8.362c0.414,2.844,0.91,5.723,1.326,8.562
		c0.392,2.68,0.581,5.27,0.58,8.086"/>
	<path fill="none" stroke="#A2AB8A" stroke-linecap="round" stroke-miterlimit="10" d="M88.24,50.483
		c1.686,0.155,2.531,0.215,5.063,0.088"/>
</g>
<g id="Layer_10--">
	<path fill="#F6F8F0" stroke="#A2AB8A" stroke-linecap="round" stroke-miterlimit="10" d="M98.334,46.333
		c1.333-2.417,4.277-8.766,5.137-10.219c1.124-1.898,4.216-7.102,4.779-8.198c4.484-8.711,8.171-11.28,9.007-11.976
		c0.546-0.455,3.821-3.164,4.185-3.701c-0.719-0.013-8.646,1.923-10.196,2.629c-3.1,1.413-6.654,4.683-9.213,7.126
		c-7.772,7.422-8.294,18.155-8.737,20.484c-0.356,1.867-1.362,7.172-1.118,9.073c0,0,2.063,0.089,3.358,0.076
		c0.38-0.004,1.016-1.729,1.325-2.42C97.301,48.225,97.813,47.276,98.334,46.333z"/>
	<path fill="none" stroke="#A2AB8A" stroke-linecap="round" stroke-miterlimit="10" d="M94.375,51.094
		c0.292-0.261,3.458-10.898,7.125-16.496s7.417-13.046,9.75-15.379s9.486-6.875,9.486-6.875"/>
	<path fill="none" stroke="#A2AB8A" stroke-linecap="round" stroke-miterlimit="10" d="M116.694,13.276
		c-8.14,3.442-9.61,6.974-12.11,11.391s-5.334,7.583-7.5,12.431s-4.443,14.126-4.443,14.126s0.859-15.307,5.526-21.557
		s6.943-10.517,7.566-11.036"/>
</g>
<g id="Layer_14">
	<path fill="#F6F8F0" stroke="#A2AB8A" stroke-linecap="round" stroke-miterlimit="10" d="M98.334,46.333
		c1.333-2.417,4.277-8.766,5.137-10.219c1.124-1.898,4.216-7.102,4.779-8.198c4.484-8.711,8.171-11.28,9.007-11.976
		c0.546-0.455,3.821-3.164,4.185-3.701c-0.719-0.013-8.646,1.923-10.196,2.629c-3.1,1.413-6.654,4.683-9.213,7.126
		c-7.772,7.422-8.294,18.155-8.737,20.484c-0.356,1.867-1.362,7.172-1.118,9.073c0,0,2.063,0.089,3.358,0.076
		c0.38-0.004,1.016-1.729,1.325-2.42C97.301,48.225,97.813,47.276,98.334,46.333z"/>
	<path fill="none" stroke="#A2AB8A" stroke-linecap="round" stroke-miterlimit="10" d="M94.375,51.094
		c0.292-0.261,3.458-10.898,7.125-16.496s7.417-13.046,9.75-15.379s9.486-6.875,9.486-6.875"/>
	<path fill="none" stroke="#A2AB8A" stroke-linecap="round" stroke-miterlimit="10" d="M116.694,13.276
		c-8.14,3.442-9.61,6.974-12.11,11.391s-5.334,7.583-7.5,12.431s-4.443,14.126-4.443,14.126s0.859-15.307,5.526-21.557
		s6.943-10.517,7.566-11.036"/>
</g>
<g id="Layer_9--">
	<path fill="#F6F8F0" stroke="#A2AB8A" stroke-linecap="round" stroke-miterlimit="10" d="M93.089,40.658
		c-1.158-3.418-4.466-6.929-6.618-9.807c-4.702-6.287-12.137-11.06-14.888-18.354c-1.859,3.02-1.745,8.244-1.064,11.622
		c0.792,3.935,1.778,7.315,4.476,10.55c1.266,1.518,7.704,6.996,9.119,8.713c1.935,2.348,3.278,5.048,3.668,8.062
		c1.472,0.472,6.037,0.197,6.037,0.197C94.325,48.175,94.222,44.001,93.089,40.658z"/>
	<path fill="none" stroke="#A2AB8A" stroke-linecap="round" stroke-miterlimit="10" d="M89.253,51.314
		c0,0-0.158-5.189-1.924-8.314s-5.266-3.499-9.016-7.656s-6.375-8.85-6.813-13.347s0-8.622,0-8.622"/>
	<path fill="none" stroke="#A2AB8A" stroke-linecap="round" stroke-miterlimit="10" d="M90.845,51.438
		c0,0,0.311-4.041-0.919-7.866s-3.488-4.635-8.676-9.26s-8.144-10.885-8.197-18.786"/>
	<path fill="none" stroke="#A2AB8A" stroke-linecap="round" stroke-miterlimit="10" d="M92.632,51.314
		c0,0,0.243-7.626-1.752-10.626c-1.788-2.688-5.505-5.781-8.005-8.578s-6.923-8.466-7.836-13.725"/>
</g>
<g id="Layer_15">
	<path fill="#F6F8F0" stroke="#A2AB8A" stroke-linecap="round" stroke-miterlimit="10" d="M93.089,40.658
		c-1.158-3.418-5.353-6.614-7.505-9.492c-4.702-6.287-12.768-11.956-15.52-19.25c-1.859,3.02-0.226,8.826,0.455,12.203
		c0.792,3.935,1.778,7.315,4.476,10.55c1.266,1.518,7.704,6.996,9.119,8.713c1.935,2.348,3.278,5.048,3.668,8.062
		c1.472,0.472,6.037,0.197,6.037,0.197C94.325,48.175,94.222,44.001,93.089,40.658z"/>
	<path fill="none" stroke="#A2AB8A" stroke-linecap="round" stroke-miterlimit="10" d="M89.253,51.314c0,0-0.158-5.189-1.924-8.314
		s-6.129-2.859-9.016-7.656c-2.493-4.141-3.679-5.642-5.479-10.511c-1.798-4.863-2.188-11.558-2.188-11.558"/>
	<path fill="none" stroke="#A2AB8A" stroke-linecap="round" stroke-miterlimit="10" d="M90.845,51.438c0,0,0.311-4.041-0.919-7.866
		s-3.488-4.635-8.676-9.26s-4.75-8.134-8.134-17.025"/>
	<path fill="none" stroke="#A2AB8A" stroke-linecap="round" stroke-miterlimit="10" d="M92.632,51.314c0,0,0.243-7.626-1.752-10.626
		c-1.788-2.688-5.505-5.781-8.005-8.578s-3.305-5.208-7.055-11.565"/>
</g>
<g id="Layer_16">
	<path fill="#F6F8F0" stroke="#A2AB8A" stroke-linecap="round" stroke-miterlimit="10" d="M91.605,51.654c0,0-5.28-9.8-2.58-22.699
		c2.257-10.781,8.832-19.705,12.821-26.9c0,0,2.876,9.941-3.561,29.133c-3.067,9.144-2.462,20.729-2.462,20.729L91.605,51.654z"/>
	<path fill="none" stroke="#A2AB8A" stroke-linecap="round" stroke-miterlimit="10" d="M93.127,50.96c0,0-3.453-8.48-3.415-14.533
		s3.167-13.614,4.79-17.208s6.375-12.46,7.562-16.152"/>
	<path fill="none" stroke="#A2AB8A" stroke-linecap="round" stroke-miterlimit="10" d="M94.502,52.344
		c-0.377-0.014-3.096-11.764-2.227-17.108S95.36,23.757,98.5,17.479c2.206-4.413,3.782-11.652,3.782-11.652"/>
	<path fill="none" stroke="#A2AB8A" stroke-linecap="round" stroke-miterlimit="10" d="M95.372,50.641
		c0,0-1.938-10.805-0.218-16.786s6.646-16.451,6.861-18.329"/>
</g>
<g id="Layer_13">
	<path fill="#F6F8F0" stroke="#A2AB8A" stroke-linecap="round" stroke-miterlimit="10" d="M98.229,50.91
		c0,0,10.021-10.984,11.396-13.009s3.875-4.979,9.75-7.064s16.375-4.182,20.75-2.134c0,0-6.875-6.202-17-4.077
		s-18.057,1.191-21.843,5.235S90.625,48.154,91.5,50.39S98.229,50.91,98.229,50.91z"/>
	<path fill="none" stroke="#A2AB8A" stroke-linecap="round" stroke-miterlimit="10" d="M95.791,50.91
		c0.334-0.785,5.653-6.549,8.877-10.217c2.888-3.286,3.957-6.878,7.707-8.973s15.807-7.342,24.026-5.4"/>
	<path fill="none" stroke="#A2AB8A" stroke-linecap="round" stroke-miterlimit="10" d="M93.637,51.469c0,0,2.896-6.25,6.922-10.27
		c3.913-3.907,4.151-7.129,7.691-10.364c2.094-1.913,8.375-3.669,11.625-4.94s6.373-1.68,6.373-1.68"/>
	<path fill="none" stroke="#A2AB8A" stroke-linecap="round" stroke-miterlimit="10" d="M93.127,50.39c0,0,1.553-6.347,2.987-8.061
		s3.419-4.24,4.28-6.066c0.861-1.827,3.837-6.083,5.23-7.178c2.017-1.583,6.886-2.906,6.886-2.906"/>
	<path fill="#F6F8F0" stroke="#A2AB8A" stroke-linecap="round" stroke-miterlimit="10" d="M107.188,26.986
		c0,0,6.599,1.028,10.062,1.091s14.736-3.836,17.589-2.451s-1.994-2.84-13.825-0.595S107.188,26.986,107.188,26.986z"/>
</g>
<g id="Layer_11">
	<path fill="#F6F8F0" stroke="#A2AB8A" stroke-linecap="round" stroke-miterlimit="10" d="M72,30.838
		c-0.556,0-4.181-0.928-7.5-1.421c-6.167-0.917-11.667,0.136-15.75,2.303s-4.992,3.129-4.992,3.129"/>
	<path fill="#F6F8F0" stroke="#A2AB8A" stroke-linecap="round" stroke-miterlimit="10" d="M85.5,51.563c0,0-1.333-6.762-7.083-9.871
		S64.75,40.333,57.333,38.25S44.5,35.537,40.75,36.06c0,0,9.75-4.44,17.5-4.125s14.246-2.981,21.136,0.539
		c16.64,8.502,15.447,19.089,15.447,19.089H85.5z"/>
	<path fill="none" stroke="#A2AB8A" stroke-linecap="round" stroke-miterlimit="10" d="M45.808,35.983c0,0,4.589-1.9,11.724-1.733
		s13.968-1.869,18.385-0.768S89.043,40.5,90.771,44.667s2.467,6.647,2.467,6.647"/>
	<path fill="none" stroke="#A2AB8A" stroke-linecap="round" stroke-miterlimit="10" d="M51.709,36.866
		c0,0,11.208,0.301,15.458-0.282s11.622,0.523,14.8,2.414c7.287,4.336,8.805,12.097,8.805,12.097"/>
	<path fill="none" stroke="#A2AB8A" stroke-linecap="round" stroke-miterlimit="10" d="M88,51.094c0,0-2.531-7.336-6.417-9.402
		c-5.25-2.792-14.837-2.202-14.837-2.202"/>
</g>
<g id="Layer_1_copy">
	<g>
		<path d="M88.628,51.198c-6.11,0-11.854-0.187-17.198-0.523c-0.718,1.149-1.384,2.298-1.942,3.447
			c6.275,0.451,12.746,0.683,19.141,0.683c7.393,0,14.888-0.309,22.063-0.91c-0.559-1.146-1.146-2.293-1.686-3.44
			C102.779,50.928,95.969,51.198,88.628,51.198z"/>
	</g>
</g>
</svg>
