<?xml version="1.0" encoding="utf-8"?>
<!-- Generator: Adobe Illustrator 16.0.0, SVG Export Plug-In . SVG Version: 6.00 Build 0)  -->
<!DOCTYPE svg PUBLIC "-//W3C//DTD SVG 1.1//EN" "http://www.w3.org/Graphics/SVG/1.1/DTD/svg11.dtd">
<svg version="1.1" id="Layer_1" xmlns="http://www.w3.org/2000/svg" xmlns:xlink="http://www.w3.org/1999/xlink" x="0px" y="0px"
	 width="176px" height="176px" viewBox="0 0 176 176" enable-background="new 0 0 176 176" xml:space="preserve">
<g>
	<path d="M88.628,38.15c-37.063,0-76.453-6.744-76.453-19.242c0-12.499,39.39-19.242,76.453-19.242
		c37.062,0,76.453,6.743,76.453,19.242C165.081,31.406,125.69,38.15,88.628,38.15z M88.628,3.771
		c-44.825,0-72.349,8.816-72.349,15.137s27.523,15.137,72.349,15.137c44.824,0,72.349-8.816,72.349-15.137
		S133.452,3.771,88.628,3.771z"/>
	<path d="M128.184,35.328c-1.135,0-2.053-0.919-2.053-2.052c0-2.119-12.76-7.085-37.503-7.085c-24.744,0-37.503,4.967-37.503,7.085
		c0,1.133-0.919,2.052-2.052,2.052c-1.134,0-2.053-0.919-2.053-2.052c0-8.851,27.217-11.19,41.608-11.19
		c14.391,0,41.608,2.339,41.608,11.19C130.236,34.409,129.318,35.328,128.184,35.328z"/>
	<path d="M88.628,175.183c-16.39,0-47.281-2.599-47.714-12.396L22.47,60.579c-0.202-1.116,0.54-2.184,1.654-2.384
		c1.125-0.211,2.184,0.54,2.384,1.654L44.98,162.214c0.022,0.121,0.033,0.242,0.033,0.365c0,2.885,15.395,8.498,43.615,8.498
		c28.219,0,43.614-5.613,43.614-8.498c0-0.11,0.008-0.221,0.026-0.329l16.419-101.339c0.183-1.118,1.215-1.879,2.355-1.698
		c1.118,0.181,1.878,1.235,1.697,2.355l-16.397,101.199C135.952,172.581,105.027,175.183,88.628,175.183z"/>
	<path d="M88.628,163.894c-0.567,0-1.026-0.459-1.026-1.026s0.459-1.026,1.026-1.026c2.417,0,4.807-0.044,7.147-0.128
		c0.539-0.022,1.042,0.423,1.062,0.99c0.02,0.565-0.424,1.042-0.991,1.062C93.482,163.85,91.068,163.894,88.628,163.894z"/>
	<path d="M111.445,162.889c-0.511,0-0.952-0.38-1.016-0.9c-0.07-0.562,0.33-1.075,0.894-1.144
		c15.417-1.896,23.484-5.725,23.484-8.527c0-0.568,0.459-1.026,1.026-1.026c0.566,0,1.025,0.458,1.025,1.026
		c0,6.919-19.354,9.834-25.288,10.564C111.529,162.887,111.487,162.889,111.445,162.889z"/>
	<path d="M88.628,155.828c-0.567,0-1.026-0.459-1.026-1.025c0-0.567,0.459-1.026,1.026-1.026c2.483,0,4.938-0.047,7.342-0.133
		c0.531-0.026,1.042,0.423,1.062,0.989c0.02,0.566-0.423,1.043-0.99,1.063C93.615,155.782,91.135,155.828,88.628,155.828z"/>
	<path d="M104.169,155.233c-0.528,0-0.979-0.409-1.02-0.947c-0.044-0.564,0.377-1.06,0.942-1.102c1.768-0.139,3.493-0.3,5.168-0.483
		c17.615-1.918,26.831-5.846,26.831-8.738c0-0.567,0.459-1.026,1.026-1.026s1.026,0.459,1.026,1.026
		c0,7.107-21.937,10.048-28.66,10.778c-1.698,0.188-3.443,0.35-5.231,0.487C104.224,155.233,104.197,155.233,104.169,155.233z"/>
	<path d="M106.222,142.918c-0.528,0-0.98-0.408-1.021-0.946c-0.044-0.564,0.378-1.06,0.942-1.102
		c1.768-0.139,3.494-0.302,5.169-0.483c17.615-1.918,26.831-5.846,26.831-8.738c0-0.567,0.459-1.026,1.026-1.026
		c0.566,0,1.025,0.459,1.025,1.026c0,7.107-21.936,10.048-28.66,10.778c-1.697,0.188-3.443,0.349-5.23,0.487
		C106.276,142.918,106.25,142.918,106.222,142.918z"/>
	<path d="M88.628,95.488c-0.567,0-1.026-0.459-1.026-1.026s0.459-1.026,1.026-1.026c2.99,0,6.024-0.055,9.021-0.162
		c3.383-0.125,6.74-0.314,9.981-0.564c0.513-0.027,1.058,0.377,1.1,0.944c0.045,0.564-0.378,1.058-0.942,1.102
		c-3.269,0.253-6.653,0.444-10.064,0.569C94.701,95.433,91.643,95.488,88.628,95.488z"/>
	<path d="M117.618,93.746c-0.509,0-0.949-0.378-1.016-0.896c-0.072-0.562,0.326-1.076,0.888-1.148
		c20.471-2.613,29.633-7.179,29.633-10.544c0-0.567,0.458-1.026,1.025-1.026c0.568,0,1.027,0.459,1.027,1.026
		c0,7.733-21.977,11.375-31.426,12.582C117.706,93.743,117.662,93.746,117.618,93.746z"/>
	<path d="M94.785,105.75c-0.567,0-1.026-0.459-1.026-1.026s0.459-1.026,1.026-1.026c2.99,0,6.024-0.055,9.021-0.162
		c0.533,0.002,1.042,0.423,1.062,0.99c0.02,0.565-0.423,1.042-0.99,1.062C100.858,105.695,97.8,105.75,94.785,105.75z"/>
	<path d="M113.476,104.263c-0.513,0-0.956-0.385-1.018-0.907c-0.064-0.564,0.338-1.072,0.901-1.138
		c2.543-0.297,5.041-0.641,7.42-1.023c17.929-2.881,24.29-7.066,24.29-9.775c0-0.567,0.459-1.026,1.026-1.026
		c0.568,0,1.027,0.459,1.027,1.026c0,6.631-16.302,10.241-26.019,11.804c-2.408,0.385-4.933,0.733-7.509,1.034
		C113.557,104.261,113.516,104.263,113.476,104.263z"/>
	<path d="M88.628,71.975c-35.547,0-71.531-6.191-71.833-18.026l-4.603-34.771c-0.149-1.125,0.642-2.155,1.765-2.304
		c1.122-0.14,2.156,0.641,2.304,1.765l4.618,34.891c0.012,0.089,0.018,0.18,0.018,0.27c0,5.876,25.767,14.071,67.73,14.071
		c41.962,0,67.73-8.195,67.73-14.071c0-0.09,0.006-0.18,0.019-0.27l4.617-34.891c0.149-1.124,1.202-1.917,2.304-1.765
		c1.124,0.149,1.913,1.18,1.766,2.304l-4.602,34.771C160.159,65.784,124.175,71.975,88.628,71.975z"/>
	<path d="M88.628,62.739c-0.567,0-1.026-0.459-1.026-1.026s0.459-1.026,1.026-1.026c9.377,0,18.48-0.425,27.062-1.264
		c0.559-0.042,1.066,0.357,1.122,0.921c0.055,0.564-0.358,1.066-0.921,1.121C107.242,62.31,98.07,62.739,88.628,62.739z"/>
	<path d="M137.373,58.153c-0.472,0-0.894-0.324-1-0.801c-0.126-0.552,0.221-1.101,0.773-1.227
		c19.425-4.382,21.521-8.649,21.521-10.279c0-0.567,0.459-1.026,1.025-1.026c0.567,0,1.026,0.459,1.026,1.026
		c0,4.753-7.562,8.771-23.119,12.281C137.523,58.145,137.448,58.153,137.373,58.153z"/>
	<path d="M115.788,53.261c-0.521,0-0.967-0.396-1.02-0.926c-0.055-0.564,0.359-1.066,0.922-1.122
		c3.719-0.365,7.334-0.808,10.747-1.319c3.839-0.575,7.44-1.24,10.709-1.979c15.045-3.394,21.777-7.995,21.777-11.049
		c0-0.567,0.459-1.026,1.026-1.026s1.026,0.459,1.026,1.026c0,7.216-17.894,11.813-23.376,13.052
		c-3.319,0.748-6.972,1.423-10.858,2.006c-3.449,0.515-7.099,0.963-10.851,1.331C115.856,53.258,115.823,53.261,115.788,53.261z"/>
</g>
</svg>
