<svg version="1.1" id="pot-plant" class="image-on" xmlns="http://www.w3.org/2000/svg" x="0px" y="0px" width="176px" height="176px" viewBox="0 0 176 176" enable-background="new 0 0 176 176" xml:space="preserve">
	<g id="Layer_1">
		<path d="M88.628,38.15c-37.063,0-76.453-6.744-76.453-19.242c0-12.499,39.39-19.242,76.453-19.242
      			c37.062,0,76.453,6.743,76.453,19.242C165.081,31.406,125.689,38.15,88.628,38.15z M88.628,3.771
      			c-44.825,0-72.349,8.816-72.349,15.137c0,6.321,27.523,15.137,72.349,15.137c44.824,0,72.349-8.816,72.349-15.137
      			C160.977,12.587,133.452,3.771,88.628,3.771z"/>
		<path d="M128.184,35.328c-1.135,0-2.053-0.919-2.053-2.052c0-2.119-12.76-7.085-37.503-7.085c-24.744,0-37.503,4.967-37.503,7.085
      			c0,1.133-0.919,2.052-2.052,2.052c-1.134,0-2.053-0.919-2.053-2.052c0-8.851,27.217-11.19,41.608-11.19
      			c14.392,0,41.608,2.339,41.608,11.19C130.236,34.409,129.318,35.328,128.184,35.328z"/>
		<path d="M88.628,175.184c-16.39,0-47.281-2.6-47.714-12.396L22.47,60.579c-0.202-1.116,0.54-2.184,1.654-2.384
      			c1.125-0.211,2.184,0.54,2.384,1.654L44.98,162.214c0.022,0.121,0.033,0.242,0.033,0.365c0,2.885,15.395,8.498,43.615,8.498
      			s43.614-5.613,43.614-8.498c0-0.11,0.008-0.222,0.025-0.329l16.42-101.339c0.183-1.118,1.215-1.879,2.354-1.698
      			c1.118,0.181,1.878,1.235,1.696,2.355l-16.396,101.2C135.952,172.581,105.027,175.184,88.628,175.184z"/>
		<path d="M88.628,163.895c-0.567,0-1.026-0.459-1.026-1.026s0.459-1.026,1.026-1.026c2.417,0,4.808-0.044,7.147-0.128
      			c0.539-0.022,1.041,0.423,1.062,0.99c0.021,0.565-0.424,1.042-0.991,1.062C93.482,163.85,91.068,163.895,88.628,163.895z"/>
		<path d="M111.445,162.889c-0.512,0-0.952-0.38-1.016-0.9c-0.07-0.561,0.329-1.074,0.893-1.143
      			c15.418-1.896,23.484-5.726,23.484-8.527c0-0.568,0.459-1.026,1.026-1.026c0.565,0,1.024,0.458,1.024,1.026
      			c0,6.918-19.354,9.834-25.287,10.563C111.529,162.887,111.486,162.889,111.445,162.889z"/>
		<path d="M88.628,155.828c-0.567,0-1.026-0.459-1.026-1.025s0.459-1.025,1.026-1.025c2.483,0,4.938-0.047,7.343-0.133
      			c0.53-0.026,1.041,0.422,1.062,0.988s-0.423,1.043-0.99,1.063C93.615,155.781,91.135,155.828,88.628,155.828z"/>
		<path d="M104.169,155.232c-0.528,0-0.979-0.408-1.021-0.946c-0.043-0.563,0.377-1.06,0.942-1.103
      			c1.769-0.139,3.493-0.3,5.168-0.482c17.615-1.918,26.831-5.846,26.831-8.738c0-0.566,0.459-1.025,1.026-1.025
      			s1.026,0.459,1.026,1.025c0,7.107-21.938,10.049-28.66,10.777c-1.698,0.189-3.443,0.351-5.231,0.488
      			C104.225,155.232,104.197,155.232,104.169,155.232z"/>
		<path d="M106.223,142.918c-0.529,0-0.98-0.408-1.021-0.945c-0.044-0.564,0.378-1.061,0.941-1.103
      			c1.769-0.14,3.494-0.302,5.17-0.483c17.615-1.918,26.83-5.846,26.83-8.738c0-0.566,0.459-1.025,1.026-1.025
      			c0.565,0,1.024,0.459,1.024,1.025c0,7.107-21.936,10.049-28.659,10.779c-1.697,0.188-3.443,0.348-5.229,0.486
      			C106.275,142.918,106.25,142.918,106.223,142.918z"/>
		<path d="M88.628,95.488c-0.567,0-1.026-0.459-1.026-1.026s0.459-1.026,1.026-1.026c2.99,0,6.024-0.055,9.021-0.162
      			c3.384-0.125,6.74-0.313,9.981-0.563c0.513-0.026,1.058,0.377,1.101,0.944c0.045,0.563-0.379,1.058-0.942,1.102
      			c-3.269,0.253-6.653,0.444-10.063,0.569C94.701,95.434,91.643,95.488,88.628,95.488z"/>
		<path d="M117.618,93.746c-0.509,0-0.949-0.378-1.017-0.896c-0.072-0.562,0.326-1.076,0.889-1.147
      			c20.471-2.613,29.633-7.179,29.633-10.544c0-0.567,0.458-1.026,1.025-1.026s1.026,0.459,1.026,1.026
      			c0,7.732-21.978,11.375-31.426,12.582C117.706,93.743,117.662,93.746,117.618,93.746z"/>
		<path d="M94.785,105.75c-0.567,0-1.026-0.459-1.026-1.025c0-0.568,0.459-1.027,1.026-1.027c2.99,0,6.023-0.055,9.021-0.161
      			c0.532,0.002,1.041,0.423,1.062,0.989c0.021,0.565-0.423,1.043-0.99,1.063C100.857,105.695,97.8,105.75,94.785,105.75z"/>
		<path d="M113.477,104.264c-0.514,0-0.957-0.386-1.019-0.908c-0.063-0.563,0.338-1.071,0.901-1.137
      			c2.543-0.298,5.041-0.642,7.42-1.023c17.929-2.881,24.289-7.066,24.289-9.775c0-0.566,0.459-1.025,1.027-1.025
      			c0.567,0,1.026,0.459,1.026,1.025c0,6.631-16.302,10.241-26.019,11.805c-2.408,0.385-4.934,0.732-7.51,1.033
      			C113.557,104.262,113.516,104.264,113.477,104.264z"/>
		<path d="M88.628,71.975c-35.547,0-71.531-6.191-71.833-18.026l-4.603-34.771c-0.149-1.125,0.642-2.155,1.765-2.304
      			c1.122-0.14,2.156,0.641,2.304,1.765l4.618,34.891c0.012,0.089,0.018,0.18,0.018,0.27c0,5.876,25.767,14.071,67.73,14.071
      			c41.962,0,67.73-8.195,67.73-14.071c0-0.09,0.006-0.18,0.019-0.27l4.617-34.891c0.149-1.124,1.202-1.917,2.304-1.765
      			c1.124,0.149,1.913,1.18,1.766,2.304l-4.602,34.771C160.159,65.784,124.175,71.975,88.628,71.975z"/>
		<path d="M88.628,62.739c-0.567,0-1.026-0.459-1.026-1.026s0.459-1.026,1.026-1.026c9.377,0,18.479-0.425,27.062-1.264
      			c0.56-0.042,1.066,0.357,1.123,0.921c0.055,0.564-0.358,1.066-0.922,1.121C107.242,62.31,98.07,62.739,88.628,62.739z"/>
		<path d="M137.373,58.153c-0.473,0-0.895-0.324-1-0.801c-0.126-0.552,0.221-1.101,0.773-1.227
      			c19.424-4.382,21.521-8.649,21.521-10.279c0-0.567,0.459-1.026,1.024-1.026c0.567,0,1.026,0.459,1.026,1.026
      			c0,4.753-7.562,8.771-23.118,12.281C137.523,58.145,137.447,58.153,137.373,58.153z"/>
		<path d="M115.788,53.261c-0.521,0-0.968-0.396-1.021-0.926c-0.055-0.564,0.359-1.066,0.922-1.122
      			c3.72-0.365,7.334-0.808,10.748-1.319c3.838-0.575,7.439-1.24,10.709-1.979c15.045-3.394,21.776-7.995,21.776-11.049
      			c0-0.567,0.459-1.026,1.026-1.026c0.566,0,1.025,0.459,1.025,1.026c0,7.216-17.894,11.813-23.375,13.052
      			c-3.32,0.748-6.973,1.423-10.858,2.006c-3.449,0.515-7.099,0.963-10.851,1.331C115.855,53.258,115.822,53.261,115.788,53.261z"/>
	</g>
	<g id="Layer_2">
		<path fill="#F6F8F0" stroke="#A2AB8A" stroke-linecap="round" stroke-miterlimit="10" d="M92.177,33.552l3.375-0.192
      			c-0.197-2.181-0.979-4.105-1.206-6.041c-1.382,2.142-3.451,3.876-4.634,6.232H92.177"/>
		<path display="none" fill="#F6F8F0" stroke="#A2AB8A" stroke-linecap="round" stroke-miterlimit="10" d="M93.913,33.385
      			c-1.604,0-2.951,0.378-4.375,0.5L93.913,33.385z"/><path fill="#F6F8F0" stroke="#A2AB8A" stroke-linecap="round" stroke-miterlimit="10" d="M92.625,33.438
      		c-0.055-0.429,0.526-1.289,0.688-1.709c0.158-0.414,0.32-0.811,0.465-1.214c0.313-0.875,0.419-1.684,0.598-2.576"/>
	</g>
	<g id="Layer_3">
		<path fill="#F6F8F0" stroke="#A2AB8A" stroke-linecap="round" stroke-miterlimit="10" d="M90.703,33.438
      			c-1.276-1.541-1.656-5.148-1.656-7.081c0-2.253,0.116-4.696-0.071-6.857c1.45,1.594,2.848,4.036,3.862,6.072
      			c1.049,2.107,2.975,5.542,2.714,7.981"/>
		<path fill="#F6F8F0" stroke="#A2AB8A" stroke-linecap="round" stroke-miterlimit="10" d="M91.984,33.438
      			c-0.03-2.211-0.715-5.547-1.281-7.67C90.349,24.44,90.415,22.07,89.422,21"/>
		<path fill="#F6F8F0" stroke="#A2AB8A" stroke-linecap="round" stroke-miterlimit="10" d="M94.049,32.874
      			c0.019,0.249-0.006-0.887-0.064-1.311c-0.095-0.675-0.176-1.789-0.388-2.438c-0.226-0.687-0.447-2.125-0.759-3.554"/>
		<path fill="#F6F8F0" stroke="#A2AB8A" stroke-linecap="round" stroke-miterlimit="10" d="M95.552,33.552
      			c-0.813,0-4.091-0.115-4.849-0.115"/>
	</g>
	<g id="Layer_4"><path fill="#F6F8F0" stroke="#A2AB8A" stroke-linecap="round" stroke-miterlimit="10" d="M92.875,33.201
      		c0.392-2.125,0.479-4.04,0.382-6.143c-0.099-2.125-0.513-4.13-0.744-6.229c-0.057-0.509-1.369-5.505-1.65-7.963
      		c-0.091-0.79-0.063-2.029-0.259-2.791c-1.917,4.464-2.038,8.152-2.229,11.468c-0.219,3.814-0.666,8.082-0.125,11.907"/><path fill="none" stroke="#A2AB8A" stroke-linecap="round" stroke-miterlimit="10" d="M92.438,20.445
      		c-0.017,2.094-0.718,4.756-0.81,6.946c-0.088,2.088-0.128,3.636-0.128,5.748"/><path fill="none" stroke="#A2AB8A" stroke-linecap="round" stroke-miterlimit="10" d="M90,33.139c0-3.976,0.144-7.536,0.5-11.402
      		c0.292-3.172,0.104-7.754,0.104-11.035"/><path fill="none" stroke="#A2AB8A" stroke-linecap="round" stroke-miterlimit="10" d="M88.375,33.389
      		c1.272,0.35,2.986,0.063,4.313,0.063"/>
	</g>
	<g id="Layer_6"><path fill="#F6F8F0" stroke="#A2AB8A" stroke-linecap="round" stroke-miterlimit="10" d="M92.5,28.975
      		c0.383-2.184-2.75-18.163,4.321-21.821c0.267,1.93-0.569,3.912-0.752,5.843c-0.233,2.469-0.225,5.145-0.514,7.53
      		c-0.557,4.596-1.943,8.314-3.142,12.786"/><path fill="none" stroke="#A2AB8A" stroke-linecap="round" stroke-miterlimit="10" d="M96.25,7.625
      		c-0.468,2.195-1.421,4.063-2,6.147c-0.774,2.786-0.312,5.504-0.813,8.314c-0.398,2.233-0.937,4.58-0.938,6.889
      		c0,1.256,0.508,3.039-0.086,4.338"/>
	</g>
	<g id="Layer_5"><path fill="#F6F8F0" stroke="#A2AB8A" stroke-linecap="round" stroke-miterlimit="10" d="M93.24,33.684
      		c-0.059-0.772,0.02-1.694,0.125-2.313c0.124-0.721,0.368-1.268,0.431-1.998c0.141-1.639,0.444-3.24,0.444-4.937
      		c0-3.299-0.135-6.042-1.063-9.152c-0.848-2.842-2.014-5.497-3.243-8.139c-1.069-2.295-1.12-4.163-1.773-7.079
      		c-0.797,0.839-1.575,2.366-1.957,3.268c-0.626,1.48-0.939,3.17-1.089,4.713c-0.316,3.26-0.214,7.247,0.559,10.352
      		c0.639,2.568,1.753,4.827,2.261,7.388c0.513,2.59,0.305,5.353,0.305,8.021"/><path fill="none" stroke="#A2AB8A" stroke-linecap="round" stroke-miterlimit="10" d="M91.178,33.809
      		c0-2.681,0.024-7.729-0.625-10.313c-0.65-2.586-3.109-9.875-3.188-13.816c-0.032-1.607-0.183-6.098,0.5-8.122"/><path fill="none" stroke="#A2AB8A" stroke-linecap="round" stroke-miterlimit="10" d="M85.022,9.24
      		c0.349,3.84,0.684,6.378,1.53,8.052c0.899,1.779,1.971,3.765,2.375,5.674c0.802,3.788,0.938,6.826,0.938,10.468"/><path fill="none" stroke="#A2AB8A" stroke-linecap="round" stroke-miterlimit="10" d="M89.928,7.621
      		c-0.039,0.84,0.58,4.846,0.69,5.825c0.233,2.068,0.459,4.162,0.84,6.161c0.4,2.096,0.881,4.216,1.282,6.307
      		c0.38,1.975,0.563,3.883,0.563,5.958"/><path fill="none" stroke="#A2AB8A" stroke-linecap="round" stroke-miterlimit="10" d="M88.24,33.823
      		c1.686,0.155,2.531,0.215,5.063,0.088"/>
	</g>
</svg>