<?xml version="1.0" encoding="utf-8"?>
<!-- Generator: Adobe Illustrator 16.0.0, SVG Export Plug-In . SVG Version: 6.00 Build 0)  -->
<!DOCTYPE svg PUBLIC "-//W3C//DTD SVG 1.1//EN" "http://www.w3.org/Graphics/SVG/1.1/DTD/svg11.dtd">
<svg version="1.1" id="Layer_1" xmlns="http://www.w3.org/2000/svg" xmlns:xlink="http://www.w3.org/1999/xlink" x="0px" y="0px"
	 width="176px" height="176px" viewBox="0 0 176 176" enable-background="new 0 0 176 176" xml:space="preserve">
<g>
	<defs>
		<circle id="SVGID_1_" cx="88.408" cy="87.957" r="84.784"/>
	</defs>
	<clipPath id="SVGID_2_">
		<use xlink:href="#SVGID_1_"  overflow="visible"/>
	</clipPath>
	<path clip-path="url(#SVGID_2_)" d="M168.432,153.69L168.432,153.69c-13.504,0-18.068-32.031-18.686-44.373
		c-1.156-23.036,10.111-33.598,16.928-37.845c7.52-4.687,15.334-3.187,19.84,3.464c3.932,5.813,4.574,14.331,1.625,21.694
		c-2.217,5.542-1.549,11.37-0.84,17.54c1.143,9.979,2.438,21.287-8.555,33.574C175.211,151.69,171.744,153.69,168.432,153.69z
		 M175.461,71.73c-2.289,0-4.705,0.781-7.178,2.322c-6.254,3.892-16.578,13.631-15.504,35.113
		c0.84,16.728,6.395,41.486,15.652,41.486l0,0c2.408,0,5.117-1.662,8.043-4.934c10.086-11.271,8.924-21.402,7.803-31.201
		c-0.75-6.561-1.461-12.756,1.041-19.017c2.582-6.455,2.061-13.86-1.322-18.86C181.85,73.476,178.82,71.73,175.461,71.73z"/>
	<path clip-path="url(#SVGID_2_)" d="M146.904,207.189L146.904,207.189c-5.475,0-9.793-1.785-12.838-5.301
		c-8.963-10.348-5.506-34.344-2.162-57.547c1.893-13.155,3.855-26.76,3.342-36.97c-2.021-40.34,17.633-58.786,29.525-66.19
		c12.813-7.978,25.998-5.49,33.65,5.816c6.783,10.014,7.871,24.713,2.775,37.449c-3.07,7.687-1.621,19.55,0.059,33.284
		c4.049,33.14,9.092,74.386-45.564,88.23C152.482,206.776,149.525,207.189,146.904,207.189z M179.766,39.456
		c-4.293,0-8.791,1.448-13.383,4.306c-11.328,7.052-30.045,24.672-28.1,63.457c0.527,10.504-1.367,23.643-3.371,37.556
		c-3.242,22.528-6.6,45.828,1.453,55.122c3.744,4.329,9.855,5.335,18.58,3.121c52.061-13.19,47.199-52.961,43.295-84.92
		c-1.73-14.148-3.223-26.371,0.137-34.779c4.73-11.825,3.762-25.415-2.469-34.619C191.871,42.738,186.137,39.456,179.766,39.456z"/>
	<path clip-path="url(#SVGID_2_)" d="M130.137,284.456c-1.115,0-2.09-0.819-2.252-1.957c-0.178-1.246,0.688-2.401,1.934-2.58
		c2.094-0.3,4.324-0.749,6.633-1.334c2.572-0.65,5.064-1.341,7.494-2.065c1.223-0.372,2.482,0.329,2.838,1.534
		c0.359,1.208-0.328,2.477-1.531,2.834c-2.488,0.742-5.047,1.452-7.678,2.114c-2.465,0.628-4.857,1.108-7.109,1.428
		C130.355,284.451,130.244,284.456,130.137,284.456z M115.377,283.909c-0.203,0-0.412-0.025-0.615-0.084
		c-5.447-1.524-9.871-4.645-13.149-9.274c-0.728-1.024-0.485-2.447,0.542-3.177c1.029-0.725,2.451-0.483,3.178,0.542
		c2.697,3.808,6.184,6.264,10.658,7.516c1.213,0.343,1.922,1.604,1.582,2.813C117.289,283.251,116.373,283.909,115.377,283.909z
		 M158.629,276.123c-0.902,0-1.76-0.541-2.117-1.434c-0.471-1.166,0.102-2.494,1.271-2.963c4.625-1.854,9.08-3.924,13.232-6.142
		c1.111-0.598,2.49-0.176,3.084,0.933c0.594,1.11,0.176,2.492-0.936,3.085c-4.299,2.3-8.904,4.443-13.689,6.356
		C159.199,276.07,158.91,276.123,158.629,276.123z M184.703,262.048c-0.709,0-1.41-0.331-1.855-0.949
		c-0.734-1.024-0.5-2.448,0.521-3.185c3.992-2.865,7.732-5.993,11.119-9.294c0.904-0.883,2.346-0.853,3.225,0.041
		c0.879,0.904,0.861,2.346-0.041,3.224c-3.549,3.459-7.467,6.734-11.643,9.733C185.625,261.909,185.162,262.048,184.703,262.048z
		 M97.949,261.798c-1.055,0-2.004-0.738-2.227-1.813c-0.93-4.443-1.46-9.414-1.622-15.199c-0.036-1.256,0.955-2.306,2.214-2.344
		c1.224,0.045,2.309,0.956,2.344,2.219c0.152,5.433,0.666,10.274,1.525,14.389c0.259,1.234-0.53,2.444-1.763,2.701
		C98.263,261.785,98.105,261.798,97.949,261.798z M205.854,241.368c-0.473,0-0.951-0.143-1.359-0.452
		c-1.012-0.749-1.219-2.177-0.469-3.186c2.842-3.822,5.438-7.952,7.713-12.276c0.59-1.109,1.969-1.539,3.08-0.956
		c1.113,0.589,1.541,1.968,0.955,3.081c-2.385,4.532-5.107,8.862-8.09,12.87C207.236,241.054,206.551,241.368,205.854,241.368z
		 M96.702,232.119c-0.046,0-0.095,0-0.142-0.002c-1.258-0.077-2.213-1.16-2.137-2.417c0.279-4.536,0.711-9.43,1.32-14.955
		c0.138-1.253,1.232-2.189,2.516-2.014c1.252,0.136,2.154,1.264,2.017,2.513c-0.603,5.453-1.028,10.272-1.302,14.732
		C98.901,231.187,97.898,232.119,96.702,232.119z M219.736,215.187c-0.258,0-0.52-0.046-0.773-0.137
		c-1.186-0.429-1.797-1.733-1.369-2.917c1.592-4.407,2.984-9.13,4.143-14.021c0.291-1.23,1.531-1.984,2.74-1.694
		c1.225,0.286,1.984,1.519,1.695,2.739c-1.195,5.063-2.639,9.951-4.291,14.527C221.545,214.611,220.67,215.187,219.736,215.187z
		 M99.857,202.49c-0.104,0-0.207-0.005-0.311-0.02c-1.246-0.169-2.12-1.318-1.952-2.563c0.667-4.9,1.376-9.842,2.087-14.776
		c0.178-1.242,1.33-2.137,2.582-1.929c1.246,0.177,2.111,1.336,1.93,2.58c-0.709,4.917-1.418,9.85-2.08,14.735
		C101.957,201.663,100.979,202.49,99.857,202.49z M226.715,186.277c-0.111,0-0.221-0.008-0.33-0.025
		c-1.248-0.181-2.111-1.34-1.932-2.584c0.664-4.586,1.197-9.383,1.627-14.665c0.1-1.256,1.23-2.218,2.453-2.089
		c1.258,0.104,2.191,1.201,2.09,2.456c-0.436,5.383-0.979,10.271-1.658,14.955C228.805,185.46,227.826,186.277,226.715,186.277z
		 M104.031,172.982c-0.104,0-0.207-0.005-0.313-0.022c-1.25-0.173-2.121-1.318-1.951-2.565c0.684-5.001,1.316-9.927,1.852-14.728
		c0.141-1.251,1.258-2.188,2.518-2.013c1.252,0.138,2.152,1.265,2.014,2.518c-0.539,4.837-1.174,9.807-1.863,14.839
		C106.131,172.156,105.154,172.982,104.031,172.982z M229.242,156.583c-0.037,0-0.07,0-0.102-0.003
		c-1.258-0.053-2.234-1.116-2.182-2.375c0.193-4.563,0.33-9.05,0.465-13.417l0.045-1.455c0.037-1.259,1.115-2.164,2.35-2.211
		c1.26,0.039,2.246,1.095,2.209,2.351l-0.047,1.455c-0.133,4.386-0.271,8.888-0.469,13.474
		C231.461,155.623,230.453,156.583,229.242,156.583z M107.189,143.357c-0.045,0-0.09,0-0.137-0.002
		c-1.256-0.077-2.217-1.157-2.139-2.411c0.203-3.461,0.307-6.73,0.307-9.715c0-1.69-0.031-3.337-0.104-4.947
		c-0.051-1.256,0.924-2.319,2.18-2.375c1.307-0.128,2.324,0.923,2.379,2.182c0.07,1.664,0.107,3.382,0.107,5.141
		c0,3.072-0.107,6.434-0.318,9.979C109.393,142.42,108.387,143.357,107.189,143.357z M230.35,126.778c-0.045,0-0.088,0-0.129-0.004
		c-1.26-0.072-2.221-1.149-2.148-2.403c0.338-6.004,0.785-10.782,1.406-15.042c0.182-1.246,1.33-2.109,2.586-1.928
		c1.248,0.184,2.107,1.338,1.926,2.588c-0.602,4.121-1.035,8.771-1.363,14.638C232.557,125.839,231.549,126.778,230.35,126.778z
		 M107.258,113.575c-0.029,0-0.059,0-0.086,0c-1.26-0.047-2.242-1.105-2.193-2.363c0.193-5.152,0.648-10.222,1.355-15.063
		c0.184-1.244,1.355-2.1,2.586-1.926c1.248,0.182,2.109,1.34,1.926,2.585c-0.684,4.683-1.123,9.584-1.313,14.572
		C109.49,112.612,108.479,113.575,107.258,113.575z M235.273,97.414c-0.26,0-0.529-0.049-0.781-0.147
		c-1.168-0.464-1.781-1.69-1.322-2.86c0.014-0.037,0.102-0.253,0.119-0.287c1.633-4.091,2.719-8.675,3.188-13.539
		c0.121-1.255,1.234-2.194,2.488-2.05c1.254,0.12,2.17,1.233,2.049,2.486c-0.508,5.295-1.697,10.302-3.531,14.884
		C237.119,96.813,236.211,97.414,235.273,97.414z M111.631,84.195c-0.201,0-0.404-0.025-0.607-0.083
		c-1.215-0.335-1.928-1.59-1.59-2.804c1.363-4.929,3.053-9.75,5.027-14.329c0.498-1.158,1.836-1.692,2.996-1.191
		c1.158,0.5,1.689,1.841,1.191,2.997c-1.893,4.389-3.514,9.01-4.822,13.737C113.549,83.533,112.631,84.195,111.631,84.195z
		 M238.41,68.22c-1.123,0-2.105-0.83-2.256-1.978c-0.629-4.691-1.752-9.41-3.338-14.03c-0.41-1.189,0.221-2.488,1.412-2.897
		c1.195-0.4,2.49,0.224,2.898,1.416c1.684,4.901,2.879,9.917,3.547,14.906c0.168,1.248-0.709,2.396-1.957,2.562
		C238.613,68.215,238.512,68.22,238.41,68.22z M123.41,56.957c-0.408,0-0.82-0.107-1.191-0.336c-1.074-0.66-1.408-2.063-0.75-3.136
		c2.605-4.244,5.576-8.403,8.83-12.362c0.797-0.976,2.238-1.111,3.209-0.315c0.973,0.799,1.113,2.237,0.314,3.21
		c-3.123,3.797-5.971,7.785-8.467,11.854C124.924,56.572,124.176,56.957,123.41,56.957z M228.816,40.203
		c-0.787,0-1.555-0.411-1.979-1.142c-2.461-4.275-5.297-8.198-8.428-11.661c-0.844-0.934-0.77-2.375,0.164-3.22
		c0.936-0.842,2.375-0.774,3.221,0.161c3.346,3.702,6.373,7.889,8.998,12.441c0.627,1.092,0.254,2.486-0.842,3.115
		C229.596,40.104,229.203,40.203,228.816,40.203z M142.193,33.952c-0.598,0-1.199-0.233-1.643-0.701
		c-0.875-0.908-0.846-2.353,0.066-3.223c3.385-3.245,7.102-6.491,11.365-9.924l0.346-0.28c0.98-0.789,2.416-0.641,3.207,0.341
		c0.793,0.98,0.641,2.415-0.338,3.207l-0.375,0.298c-4.141,3.334-7.76,6.495-11.053,9.65
		C143.33,33.742,142.76,33.952,142.193,33.952z M208.842,18.464c-0.426,0-0.852-0.118-1.234-0.366
		c-4.115-2.66-8.441-4.566-12.871-5.663c-1.219-0.303-1.967-1.539-1.664-2.76c0.299-1.226,1.559-1.967,2.762-1.666
		c4.914,1.217,9.711,3.325,14.248,6.263c1.059,0.684,1.361,2.094,0.678,3.153C210.324,18.097,209.592,18.464,208.842,18.464z
		 M166.316,15.918c-0.854,0-1.672-0.479-2.064-1.3c-0.539-1.138-0.055-2.499,1.082-3.039c4.92-2.339,9.934-3.844,14.893-4.474
		c1.277-0.138,2.393,0.728,2.551,1.975c0.158,1.251-0.727,2.39-1.977,2.55c-4.48,0.566-9.025,1.935-13.51,4.067
		C166.979,15.848,166.643,15.918,166.316,15.918z"/>
	<path clip-path="url(#SVGID_2_)" d="M23.953,198.443c-2.177,0-4.046-0.593-5.5-1.81c-3.922-3.281-5.85-11.651,7.251-32.86
		c20.18-32.668,37.937-73.197,46.343-105.767c1.226-4.75,2.36-10.457,3.562-16.495c6.768-34.01,16.993-85.406,69.012-98.633
		c9.703-2.466,14.469-4.303,16.779-5.434c-11.217-0.936-52.238,6.828-68.031,30.201C75.681-6.179,72.126,16.992,69.269,35.611
		c-1.165,7.593-2.171,14.152-3.998,19.634c-6.201,18.599-27.556,71.385-36.817,83.735c-2.082,2.773-5.153,4.005-8.643,3.469
		c-8.449-1.3-17.682-12.292-21.003-21.746c-2.47-7.025-1.824-13.079,1.823-17.056c2.786-3.04,6.29-6.125,10-9.39
		c11.255-9.906,25.262-22.229,28.957-42.177c4.571-24.68,10.259-55.395-1.68-73.305l3.793-2.529
		C54.667-4.302,48.792,27.42,44.07,52.912C40.089,74.408,25.426,87.313,13.644,97.68c-3.616,3.182-7.031,6.187-9.653,9.046
		c-3.309,3.609-1.974,9.358-0.88,12.466c3.125,8.893,11.418,17.829,17.397,18.747c1.845,0.3,3.219-0.251,4.299-1.695
		c8.84-11.785,30.178-64.562,36.14-82.441c1.703-5.114,2.683-11.494,3.817-18.883c2.771-18.065,6.566-42.803,24.831-69.83
		c17.826-26.379,66.123-34.527,75.42-31.527c2.643,0.858,2.875,2.642,2.852,3.369c-0.055,1.672-0.152,4.784-22.119,10.367
		C96.512-40.186,87.018,7.548,80.082,42.4c-1.213,6.104-2.361,11.872-3.62,16.746c-8.512,32.984-26.476,73.992-46.877,107.025
		c-10.169,16.459-10.775,24.815-8.204,26.97c2.586,2.167,10.461-0.104,19.944-8.587c17.071-15.278,35.697-69.476,52.13-117.295
		c1.679-4.887,3.345-9.734,4.992-14.495c9.655-27.887,32.745-45.819,50.419-55.951c19.045-10.92,35.588-15.251,36.281-15.427
		l1.141,4.415c-0.658,0.17-65.914,17.556-83.529,68.455c-1.648,4.761-3.313,9.602-4.992,14.487
		c-17.424,50.707-35.444,103.14-53.401,119.209C36.755,194.758,29.392,198.443,23.953,198.443z"/>
</g>
<path id="contour" d="M88.408,175.2c-48.105,0-87.242-39.136-87.242-87.243c0-48.105,39.137-87.242,87.242-87.242
	c48.107,0,87.242,39.137,87.242,87.242C175.65,136.064,136.516,175.2,88.408,175.2z M88.408,5.63
	c-45.396,0-82.327,36.932-82.327,82.327c0,45.396,36.932,82.328,82.327,82.328c45.395,0,82.326-36.934,82.326-82.328
	C170.734,42.562,133.803,5.63,88.408,5.63z"/>
</svg>
