<svg version="1.1" xmlns="http://www.w3.org/2000/svg" xmlns:xlink="http://www.w3.org/1999/xlink" x="0px" y="0px" width="30px"
	 height="30px" viewBox="0 0 30 30" enable-background="new 0 0 30 30" xml:space="preserve">
<g id="Layer_1">

		<circle fill="none" stroke="#000000" stroke-width="2" stroke-linecap="round" stroke-linejoin="round" stroke-miterlimit="10" cx="11.333" cy="13.668" r="34.5"/>
	<g>
		<defs>
			<circle id="SVGID_1_" cx="11.333" cy="13.668" r="34.5"/>
		</defs>
		<clipPath id="SVGID_2_">
			<use xlink:href="#SVGID_1_"  overflow="visible"/>
		</clipPath>
		<path clip-path="url(#SVGID_2_)" fill="none" stroke="#000000" stroke-miterlimit="10" d="M20.48-17.664
			c-3.287,2.046-6.685,6.291-6.291,14.152c0.395,7.861,3.538,22.014,10.222,14.545s1.18-13.76,3.538-19.656
			C30.308-14.52,26.184-21.215,20.48-17.664z"/>
		<path clip-path="url(#SVGID_2_)" fill="none" stroke="#000000" stroke-miterlimit="10" d="M19.743-29.416
			C13.902-25.78,7.864-18.238,8.564-4.268c0.7,13.971-10.067,42.081,7.198,37.708c29.484-7.469,13.062-36.312,17.253-46.79
			C37.208-23.829,29.878-35.725,19.743-29.416z"/>
		<g clip-path="url(#SVGID_2_)">

				<path fill="none" stroke="#000000" stroke-width="1.5" stroke-linecap="round" stroke-linejoin="round" stroke-dasharray="4.9224,4.9224" d="
				M15.023-37.406C6.46-30.508-3.96-19.542-2.842,2.783c1.12,22.326-16.087,67.25,11.503,60.261
				C55.779,51.109,40.122,7.729,46.819-9.016C53.519-25.762,35.418-53.831,15.023-37.406z"/>
		</g>
		<path clip-path="url(#SVGID_2_)" fill="none" stroke="#000000" stroke-width="1.5" stroke-miterlimit="10" d="M27.557-52.259
			c0,0-25.945,6.682-33.022,27.125c-7.076,20.443-14.938,44.816-22.408,51.499c-7.47,6.684-14.152,5.11-5.896-8.255
			c8.255-13.366,14.938-29.091,18.083-41.277c3.145-12.187,4.323-38.132,27.518-44.029c23.194-5.897-11.006-6.29-20.834,8.255
			s-8.649,27.125-11.008,34.201C-22.37-17.664-30.625,2.777-34.164,7.495c-3.538,4.717-13.759-7.863-9.435-12.58
			c4.325-4.718,13.365-9.828,15.332-20.442c1.966-10.614,3.932-22.015-0.786-29.091"/>
	</g>
</g>
<g id="Layer_2">
</g>
</svg>