<?xml version="1.0" encoding="utf-8"?>
<!-- Generator: Adobe Illustrator 16.0.0, SVG Export Plug-In . SVG Version: 6.00 Build 0)  -->
<!DOCTYPE svg PUBLIC "-//W3C//DTD SVG 1.1//EN" "http://www.w3.org/Graphics/SVG/1.1/DTD/svg11.dtd">
<svg version="1.1" id="Layer_1" xmlns="http://www.w3.org/2000/svg" xmlns:xlink="http://www.w3.org/1999/xlink" x="0px" y="0px"
	 width="176px" height="176px" viewBox="0 0 176 176" enable-background="new 0 0 176 176" xml:space="preserve">
<path d="M88.408,175.2c-48.105,0-87.242-39.135-87.242-87.243c0-48.105,39.137-87.242,87.242-87.242
	c48.107,0,87.242,39.137,87.242,87.242C175.65,136.065,136.516,175.2,88.408,175.2z M88.408,5.63
	c-45.396,0-82.327,36.932-82.327,82.327c0,45.396,36.932,82.328,82.327,82.328c45.395,0,82.327-36.933,82.327-82.328
	C170.735,42.562,133.803,5.63,88.408,5.63z"/>
<g>
	<defs>
		<circle id="SVGID_1_" cx="88.408" cy="87.957" r="84.784"/>
	</defs>
	<clipPath id="SVGID_2_">
		<use xlink:href="#SVGID_1_"  overflow="visible"/>
	</clipPath>
	<path clip-path="url(#SVGID_2_)" d="M124.817,148.057L124.817,148.057c-10.919,0-14.608-25.896-15.107-35.873
		c-0.934-18.624,8.174-27.162,13.685-30.595c6.079-3.789,12.396-2.577,16.039,2.8c3.18,4.7,3.698,11.585,1.314,17.539
		c-1.793,4.48-1.253,9.191-0.679,14.179c0.924,8.068,1.97,17.21-6.917,27.143C130.296,146.439,127.494,148.057,124.817,148.057z
		 M130.498,81.797c-1.85,0-3.802,0.631-5.803,1.877c-5.054,3.146-13.401,11.019-12.533,28.386
		c0.68,13.524,5.17,33.539,12.655,33.539l0,0c1.946,0,4.135-1.343,6.502-3.988c8.154-9.112,7.214-17.302,6.307-25.224
		c-0.607-5.304-1.181-10.313,0.842-15.373c2.086-5.219,1.666-11.205-1.07-15.248C135.663,83.208,133.215,81.797,130.498,81.797z"/>
	<path clip-path="url(#SVGID_2_)" d="M107.413,191.306L107.413,191.306c-4.426,0-7.918-1.442-10.38-4.285
		c-7.245-8.364-4.45-27.764-1.747-46.522c1.531-10.635,3.116-21.634,2.702-29.888c-1.634-32.612,14.254-47.524,23.87-53.51
		c10.357-6.449,21.017-4.438,27.203,4.702c5.484,8.096,6.364,19.979,2.244,30.275c-2.483,6.214-1.311,15.805,0.046,26.908
		c3.275,26.792,7.351,60.136-36.835,71.329C111.922,190.973,109.532,191.306,107.413,191.306z M133.978,55.705
		c-3.47,0-7.107,1.171-10.818,3.481c-9.158,5.701-24.29,19.946-22.717,51.3c0.426,8.492-1.105,19.114-2.726,30.362
		c-2.622,18.213-5.335,37.049,1.175,44.562c3.028,3.5,7.967,4.313,15.021,2.523c42.088-10.664,38.157-42.815,35.001-68.652
		c-1.399-11.438-2.606-21.319,0.112-28.116c3.823-9.56,3.041-20.546-1.996-27.987C143.765,58.359,139.13,55.705,133.978,55.705z"/>
	<path clip-path="url(#SVGID_2_)" d="M93.858,253.771c-0.902,0-1.691-0.662-1.822-1.581c-0.144-1.008,0.557-1.942,1.564-2.086
		c1.693-0.242,3.495-0.606,5.362-1.078c2.079-0.527,4.094-1.084,6.058-1.671c0.989-0.301,2.007,0.266,2.294,1.24
		c0.291,0.977-0.264,2.003-1.238,2.292c-2.011,0.6-4.079,1.173-6.206,1.709c-1.993,0.508-3.926,0.896-5.748,1.154
		C94.033,253.767,93.944,253.771,93.858,253.771z M81.925,253.329c-0.165,0-0.333-0.021-0.498-0.067
		c-4.404-1.232-7.98-3.755-10.63-7.498c-0.589-0.828-0.392-1.979,0.438-2.568c0.832-0.587,1.982-0.392,2.569,0.438
		c2.181,3.078,4.999,5.063,8.617,6.076c0.98,0.276,1.553,1.296,1.278,2.275C83.47,252.797,82.73,253.329,81.925,253.329z
		 M116.891,247.035c-0.729,0-1.423-0.438-1.711-1.159c-0.38-0.943,0.082-2.017,1.027-2.396c3.741-1.498,7.342-3.171,10.698-4.965
		c0.897-0.483,2.014-0.142,2.494,0.754c0.479,0.898,0.142,2.015-0.757,2.495c-3.475,1.859-7.199,3.591-11.068,5.138
		C117.351,246.992,117.118,247.035,116.891,247.035z M137.97,235.656c-0.574,0-1.14-0.267-1.5-0.768
		c-0.594-0.828-0.403-1.979,0.422-2.573c3.228-2.317,6.251-4.846,8.99-7.514c0.729-0.714,1.896-0.689,2.606,0.033
		c0.71,0.73,0.695,1.896-0.033,2.605c-2.869,2.798-6.036,5.445-9.413,7.87C138.716,235.544,138.341,235.656,137.97,235.656z
		 M67.836,235.454c-0.853,0-1.62-0.597-1.801-1.466c-0.752-3.591-1.18-7.61-1.311-12.287c-0.029-1.016,0.772-1.864,1.79-1.894
		c0.989,0.036,1.866,0.772,1.894,1.792c0.124,4.393,0.539,8.307,1.234,11.634c0.209,0.997-0.429,1.975-1.425,2.183
		C68.089,235.443,67.962,235.454,67.836,235.454z M155.069,218.938c-0.382,0-0.769-0.116-1.098-0.366
		c-0.818-0.605-0.986-1.76-0.379-2.575c2.297-3.09,4.395-6.429,6.234-9.925c0.477-0.896,1.592-1.244,2.491-0.772
		c0.9,0.476,1.245,1.59,0.772,2.49c-1.929,3.664-4.129,7.165-6.541,10.405C156.188,218.683,155.633,218.938,155.069,218.938z
		 M66.827,211.461c-0.037,0-0.076,0-0.114-0.002c-1.017-0.063-1.789-0.938-1.727-1.954c0.225-3.667,0.574-7.623,1.066-12.09
		c0.112-1.013,0.997-1.77,2.035-1.628c1.012,0.11,1.741,1.021,1.63,2.032c-0.487,4.408-0.832,8.304-1.053,11.91
		C68.605,210.707,67.794,211.461,66.827,211.461z M166.293,197.771c-0.209,0-0.42-0.036-0.626-0.11
		c-0.958-0.346-1.452-1.401-1.106-2.358c1.286-3.563,2.412-7.381,3.348-11.335c0.235-0.995,1.238-1.604,2.215-1.37
		c0.991,0.231,1.605,1.227,1.371,2.215c-0.965,4.093-2.134,8.045-3.469,11.744C167.755,197.306,167.047,197.771,166.293,197.771z
		 M69.378,187.508c-0.083,0-0.167-0.004-0.251-0.016c-1.008-0.137-1.714-1.066-1.578-2.072c0.539-3.961,1.112-7.956,1.687-11.946
		c0.144-1.004,1.075-1.727,2.087-1.559c1.008,0.144,1.707,1.08,1.561,2.086c-0.573,3.975-1.146,7.963-1.683,11.913
		C71.076,186.839,70.285,187.508,69.378,187.508z M171.933,174.4c-0.089,0-0.177-0.006-0.266-0.02
		c-1.009-0.146-1.707-1.083-1.561-2.089c0.537-3.707,0.968-7.585,1.315-11.856c0.081-1.015,0.994-1.792,1.984-1.688
		c1.016,0.083,1.771,0.971,1.688,1.985c-0.351,4.352-0.79,8.304-1.34,12.09C173.623,173.74,172.833,174.4,171.933,174.4z
		 M72.752,163.653c-0.083,0-0.167-0.004-0.252-0.018c-1.01-0.14-1.715-1.066-1.577-2.075c0.552-4.042,1.064-8.025,1.496-11.905
		c0.113-1.013,1.017-1.77,2.036-1.628c1.012,0.112,1.74,1.023,1.628,2.036c-0.436,3.91-0.95,7.927-1.507,11.996
		C74.45,162.984,73.66,163.653,72.752,163.653z M173.976,150.394c-0.029,0-0.056,0-0.082-0.002c-1.016-0.043-1.805-0.902-1.762-1.92
		c0.156-3.689,0.267-7.315,0.375-10.846l0.036-1.177c0.031-1.018,0.902-1.749,1.9-1.787c1.018,0.031,1.816,0.885,1.785,1.901
		l-0.036,1.175c-0.109,3.546-0.221,7.186-0.379,10.893C175.772,149.619,174.956,150.394,173.976,150.394z M75.306,139.703
		c-0.036,0-0.073,0-0.11-0.002c-1.017-0.062-1.792-0.935-1.73-1.949c0.165-2.798,0.249-5.441,0.249-7.853
		c0-1.368-0.026-2.699-0.084-4c-0.042-1.015,0.746-1.875,1.762-1.92c1.056-0.104,1.878,0.746,1.923,1.763
		c0.057,1.346,0.086,2.735,0.086,4.157c0,2.483-0.086,5.2-0.257,8.067C77.087,138.946,76.274,139.703,75.306,139.703z
		 M174.872,126.3c-0.036,0-0.071,0-0.105-0.003c-1.017-0.059-1.794-0.93-1.736-1.944c0.273-4.853,0.635-8.717,1.137-12.159
		c0.146-1.009,1.076-1.705,2.091-1.559c1.008,0.148,1.703,1.082,1.558,2.091c-0.487,3.332-0.838,7.093-1.104,11.834
		C176.656,125.54,175.843,126.3,174.872,126.3z M75.361,115.626c-0.023,0-0.047,0-0.07,0c-1.018-0.038-1.812-0.894-1.773-1.91
		c0.156-4.166,0.524-8.264,1.096-12.178c0.148-1.006,1.096-1.698,2.091-1.557c1.008,0.147,1.705,1.083,1.557,2.09
		c-0.553,3.785-0.909,7.748-1.061,11.781C77.165,114.847,76.348,115.626,75.361,115.626z M178.854,102.56
		c-0.212,0-0.428-0.038-0.634-0.119c-0.943-0.374-1.438-1.366-1.068-2.312c0.011-0.03,0.082-0.204,0.097-0.232
		c1.319-3.307,2.198-7.013,2.577-10.945c0.097-1.015,0.998-1.774,2.012-1.657c1.013,0.097,1.754,0.997,1.655,2.01
		c-0.41,4.28-1.372,8.328-2.854,12.032C180.345,102.074,179.612,102.56,178.854,102.56z M78.897,91.874
		c-0.164,0-0.328-0.021-0.492-0.067c-0.981-0.271-1.558-1.285-1.285-2.267c1.102-3.985,2.468-7.882,4.064-11.584
		c0.403-0.936,1.485-1.368,2.423-0.963c0.935,0.404,1.365,1.489,0.963,2.423c-1.53,3.548-2.841,7.284-3.899,11.106
		C80.447,91.339,79.705,91.874,78.897,91.874z M181.389,78.959c-0.909,0-1.702-0.671-1.824-1.599
		c-0.509-3.792-1.416-7.607-2.699-11.342c-0.331-0.962,0.18-2.011,1.142-2.342c0.967-0.324,2.014,0.181,2.343,1.145
		c1.362,3.962,2.328,8.017,2.868,12.05c0.136,1.009-0.573,1.937-1.582,2.071C181.552,78.955,181.47,78.959,181.389,78.959z
		 M88.419,69.854c-0.33,0-0.663-0.087-0.963-0.272c-0.868-0.533-1.139-1.668-0.606-2.535c2.106-3.431,4.508-6.793,7.139-9.994
		c0.644-0.789,1.809-0.898,2.594-0.254c0.785,0.646,0.9,1.808,0.253,2.595c-2.523,3.07-4.826,6.294-6.844,9.583
		C89.643,69.543,89.038,69.854,88.419,69.854z M173.634,56.309c-0.638,0-1.258-0.332-1.6-0.923c-1.99-3.456-4.282-6.627-6.814-9.427
		c-0.682-0.755-0.623-1.92,0.133-2.603c0.756-0.68,1.92-0.626,2.604,0.13c2.705,2.993,5.152,6.378,7.274,10.058
		c0.507,0.883,0.204,2.01-0.68,2.518C174.264,56.229,173.946,56.309,173.634,56.309z M103.604,51.256
		c-0.484,0-0.97-0.189-1.329-0.567c-0.706-0.734-0.682-1.902,0.055-2.606c2.736-2.623,5.741-5.247,9.187-8.023l0.281-0.226
		c0.792-0.638,1.953-0.518,2.592,0.276c0.641,0.792,0.518,1.952-0.273,2.592l-0.302,0.241c-3.349,2.695-6.274,5.251-8.936,7.801
		C104.523,51.086,104.062,51.256,103.604,51.256z M157.485,38.735c-0.344,0-0.688-0.096-0.998-0.296
		c-3.327-2.151-6.825-3.692-10.406-4.578c-0.986-0.245-1.589-1.244-1.344-2.231c0.242-0.991,1.26-1.59,2.232-1.347
		c3.973,0.984,7.852,2.688,11.52,5.063c0.854,0.553,1.099,1.693,0.547,2.549C158.684,38.438,158.091,38.735,157.485,38.735z
		 M123.106,36.677c-0.69,0-1.351-0.387-1.668-1.051c-0.437-0.92-0.046-2.02,0.874-2.457c3.977-1.891,8.03-3.108,12.04-3.617
		c1.032-0.111,1.934,0.589,2.062,1.597c0.127,1.011-0.588,1.932-1.597,2.061c-3.623,0.458-7.298,1.564-10.922,3.288
		C123.64,36.62,123.37,36.677,123.106,36.677z"/>
	<path clip-path="url(#SVGID_2_)" d="M8.014,184.236c-1.76,0-3.271-0.479-4.446-1.462c-3.171-2.654-4.729-9.42,5.862-26.566
		c16.314-26.41,30.669-59.175,37.465-85.506c0.991-3.84,1.908-8.453,2.88-13.335c5.471-27.495,13.737-69.045,55.792-79.738
		c7.844-1.994,11.697-3.479,13.565-4.393c-9.067-0.757-42.232,5.52-54.999,24.415C49.833,18.813,46.959,37.545,44.649,52.597
		c-0.942,6.139-1.755,11.441-3.232,15.873c-5.013,15.036-22.277,57.71-29.764,67.694c-1.683,2.243-4.166,3.238-6.987,2.805
		c-6.83-1.051-14.295-9.938-16.98-17.58c-1.997-5.68-1.474-10.574,1.474-13.79c2.252-2.457,5.085-4.951,8.084-7.59
		c9.099-8.008,20.423-17.971,23.41-34.097c3.695-19.952,8.294-44.783-1.358-59.262l3.067-2.045
		c10.482,15.725,5.732,41.37,1.915,61.979C21.059,83.962,9.205,94.395-0.32,102.775c-2.923,2.573-5.684,5.003-7.804,7.313
		c-2.675,2.919-1.596,7.567-0.712,10.078c2.527,7.19,9.231,14.414,14.065,15.157c1.491,0.242,2.602-0.204,3.475-1.372
		c7.147-9.527,24.397-52.193,29.217-66.648c1.377-4.134,2.169-9.292,3.086-15.266c2.24-14.604,5.308-34.603,20.073-56.452
		c14.411-21.326,53.457-27.913,60.972-25.488c2.138,0.694,2.325,2.136,2.306,2.724c-0.043,1.352-0.124,3.867-17.882,8.381
		C66.674-8.679,58.998,29.91,53.391,58.086c-0.981,4.935-1.909,9.597-2.926,13.538c-6.882,26.666-21.404,59.818-37.897,86.522
		c-8.221,13.307-8.711,20.062-6.632,21.804c2.091,1.752,8.457-0.085,16.123-6.942c13.801-12.351,28.859-56.166,42.144-94.825
		c1.357-3.951,2.704-7.869,4.036-11.718c7.805-22.545,26.473-37.042,40.76-45.233c15.398-8.828,28.771-12.329,29.331-12.472
		l0.922,3.569c-0.532,0.138-53.286,14.193-67.528,55.341c-1.332,3.849-2.678,7.762-4.035,11.712
		c-14.087,40.993-28.655,83.382-43.172,96.373C18.364,181.257,12.411,184.236,8.014,184.236z"/>
</g>
</svg>
