<svg version="1.1" id="wood-pattern" class="pattern-img image-on" xmlns="http://www.w3.org/2000/svg" xmlns:xlink="http://www.w3.org/1999/xlink" x="0px" y="0px"
	 width="176px" height="176px" viewBox="0 0 176 176" enable-background="new 0 0 176 176" xml:space="preserve">
<g>
	<defs>
		<circle id="SVGID_1_" cx="88.408" cy="87.957" r="84.784" stroke-width="5" stroke="#eee"/>
	</defs>
	<clipPath id="SVGID_2_">
		<use xlink:href="#SVGID_1_"  overflow="visible"/>
	</clipPath>
	<!--<animate-->
             <!--id="clipping"-->
             <!--xlink:href="#SVGID_2_"-->
             <!--begin="wood-pattern.click"-->
             <!--attributeName="r"-->
             <!--dur="2s"-->
             <!--repeatCount="indefinite"-->
             <!--keyTimes="0;-->
                       <!--.25;-->
                       <!--.5;-->
                       <!--.75;-->
                       <!--1"-->
             <!--calcMode="spline"-->
             <!--keySplines="0,0,1,1;-->
                         <!--.42,0,.58,1;-->
                         <!--.42,0,1,1;-->
                         <!--0,0,.58,1"-->
             <!--values="84.784;-->
					<!--60;-->
					<!--90;-->
					<!--20;-->
					<!--84.784"-->
	<!--/>-->

	<path clip-path="url(#SVGID_2_)" id="jar-1" d="M124.816,148.057L124.816,148.057c-10.918,0-14.607-25.896-15.106-35.873
		c-0.935-18.623,8.174-27.162,13.685-30.595c6.08-3.789,12.396-2.577,16.039,2.8c3.18,4.7,3.698,11.585,1.314,17.539
		c-1.793,4.48-1.253,9.191-0.68,14.18c0.925,8.067,1.971,17.209-6.916,27.143C130.296,146.439,127.494,148.057,124.816,148.057z
		 M130.498,81.797c-1.85,0-3.803,0.631-5.803,1.877c-5.055,3.146-13.401,11.02-12.533,28.387c0.68,13.523,5.17,33.539,12.654,33.539
		l0,0c1.947,0,4.136-1.344,6.502-3.988c8.154-9.112,7.215-17.303,6.308-25.225c-0.606-5.304-1.181-10.313,0.842-15.373
		c2.087-5.219,1.666-11.205-1.069-15.248C135.663,83.208,133.215,81.797,130.498,81.797z"/>
	<!--<animate-->
             <!--id="shape-anim1"-->
             <!--xlink:href="#jar-1"-->
             <!--begin="wood-pattern.mouseover"-->
             <!--attributeName="d"-->
             <!--dur="2s"-->
             <!--repeatCount=""-->
             <!--keyTimes="0;-->
                       <!--.25;-->
                       <!--.5;-->
                       <!--.75;-->
                       <!--1"-->
             <!--calcMode="spline"-->
             <!--keySplines="0,0,1,1;-->
                         <!--.42,0,.58,1;-->
                         <!--.42,0,1,1;-->
                         <!--0,0,.58,1"-->
             <!--values="-->
             <!--M124.816,148.057L124.816,148.057c-10.918,0-14.607-25.896-15.106-35.873-->
		<!--c-0.935-18.623,8.174-27.162,13.685-30.595c6.08-3.789,12.396-2.577,16.039,2.8c3.18,4.7,3.698,11.585,1.314,17.539-->
		<!--c-1.793,4.48-1.253,9.191-0.68,14.18c0.925,8.067,1.971,17.209-6.916,27.143C130.296,146.439,127.494,148.057,124.816,148.057z-->
		 <!--M130.498,81.797c-1.85,0-3.803,0.631-5.803,1.877c-5.055,3.146-13.401,11.02-12.533,28.387c0.68,13.523,5.17,33.539,12.654,33.539-->
		<!--l0,0c1.947,0,4.136-1.344,6.502-3.988c8.154-9.112,7.215-17.303,6.308-25.225c-0.606-5.304-1.181-10.313,0.842-15.373-->
		<!--c2.087-5.219,1.666-11.205-1.069-15.248C135.663,83.208,133.215,81.797,130.498,81.797z;-->

		<!--M113.645,50.817L113.645,50.817c-13.504,0-18.068-32.031-18.686-44.373-->
		<!--C93.803-16.592,105.07-27.154,111.887-31.4c7.52-4.687,15.334-3.187,19.84,3.464c3.932,5.813,4.574,14.331,1.625,21.694-->
		<!--c-2.217,5.542-1.549,11.37-0.84,17.54c1.143,9.979,2.438,21.287-8.555,33.574C120.424,48.817,116.957,50.817,113.645,50.817z-->
		 <!--M120.674-31.143c-2.289,0-4.705,0.781-7.178,2.322C107.242-24.93,96.918-15.19,97.992,6.292-->
		<!--c0.84,16.728,6.395,41.486,15.652,41.486l0,0c2.408,0,5.117-1.662,8.043-4.934c10.086-11.271,8.924-21.402,7.803-31.202-->
		<!--c-0.75-6.561-1.461-12.756,1.041-19.016c2.582-6.456,2.061-13.86-1.322-18.861C127.063-29.397,124.033-31.143,120.674-31.143z;-->

		<!--M168.432,153.69L168.432,153.69c-13.504,0-18.068-32.031-18.686-44.373-->
		<!--c-1.156-23.036,10.111-33.598,16.928-37.845c7.52-4.687,15.334-3.187,19.84,3.464c3.932,5.813,4.574,14.331,1.625,21.694-->
		<!--c-2.217,5.542-1.549,11.37-0.84,17.54c1.143,9.979,2.438,21.287-8.555,33.574C175.211,151.69,171.744,153.69,168.432,153.69z-->
		 <!--M175.461,71.73c-2.289,0-4.705,0.781-7.178,2.322c-6.254,3.892-16.578,13.631-15.504,35.113-->
		<!--c0.84,16.728,6.395,41.486,15.652,41.486l0,0c2.408,0,5.117-1.662,8.043-4.934c10.086-11.271,8.924-21.402,7.803-31.201-->
		<!--c-0.75-6.561-1.461-12.756,1.041-19.017c2.582-6.455,2.061-13.86-1.322-18.86C181.85,73.476,178.82,71.73,175.461,71.73z;-->

		<!--M102.395,176.708L102.395,176.708c-13.162-3.02-10.449-35.261-8.292-47.428-->
		<!--c4.024-22.712,17.368-30.486,24.961-33.102c8.378-2.888,15.659,0.322,18.563,7.812c2.532,6.546,1.254,14.991-3.267,21.509-->
		<!--c-3.4,4.906-4.052,10.736-4.74,16.908c-1.118,9.981-2.384,21.293-15.846,30.812C109.449,176.274,105.623,177.448,102.395,176.708z-->
		 <!--M127.571,98.394c-2.231-0.512-4.761-0.291-7.516,0.658c-6.966,2.396-19.206,9.579-22.962,30.758-->
		<!--c-2.922,16.492-3.044,41.866,5.979,43.937l0,0c2.348,0.538,5.359-0.477,8.942-3.011c12.352-8.731,13.483-18.865,14.582-28.667-->
		<!--c0.735-6.562,1.428-12.759,5.267-18.302c3.96-5.715,5.107-13.049,2.928-18.679C133.407,101.523,130.846,99.146,127.571,98.394z;-->

		<!--M124.816,148.057L124.816,148.057c-10.918,0-14.607-25.896-15.106-35.873-->
		<!--c-0.935-18.623,8.174-27.162,13.685-30.595c6.08-3.789,12.396-2.577,16.039,2.8c3.18,4.7,3.698,11.585,1.314,17.539-->
		<!--c-1.793,4.48-1.253,9.191-0.68,14.18c0.925,8.067,1.971,17.209-6.916,27.143C130.296,146.439,127.494,148.057,124.816,148.057z-->
		 <!--M130.498,81.797c-1.85,0-3.803,0.631-5.803,1.877c-5.055,3.146-13.401,11.02-12.533,28.387c0.68,13.523,5.17,33.539,12.654,33.539-->
		<!--l0,0c1.947,0,4.136-1.344,6.502-3.988c8.154-9.112,7.215-17.303,6.308-25.225c-0.606-5.304-1.181-10.313,0.842-15.373-->
		<!--c2.087-5.219,1.666-11.205-1.069-15.248C135.663,83.208,133.215,81.797,130.498,81.797z;"/>-->
<!--<animate-->
             <!--id="color-anim1"-->
             <!--xlink:href="#jar-1"-->
             <!--begin="wood-pattern.click"-->
             <!--attributeName="stroke"-->
             <!--dur="2s"-->
             <!--repeatCount=""-->
             <!--keyTimes="0;-->
                       <!--.25;-->
                       <!--.5;-->
                       <!--.75;-->
                       <!--1"-->
             <!--calcMode="spline"-->
             <!--keySplines="0,0,1,1;-->
                         <!--.42,0,.58,1;-->
                         <!--.42,0,1,1;-->
                         <!--0,0,.58,1"-->
             <!--values="red;-->
                     <!--blue;-->
                     <!--purple;-->
                     <!--yellow;-->
                     <!--red;"/>-->

	<path clip-path="url(#SVGID_2_)" d="M107.413,191.307L107.413,191.307c-4.427,0-7.918-1.443-10.38-4.285
		c-7.245-8.365-4.45-27.765-1.747-46.522c1.53-10.636,3.116-21.634,2.702-29.888c-1.635-32.612,14.254-47.524,23.869-53.51
		c10.357-6.449,21.018-4.438,27.203,4.702c5.484,8.096,6.364,19.979,2.244,30.275c-2.482,6.214-1.311,15.805,0.047,26.908
		c3.274,26.791,7.351,60.136-36.836,71.328C111.922,190.973,109.532,191.307,107.413,191.307z M133.979,55.705
		c-3.471,0-7.107,1.171-10.818,3.481c-9.158,5.701-24.29,19.946-22.717,51.3c0.426,8.492-1.105,19.113-2.727,30.361
		c-2.621,18.213-5.335,37.049,1.176,44.563c3.027,3.5,7.967,4.313,15.021,2.523c42.088-10.664,38.157-42.815,35.001-68.652
		c-1.398-11.438-2.605-21.319,0.111-28.116c3.824-9.56,3.041-20.546-1.996-27.987C143.766,58.359,139.13,55.705,133.979,55.705z"/>
	<path clip-path="url(#SVGID_2_)" d="M93.857,253.771c-0.901,0-1.69-0.662-1.821-1.582c-0.144-1.008,0.557-1.941,1.563-2.086
		c1.693-0.242,3.496-0.605,5.362-1.078c2.079-0.526,4.095-1.084,6.058-1.67c0.989-0.301,2.008,0.266,2.295,1.24
		c0.291,0.977-0.265,2.002-1.238,2.291c-2.012,0.6-4.079,1.174-6.206,1.709c-1.993,0.508-3.927,0.896-5.748,1.154
		C94.033,253.768,93.943,253.771,93.857,253.771z M81.925,253.329c-0.165,0-0.333-0.021-0.498-0.067
		c-4.404-1.232-7.98-3.755-10.63-7.498c-0.589-0.828-0.392-1.979,0.438-2.568c0.832-0.586,1.982-0.391,2.569,0.438
		c2.181,3.078,4.999,5.063,8.617,6.076c0.98,0.276,1.553,1.296,1.278,2.274C83.47,252.797,82.73,253.329,81.925,253.329z
		 M116.891,247.035c-0.729,0-1.423-0.438-1.711-1.159c-0.38-0.942,0.082-2.017,1.027-2.396c3.74-1.498,7.342-3.172,10.697-4.965
		c0.898-0.483,2.015-0.143,2.494,0.754c0.479,0.897,0.143,2.015-0.756,2.494c-3.476,1.859-7.199,3.592-11.068,5.139
		C117.352,246.992,117.118,247.035,116.891,247.035z M137.971,235.656c-0.574,0-1.141-0.268-1.5-0.768
		c-0.595-0.828-0.404-1.979,0.422-2.574c3.228-2.316,6.25-4.846,8.989-7.514c0.729-0.714,1.896-0.689,2.606,0.033
		c0.71,0.73,0.695,1.896-0.033,2.605c-2.869,2.797-6.036,5.444-9.413,7.869C138.716,235.544,138.341,235.656,137.971,235.656z
		 M67.836,235.454c-0.853,0-1.62-0.597-1.801-1.466c-0.752-3.592-1.18-7.61-1.311-12.287c-0.029-1.016,0.772-1.864,1.79-1.895
		c0.989,0.036,1.866,0.772,1.894,1.793c0.124,4.393,0.539,8.307,1.234,11.633c0.209,0.998-0.429,1.976-1.425,2.184
		C68.089,235.443,67.962,235.454,67.836,235.454z M155.068,218.938c-0.381,0-0.769-0.115-1.098-0.365
		c-0.818-0.605-0.986-1.76-0.379-2.575c2.297-3.09,4.395-6.429,6.234-9.925c0.477-0.896,1.592-1.244,2.49-0.772
		c0.9,0.476,1.246,1.591,0.772,2.49c-1.929,3.664-4.129,7.165-6.541,10.405C156.188,218.684,155.633,218.938,155.068,218.938z
		 M66.827,211.461c-0.037,0-0.076,0-0.114-0.002c-1.017-0.063-1.789-0.938-1.727-1.954c0.225-3.667,0.574-7.623,1.066-12.09
		c0.112-1.013,0.997-1.771,2.035-1.628c1.012,0.109,1.741,1.021,1.63,2.031c-0.487,4.408-0.832,8.305-1.053,11.91
		C68.605,210.707,67.794,211.461,66.827,211.461z M166.293,197.771c-0.209,0-0.42-0.037-0.626-0.11
		c-0.958-0.347-1.452-1.401-1.106-2.358c1.287-3.563,2.412-7.381,3.349-11.335c0.235-0.995,1.237-1.604,2.215-1.37
		c0.991,0.231,1.604,1.228,1.371,2.215c-0.966,4.094-2.134,8.045-3.47,11.744C167.755,197.307,167.047,197.771,166.293,197.771z
		 M69.378,187.508c-0.083,0-0.167-0.004-0.251-0.016c-1.008-0.137-1.714-1.066-1.578-2.072c0.539-3.961,1.112-7.956,1.687-11.945
		c0.144-1.004,1.075-1.728,2.087-1.56c1.008,0.144,1.707,1.08,1.561,2.086c-0.573,3.976-1.146,7.963-1.683,11.913
		C71.076,186.839,70.285,187.508,69.378,187.508z M171.934,174.4c-0.09,0-0.178-0.006-0.267-0.021
		c-1.009-0.146-1.707-1.083-1.562-2.089c0.537-3.707,0.969-7.585,1.315-11.855c0.081-1.016,0.994-1.793,1.983-1.688
		c1.017,0.083,1.771,0.971,1.688,1.985c-0.351,4.352-0.79,8.304-1.34,12.09C173.623,173.74,172.833,174.4,171.934,174.4z
		 M72.752,163.652c-0.083,0-0.167-0.004-0.252-0.018c-1.01-0.14-1.715-1.066-1.577-2.074c0.552-4.043,1.064-8.025,1.496-11.906
		c0.113-1.012,1.017-1.77,2.036-1.627c1.012,0.111,1.74,1.022,1.628,2.035c-0.436,3.91-0.95,7.928-1.507,11.996
		C74.45,162.984,73.66,163.652,72.752,163.652z M173.977,150.395c-0.029,0-0.057,0-0.082-0.002c-1.017-0.043-1.806-0.902-1.763-1.92
		c0.156-3.689,0.267-7.316,0.375-10.847l0.036-1.177c0.031-1.018,0.902-1.749,1.9-1.787c1.018,0.031,1.815,0.885,1.785,1.9
		l-0.037,1.176c-0.108,3.546-0.221,7.186-0.379,10.893C175.771,149.619,174.956,150.395,173.977,150.395z M75.306,139.703
		c-0.036,0-0.073,0-0.11-0.002c-1.017-0.063-1.792-0.936-1.73-1.949c0.165-2.798,0.249-5.441,0.249-7.854
		c0-1.367-0.026-2.698-0.084-4c-0.042-1.015,0.746-1.875,1.762-1.92c1.056-0.104,1.878,0.746,1.923,1.764
		c0.057,1.346,0.086,2.734,0.086,4.156c0,2.483-0.086,5.201-0.257,8.067C77.087,138.945,76.274,139.703,75.306,139.703z
		 M174.872,126.3c-0.036,0-0.071,0-0.104-0.003c-1.018-0.059-1.795-0.93-1.736-1.943c0.273-4.854,0.635-8.717,1.137-12.16
		c0.146-1.008,1.076-1.705,2.091-1.559c1.009,0.148,1.703,1.082,1.558,2.092c-0.486,3.332-0.838,7.092-1.104,11.834
		C176.656,125.54,175.843,126.3,174.872,126.3z M75.361,115.626c-0.023,0-0.047,0-0.07,0c-1.018-0.038-1.812-0.894-1.773-1.91
		c0.156-4.166,0.524-8.264,1.096-12.178c0.148-1.007,1.096-1.698,2.091-1.558c1.008,0.147,1.705,1.084,1.557,2.09
		c-0.553,3.785-0.909,7.748-1.061,11.781C77.165,114.848,76.348,115.626,75.361,115.626z M178.854,102.561
		c-0.211,0-0.428-0.039-0.633-0.119c-0.943-0.375-1.438-1.366-1.068-2.313c0.011-0.029,0.082-0.204,0.097-0.232
		c1.319-3.307,2.198-7.013,2.577-10.944c0.097-1.015,0.998-1.774,2.012-1.657c1.014,0.097,1.754,0.997,1.655,2.01
		c-0.41,4.28-1.372,8.328-2.854,12.032C180.346,102.074,179.611,102.561,178.854,102.561z M78.897,91.874
		c-0.164,0-0.328-0.021-0.492-0.067c-0.981-0.271-1.558-1.285-1.285-2.267c1.102-3.985,2.468-7.882,4.064-11.584
		c0.403-0.936,1.485-1.368,2.423-0.963c0.935,0.404,1.365,1.489,0.963,2.423c-1.53,3.548-2.841,7.284-3.899,11.105
		C80.447,91.339,79.705,91.874,78.897,91.874z M181.389,78.959c-0.908,0-1.701-0.671-1.824-1.599
		c-0.508-3.792-1.416-7.607-2.698-11.342c-0.331-0.962,0.18-2.011,1.142-2.342c0.967-0.324,2.014,0.181,2.344,1.145
		c1.361,3.962,2.328,8.017,2.867,12.05c0.137,1.009-0.572,1.937-1.582,2.071C181.553,78.955,181.471,78.959,181.389,78.959z
		 M88.419,69.854c-0.33,0-0.663-0.087-0.963-0.272c-0.868-0.533-1.139-1.668-0.606-2.535c2.106-3.431,4.507-6.793,7.138-9.994
		c0.645-0.789,1.81-0.898,2.595-0.254c0.785,0.646,0.899,1.808,0.253,2.595c-2.523,3.07-4.826,6.294-6.844,9.583
		C89.643,69.543,89.038,69.854,88.419,69.854z M173.634,56.309c-0.638,0-1.258-0.332-1.6-0.923c-1.99-3.456-4.282-6.627-6.813-9.427
		c-0.683-0.755-0.623-1.92,0.133-2.603c0.756-0.68,1.92-0.626,2.604,0.13c2.705,2.993,5.152,6.378,7.273,10.058
		c0.508,0.883,0.205,2.01-0.68,2.518C174.264,56.229,173.945,56.309,173.634,56.309z M103.604,51.256
		c-0.483,0-0.97-0.189-1.328-0.567c-0.707-0.734-0.683-1.902,0.055-2.606c2.736-2.623,5.74-5.247,9.188-8.023l0.28-0.226
		c0.792-0.638,1.953-0.518,2.593,0.276c0.641,0.792,0.518,1.952-0.273,2.592l-0.303,0.241c-3.349,2.695-6.273,5.251-8.936,7.801
		C104.523,51.086,104.063,51.256,103.604,51.256z M157.484,38.735c-0.344,0-0.688-0.096-0.998-0.296
		c-3.326-2.151-6.824-3.692-10.405-4.578c-0.985-0.245-1.589-1.244-1.345-2.231c0.242-0.991,1.261-1.59,2.232-1.347
		c3.973,0.984,7.852,2.688,11.52,5.063c0.854,0.553,1.1,1.693,0.548,2.549C158.684,38.438,158.091,38.735,157.484,38.735z
		 M123.105,36.677c-0.689,0-1.351-0.387-1.668-1.051c-0.437-0.92-0.045-2.02,0.875-2.457c3.977-1.891,8.029-3.108,12.039-3.617
		c1.032-0.111,1.935,0.589,2.063,1.597c0.127,1.011-0.588,1.932-1.598,2.061c-3.623,0.458-7.297,1.564-10.922,3.288
		C123.641,36.62,123.37,36.677,123.105,36.677z"/>
	<path clip-path="url(#SVGID_2_)" d="M8.014,184.236c-1.76,0-3.271-0.479-4.446-1.463c-3.171-2.653-4.729-9.42,5.862-26.565
		c16.314-26.41,30.669-59.175,37.465-85.506c0.991-3.84,1.908-8.453,2.88-13.335c5.471-27.495,13.737-69.045,55.792-79.738
		c7.845-1.994,11.697-3.479,13.565-4.393c-9.067-0.757-42.232,5.52-54.999,24.415c-14.3,21.162-17.174,39.894-19.484,54.946
		c-0.942,6.139-1.755,11.441-3.232,15.873c-5.013,15.036-22.277,57.709-29.764,67.694c-1.683,2.242-4.166,3.238-6.987,2.805
		c-6.83-1.051-14.295-9.938-16.98-17.58c-1.997-5.68-1.474-10.574,1.474-13.789c2.252-2.457,5.085-4.951,8.084-7.591
		c9.099-8.008,20.423-17.971,23.41-34.097c3.695-19.952,8.294-44.783-1.358-59.262l3.067-2.045
		c10.482,15.725,5.732,41.37,1.915,61.979C21.059,83.962,9.205,94.395-0.32,102.775c-2.923,2.572-5.684,5.002-7.804,7.313
		c-2.675,2.919-1.596,7.566-0.712,10.078c2.527,7.189,9.231,14.414,14.065,15.156c1.491,0.242,2.602-0.203,3.475-1.371
		c7.147-9.527,24.397-52.193,29.217-66.648c1.377-4.134,2.169-9.292,3.086-15.266c2.24-14.604,5.308-34.603,20.073-56.452
		c14.411-21.326,53.457-27.913,60.973-25.488c2.137,0.694,2.324,2.136,2.305,2.724c-0.043,1.352-0.123,3.867-17.881,8.381
		C66.674-8.679,58.998,29.91,53.391,58.086c-0.981,4.935-1.909,9.597-2.926,13.538c-6.882,26.666-21.404,59.817-37.897,86.522
		c-8.221,13.307-8.711,20.062-6.632,21.804c2.091,1.752,8.457-0.085,16.123-6.942c13.801-12.352,28.859-56.166,42.144-94.825
		c1.357-3.951,2.704-7.869,4.036-11.718c7.805-22.545,26.473-37.042,40.76-45.233C124.396,12.404,137.77,8.903,138.33,8.76
		l0.922,3.569c-0.531,0.138-53.286,14.193-67.528,55.341c-1.332,3.849-2.678,7.762-4.035,11.712
		c-14.087,40.993-28.655,83.382-43.172,96.373C18.364,181.257,12.411,184.236,8.014,184.236z"/>
</g>
<circle id="contour1" cx="88.408" cy="87.957" r="84.784" stroke="black" stroke-width="4" fill="none"/>
	<animate
             id="cont"
             xlink:href="#contour"
             begin="wood-pattern.click"
             attributeName="r"
             dur="2s"
             repeatCount="indefinite"
             keyTimes="0;
                       .25;
                       .5;
                       .75;
                       1"
             calcMode="spline"
             keySplines="0,0,1,1;
                         .42,0,.58,1;
                         .42,0,1,1;
                         0,0,.58,1"
             values="84.784;
					60;
					90;
					20;
					84.784"
	/>
</svg>
