
<svg version="1.1" id="Layer_1" xmlns="http://www.w3.org/2000/svg" xmlns:xlink="http://www.w3.org/1999/xlink" x="0px" y="0px"
	 width="176px" height="176px" viewBox="0 0 176 176" enable-background="new 0 0 176 176" xml:space="preserve">
<g>
	<defs>
		<circle id="SVGID_1_" cx="88.408" cy="87.957" r="84.784"/>
	</defs>
	<clipPath id="SVGID_2_">
		<use xlink:href="#SVGID_1_"  overflow="visible"/>
	</clipPath>
	<path clip-path="url(#SVGID_2_)" d="M113.645,50.817L113.645,50.817c-13.504,0-18.068-32.031-18.686-44.373
		C93.803-16.592,105.07-27.154,111.887-31.4c7.52-4.687,15.334-3.187,19.84,3.464c3.932,5.813,4.574,14.331,1.625,21.694
		c-2.217,5.542-1.549,11.37-0.84,17.54c1.143,9.979,2.438,21.287-8.555,33.574C120.424,48.817,116.957,50.817,113.645,50.817z
		 M120.674-31.143c-2.289,0-4.705,0.781-7.178,2.322C107.242-24.93,96.918-15.19,97.992,6.292
		c0.84,16.728,6.395,41.486,15.652,41.486l0,0c2.408,0,5.117-1.662,8.043-4.934c10.086-11.271,8.924-21.402,7.803-31.202
		c-0.75-6.561-1.461-12.756,1.041-19.016c2.582-6.456,2.061-13.86-1.322-18.861C127.063-29.397,124.033-31.143,120.674-31.143z"/>
	<path clip-path="url(#SVGID_2_)" d="M92.117,104.316L92.117,104.316c-5.475,0-9.793-1.785-12.839-5.301
		c-8.962-10.348-5.505-34.344-2.161-57.547c1.893-13.155,3.854-26.76,3.342-36.969c-2.022-40.34,17.632-58.786,29.525-66.19
		c12.813-7.978,25.998-5.49,33.65,5.816c6.783,10.014,7.871,24.713,2.775,37.449c-3.07,7.687-1.621,19.55,0.059,33.285
		c4.049,33.139,9.092,74.385-45.564,88.23C97.695,103.903,94.738,104.316,92.117,104.316z M124.979-63.417
		c-4.293,0-8.791,1.448-13.383,4.306C100.268-52.06,81.55-34.439,83.497,4.345c0.526,10.504-1.368,23.643-3.373,37.556
		c-3.242,22.528-6.599,45.828,1.454,55.122c3.745,4.329,9.855,5.335,18.58,3.121c52.061-13.19,47.199-52.961,43.295-84.92
		c-1.73-14.149-3.223-26.371,0.137-34.779c4.73-11.825,3.762-25.415-2.469-34.619C137.084-60.135,131.35-63.417,124.979-63.417z"/>
	<path clip-path="url(#SVGID_2_)" d="M75.35,181.583c-1.115,0-2.091-0.819-2.253-1.957c-0.178-1.246,0.688-2.401,1.934-2.58
		c2.095-0.3,4.325-0.749,6.633-1.334c2.572-0.65,5.065-1.341,7.493-2.065c1.224-0.372,2.483,0.329,2.839,1.534
		c0.359,1.208-0.328,2.477-1.532,2.834c-2.488,0.742-5.045,1.452-7.676,2.114c-2.466,0.628-4.857,1.108-7.11,1.428
		C75.567,181.578,75.456,181.583,75.35,181.583z M60.59,181.036c-0.204,0-0.412-0.025-0.616-0.084
		c-5.448-1.524-9.872-4.645-13.149-9.274c-0.728-1.024-0.485-2.447,0.542-3.177c1.029-0.725,2.452-0.483,3.178,0.542
		c2.697,3.808,6.184,6.264,10.658,7.516c1.212,0.343,1.921,1.604,1.582,2.813C62.501,180.378,61.585,181.036,60.59,181.036z
		 M103.842,173.25c-0.902,0-1.76-0.541-2.117-1.434c-0.471-1.166,0.102-2.494,1.271-2.963c4.625-1.854,9.08-3.924,13.232-6.142
		c1.111-0.598,2.49-0.176,3.084,0.933c0.594,1.11,0.176,2.492-0.936,3.085c-4.299,2.3-8.904,4.443-13.689,6.356
		C104.412,173.197,104.123,173.25,103.842,173.25z M129.916,159.175c-0.709,0-1.41-0.331-1.855-0.949
		c-0.734-1.024-0.5-2.448,0.521-3.185c3.992-2.865,7.732-5.993,11.119-9.294c0.904-0.883,2.346-0.853,3.225,0.041
		c0.879,0.904,0.861,2.346-0.041,3.224c-3.549,3.459-7.467,6.734-11.643,9.733C130.838,159.036,130.375,159.175,129.916,159.175z
		 M43.162,158.925c-1.055,0-2.004-0.738-2.227-1.813c-0.93-4.443-1.46-9.414-1.622-15.199c-0.036-1.256,0.955-2.306,2.214-2.344
		c1.223,0.045,2.308,0.956,2.343,2.219c0.153,5.433,0.667,10.274,1.526,14.389c0.258,1.234-0.531,2.444-1.763,2.701
		C43.475,158.912,43.318,158.925,43.162,158.925z M151.066,138.495c-0.473,0-0.951-0.143-1.359-0.452
		c-1.012-0.749-1.219-2.177-0.469-3.186c2.842-3.822,5.438-7.952,7.713-12.276c0.59-1.109,1.969-1.539,3.08-0.956
		c1.113,0.589,1.541,1.968,0.955,3.081c-2.385,4.532-5.107,8.862-8.09,12.87C152.449,138.181,151.764,138.495,151.066,138.495z
		 M41.915,129.246c-0.046,0-0.094,0-0.142-0.002c-1.258-0.077-2.213-1.16-2.136-2.417c0.279-4.536,0.71-9.43,1.319-14.955
		c0.138-1.253,1.232-2.189,2.517-2.014c1.252,0.136,2.154,1.264,2.016,2.513c-0.602,5.453-1.028,10.272-1.302,14.732
		C44.114,128.313,43.11,129.246,41.915,129.246z M164.949,112.313c-0.258,0-0.52-0.046-0.773-0.137
		c-1.186-0.429-1.797-1.733-1.369-2.917c1.592-4.407,2.984-9.13,4.143-14.021c0.291-1.23,1.531-1.984,2.74-1.694
		c1.225,0.286,1.984,1.519,1.695,2.739c-1.195,5.063-2.639,9.951-4.291,14.527C166.758,111.738,165.883,112.313,164.949,112.313z
		 M45.07,99.617c-0.103,0-0.207-0.005-0.311-0.02c-1.247-0.169-2.12-1.318-1.952-2.563c0.667-4.9,1.376-9.842,2.087-14.776
		c0.178-1.242,1.33-2.137,2.582-1.929c1.247,0.177,2.111,1.336,1.931,2.58c-0.708,4.917-1.417,9.85-2.081,14.735
		C47.17,98.79,46.192,99.617,45.07,99.617z M171.928,83.404c-0.111,0-0.221-0.008-0.33-0.025c-1.248-0.181-2.111-1.34-1.932-2.584
		c0.664-4.586,1.197-9.383,1.627-14.665c0.1-1.256,1.23-2.218,2.453-2.089c1.258,0.104,2.191,1.201,2.09,2.456
		c-0.436,5.383-0.979,10.271-1.658,14.955C174.018,82.587,173.039,83.404,171.928,83.404z M49.243,70.109
		c-0.103,0-0.207-0.005-0.312-0.022c-1.25-0.173-2.121-1.318-1.951-2.565c0.683-5.001,1.316-9.927,1.851-14.728
		c0.14-1.251,1.258-2.188,2.519-2.013c1.251,0.138,2.152,1.265,2.014,2.518c-0.54,4.837-1.175,9.807-1.864,14.839
		C51.344,69.283,50.367,70.109,49.243,70.109z M174.455,53.71c-0.037,0-0.07,0-0.102-0.003c-1.258-0.053-2.234-1.116-2.182-2.375
		c0.193-4.563,0.33-9.05,0.465-13.417l0.045-1.455c0.037-1.259,1.115-2.164,2.35-2.211c1.26,0.039,2.246,1.095,2.209,2.351
		l-0.047,1.455c-0.133,4.386-0.271,8.888-0.469,13.474C176.674,52.75,175.666,53.71,174.455,53.71z M52.403,40.484
		c-0.045,0-0.091,0-0.137-0.002c-1.257-0.077-2.217-1.157-2.14-2.411c0.204-3.461,0.308-6.73,0.308-9.715
		c0-1.69-0.032-3.337-0.104-4.947c-0.052-1.256,0.923-2.319,2.18-2.375c1.306-0.128,2.323,0.923,2.378,2.182
		c0.071,1.664,0.106,3.382,0.106,5.141c0,3.072-0.106,6.434-0.318,9.979C54.605,39.547,53.6,40.484,52.403,40.484z M175.563,23.905
		c-0.045,0-0.088,0-0.129-0.004c-1.26-0.072-2.221-1.149-2.148-2.403c0.338-6.004,0.785-10.783,1.406-15.042
		c0.182-1.247,1.33-2.109,2.586-1.928c1.248,0.184,2.107,1.338,1.926,2.587c-0.602,4.122-1.035,8.772-1.363,14.638
		C177.77,22.966,176.762,23.905,175.563,23.905z M52.47,10.702c-0.028,0-0.058,0-0.086,0c-1.259-0.047-2.241-1.105-2.193-2.363
		c0.193-5.153,0.648-10.222,1.355-15.063c0.184-1.245,1.356-2.101,2.587-1.927c1.247,0.183,2.109,1.341,1.926,2.585
		c-0.684,4.682-1.125,9.584-1.313,14.573C54.702,9.739,53.691,10.702,52.47,10.702z M180.486-5.459c-0.26,0-0.529-0.048-0.781-0.147
		c-1.168-0.464-1.781-1.69-1.322-2.861c0.014-0.036,0.102-0.252,0.119-0.287c1.633-4.09,2.719-8.675,3.188-13.538
		c0.121-1.255,1.234-2.194,2.488-2.05c1.254,0.12,2.17,1.233,2.049,2.486c-0.508,5.295-1.697,10.302-3.531,14.884
		C182.332-6.061,181.424-5.459,180.486-5.459z M56.844-18.678c-0.203,0-0.406-0.025-0.609-0.083
		c-1.213-0.335-1.926-1.59-1.589-2.804c1.363-4.929,3.053-9.75,5.027-14.329c0.499-1.158,1.837-1.692,2.997-1.191
		c1.157,0.5,1.689,1.841,1.191,2.997c-1.892,4.389-3.514,9.01-4.823,13.737C58.761-19.34,57.844-18.678,56.844-18.678z
		 M183.623-34.653c-1.123,0-2.105-0.83-2.256-1.978c-0.629-4.691-1.752-9.41-3.338-14.03c-0.41-1.189,0.221-2.488,1.412-2.897
		c1.195-0.4,2.49,0.224,2.898,1.416c1.684,4.901,2.879,9.917,3.547,14.906c0.168,1.248-0.709,2.396-1.957,2.562
		C183.826-34.658,183.725-34.653,183.623-34.653z M68.623-45.916c-0.408,0-0.82-0.107-1.191-0.336
		c-1.074-0.66-1.409-2.063-0.75-3.136c2.605-4.244,5.575-8.403,8.83-12.362c0.797-0.976,2.238-1.111,3.209-0.315
		c0.971,0.799,1.113,2.237,0.313,3.21c-3.122,3.797-5.97,7.785-8.465,11.854C70.136-46.301,69.389-45.916,68.623-45.916z
		 M174.029-62.67c-0.787,0-1.555-0.411-1.979-1.142c-2.461-4.275-5.297-8.198-8.428-11.661c-0.844-0.934-0.77-2.375,0.164-3.22
		c0.936-0.842,2.375-0.774,3.221,0.161c3.346,3.702,6.373,7.889,8.998,12.441c0.627,1.092,0.254,2.486-0.842,3.115
		C174.809-62.77,174.416-62.67,174.029-62.67z M87.405-68.921c-0.598,0-1.199-0.233-1.643-0.701
		c-0.875-0.908-0.844-2.353,0.067-3.223c3.385-3.245,7.102-6.491,11.365-9.924l0.346-0.28c0.98-0.789,2.416-0.641,3.207,0.341
		c0.793,0.98,0.641,2.415-0.338,3.207l-0.375,0.298c-4.141,3.334-7.76,6.495-11.053,9.65C88.543-69.131,87.973-68.921,87.405-68.921
		z M154.055-84.409c-0.426,0-0.852-0.118-1.234-0.366c-4.115-2.66-8.441-4.566-12.871-5.663c-1.219-0.303-1.967-1.539-1.664-2.76
		c0.299-1.226,1.559-1.967,2.762-1.666c4.914,1.217,9.711,3.325,14.248,6.263c1.059,0.684,1.361,2.094,0.678,3.153
		C155.537-84.776,154.805-84.409,154.055-84.409z M111.529-86.955c-0.854,0-1.672-0.479-2.064-1.3
		c-0.539-1.138-0.055-2.499,1.082-3.039c4.92-2.339,9.934-3.844,14.893-4.474c1.277-0.138,2.393,0.728,2.551,1.975
		c0.158,1.251-0.727,2.39-1.977,2.55c-4.48,0.566-9.025,1.935-13.51,4.067C112.191-87.025,111.855-86.955,111.529-86.955z"/>
	<path clip-path="url(#SVGID_2_)" d="M-30.835,95.57c-2.177,0-4.046-0.593-5.5-1.81c-3.922-3.281-5.85-11.651,7.251-32.86
		C-8.904,28.232,8.853-12.296,17.259-44.867c1.226-4.75,2.36-10.457,3.562-16.495c6.768-34.01,16.993-85.406,69.013-98.633
		c9.703-2.466,14.469-4.303,16.779-5.434c-11.217-0.936-52.239,6.828-68.032,30.201c-17.688,26.177-21.243,49.347-24.101,67.966
		c-1.165,7.593-2.171,14.152-3.998,19.634C4.282-29.029-17.073,23.757-26.334,36.107c-2.082,2.773-5.153,4.005-8.643,3.469
		c-8.449-1.3-17.682-12.292-21.003-21.746c-2.47-7.025-1.824-13.08,1.823-17.056c2.786-3.039,6.29-6.125,10-9.39
		c11.255-9.905,25.262-22.229,28.957-42.176c4.571-24.68,10.259-55.395-1.68-73.305l3.793-2.529
		c12.966,19.451,7.091,51.173,2.369,76.666C-14.699-28.465-29.362-15.56-41.144-5.193c-3.616,3.182-7.031,6.187-9.653,9.045
		c-3.309,3.61-1.974,9.359-0.88,12.466c3.125,8.893,11.418,17.829,17.397,18.747c1.845,0.3,3.219-0.251,4.299-1.695
		c8.84-11.785,30.178-64.562,36.14-82.441c1.703-5.114,2.683-11.494,3.817-18.883c2.771-18.065,6.566-42.803,24.83-69.83
		c17.826-26.379,66.124-34.527,75.421-31.527c2.643,0.858,2.875,2.642,2.852,3.369c-0.055,1.672-0.152,4.784-22.119,10.367
		c-49.234,12.517-58.729,60.25-65.665,95.103c-1.213,6.104-2.361,11.872-3.62,16.746C13.163-10.742-4.801,30.266-25.202,63.299
		c-10.169,16.459-10.775,24.815-8.204,26.97c2.586,2.167,10.461-0.104,19.944-8.587C3.609,66.403,22.235,12.206,38.668-35.613
		c1.679-4.887,3.345-9.734,4.992-14.495c9.655-27.887,32.746-45.819,50.419-55.951c19.045-10.92,35.588-15.251,36.281-15.427
		l1.141,4.415c-0.658,0.17-65.914,17.556-83.53,68.455c-1.647,4.761-3.313,9.602-4.991,14.487
		C25.556,16.576,7.536,69.01-10.421,85.079C-18.033,91.885-25.396,95.57-30.835,95.57z"/>
</g>
<path id="contour" d="M88.408,175.2c-48.105,0-87.242-39.136-87.242-87.243c0-48.105,39.137-87.242,87.242-87.242
	c48.107,0,87.242,39.137,87.242,87.242C175.65,136.064,136.516,175.2,88.408,175.2z M88.408,5.63
	c-45.396,0-82.327,36.932-82.327,82.327c0,45.396,36.932,82.328,82.327,82.328c45.395,0,82.326-36.934,82.326-82.328
	C170.734,42.562,133.803,5.63,88.408,5.63z"/>
</svg>
