<?xml version="1.0" encoding="utf-8"?>
<!-- Generator: Adobe Illustrator 16.0.0, SVG Export Plug-In . SVG Version: 6.00 Build 0)  -->
<!DOCTYPE svg PUBLIC "-//W3C//DTD SVG 1.1//EN" "http://www.w3.org/Graphics/SVG/1.1/DTD/svg11.dtd">
<svg version="1.1" id="Layer_1" xmlns="http://www.w3.org/2000/svg" xmlns:xlink="http://www.w3.org/1999/xlink" x="0px" y="0px"
	 width="176px" height="176px" viewBox="0 0 176 176" enable-background="new 0 0 176 176" xml:space="preserve">
<g>
	<defs>
		<circle id="SVGID_1_" cx="88.408" cy="87.957" r="84.784"/>
	</defs>
	<clipPath id="SVGID_2_">
		<use xlink:href="#SVGID_1_"  overflow="visible"/>
	</clipPath>
	<path clip-path="url(#SVGID_2_)" d="M102.395,176.708L102.395,176.708c-13.162-3.02-10.449-35.261-8.292-47.428
		c4.024-22.712,17.368-30.486,24.961-33.102c8.378-2.888,15.659,0.322,18.563,7.812c2.532,6.546,1.254,14.991-3.267,21.509
		c-3.4,4.906-4.052,10.736-4.74,16.908c-1.118,9.981-2.384,21.293-15.846,30.812C109.449,176.274,105.623,177.448,102.395,176.708z
		 M127.571,98.394c-2.231-0.512-4.761-0.291-7.516,0.658c-6.966,2.396-19.206,9.579-22.962,30.758
		c-2.922,16.492-3.044,41.866,5.979,43.937l0,0c2.348,0.538,5.359-0.477,8.942-3.011c12.352-8.731,13.483-18.865,14.582-28.667
		c0.735-6.562,1.428-12.759,5.267-18.302c3.96-5.715,5.107-13.049,2.928-18.679C133.407,101.523,130.846,99.146,127.571,98.394z"/>
	<path clip-path="url(#SVGID_2_)" d="M69.45,224.039L69.45,224.039c-5.336-1.224-9.146-3.93-11.328-8.037
		c-6.422-12.09,2.312-34.705,10.759-56.573c4.786-12.399,9.741-25.22,11.523-35.286c7.049-39.771,30.33-53.355,43.577-57.913
		c14.271-4.911,26.567,0.462,31.498,13.193c4.372,11.278,2.146,25.847-5.668,37.122c-4.711,6.806-5.951,18.692-7.385,32.454
		c-3.464,33.206-7.771,74.536-64.139,75.81C74.979,224.884,72.005,224.625,69.45,224.039z M138.982,67.899
		c-4.184-0.959-8.892-0.554-14.006,1.205c-12.618,4.341-34.801,17.33-41.577,55.567c-1.835,10.355-6.619,22.738-11.683,35.852
		c-8.197,21.232-16.679,43.191-10.908,54.051c2.682,5.057,8.413,7.403,17.412,7.196c53.692-1.216,57.846-41.066,61.186-73.09
		c1.477-14.177,2.756-26.424,7.91-33.868c7.254-10.468,9.349-23.93,5.334-34.293C150.048,73.805,145.192,69.324,138.982,67.899z"/>
	<path clip-path="url(#SVGID_2_)" d="M35.831,295.601c-1.087-0.249-1.854-1.266-1.757-2.411c0.105-1.254,1.207-2.187,2.461-2.082
		c2.108,0.176,4.382,0.236,6.763,0.183c2.652-0.059,5.236-0.175,7.766-0.338c1.275-0.089,2.346,0.876,2.423,2.13
		c0.081,1.258-0.874,2.341-2.126,2.42c-2.591,0.167-5.244,0.287-7.956,0.345c-2.543,0.061-4.982-0.006-7.249-0.198
		C36.045,295.645,35.936,295.625,35.831,295.601z M21.567,291.768c-0.198-0.046-0.396-0.117-0.581-0.22
		c-4.969-2.704-8.583-6.733-10.743-11.979c-0.48-1.161,0.074-2.494,1.239-2.976c1.165-0.476,2.497,0.077,2.976,1.239
		c1.778,4.314,4.626,7.487,8.708,9.708c1.105,0.605,1.515,1.993,0.913,3.097C23.578,291.554,22.538,291.99,21.567,291.768z
		 M65.465,293.849c-0.879-0.201-1.594-0.92-1.743-1.87c-0.198-1.242,0.656-2.408,1.901-2.604c4.922-0.772,9.728-1.795,14.271-3.027
		c1.217-0.334,2.466,0.385,2.797,1.599c0.33,1.215-0.386,2.468-1.602,2.797c-4.704,1.281-9.672,2.341-14.764,3.135
		C66.033,293.925,65.739,293.912,65.465,293.849z M94.026,285.96c-0.691-0.158-1.301-0.638-1.597-1.34
		c-0.486-1.163,0.061-2.498,1.221-2.987c4.531-1.9,8.877-4.112,12.915-6.572c1.079-0.658,2.478-0.307,3.134,0.761
		c0.655,1.078,0.315,2.479-0.761,3.133c-4.231,2.578-8.783,4.895-13.523,6.884C94.956,286.031,94.474,286.063,94.026,285.96z
		 M9.524,266.319c-1.028-0.236-1.788-1.168-1.765-2.265c0.087-4.539,0.682-9.502,1.817-15.177c0.246-1.232,1.447-2.034,2.682-1.79
		c1.183,0.317,2.036,1.448,1.788,2.687c-1.066,5.33-1.648,10.164-1.73,14.366c-0.024,1.261-1.063,2.264-2.322,2.238
		C9.833,266.377,9.677,266.354,9.524,266.319z M119.265,270.533c-0.461-0.105-0.895-0.352-1.224-0.745
		c-0.818-0.956-0.701-2.394,0.255-3.209c3.625-3.091,7.078-6.535,10.263-10.241c0.823-0.949,2.264-1.061,3.216-0.243
		c0.954,0.822,1.063,2.262,0.242,3.216c-3.338,3.885-6.96,7.496-10.763,10.736C120.683,270.536,119.944,270.688,119.265,270.533z
		 M14.945,237.113c-0.045-0.011-0.092-0.021-0.138-0.034c-1.208-0.356-1.897-1.625-1.542-2.833c1.286-4.359,2.801-9.032,4.63-14.281
		c0.415-1.19,1.691-1.858,2.902-1.4c1.19,0.412,1.817,1.713,1.404,2.9c-1.807,5.18-3.299,9.782-4.563,14.068
		C17.297,236.695,16.111,237.381,14.945,237.113z M138.65,248.118c-0.252-0.058-0.496-0.161-0.724-0.306
		c-1.06-0.684-1.363-2.092-0.683-3.149c2.537-3.94,4.95-8.231,7.173-12.74c0.56-1.135,1.937-1.592,3.05-1.039
		c1.13,0.553,1.595,1.924,1.04,3.049c-2.297,4.668-4.797,9.109-7.431,13.2C140.542,247.962,139.561,248.327,138.65,248.118z
		 M24.645,208.939c-0.101-0.022-0.201-0.051-0.298-0.088c-1.177-0.443-1.772-1.76-1.33-2.935c1.746-4.627,3.542-9.285,5.338-13.936
		c0.451-1.171,1.774-1.785,2.948-1.303c1.175,0.451,1.759,1.774,1.304,2.946c-1.791,4.634-3.584,9.283-5.322,13.897
		C26.876,208.603,25.739,209.19,24.645,208.939z M151.916,221.501c-0.108-0.024-0.214-0.057-0.316-0.099
		c-1.176-0.455-1.758-1.777-1.305-2.95c1.673-4.321,3.265-8.878,4.864-13.93c0.378-1.202,1.695-1.887,2.858-1.487
		c1.203,0.382,1.867,1.66,1.487,2.86c-1.628,5.149-3.25,9.793-4.96,14.206C154.136,221.172,152.999,221.75,151.916,221.501z
		 M35.311,181.112c-0.101-0.023-0.201-0.051-0.299-0.092c-1.18-0.448-1.773-1.76-1.328-2.937c1.784-4.722,3.502-9.382,5.098-13.941
		c0.417-1.188,1.715-1.852,2.904-1.398c1.189,0.414,1.815,1.714,1.399,2.904c-1.606,4.594-3.336,9.296-5.134,14.046
		C37.542,180.776,36.405,181.363,35.311,181.112z M161.019,193.124c-0.036-0.009-0.068-0.016-0.099-0.025
		c-1.214-0.333-1.928-1.588-1.595-2.803c1.208-4.405,2.345-8.747,3.452-12.974l0.369-1.408c0.318-1.219,1.571-1.86,2.785-1.63
		c1.219,0.32,1.944,1.569,1.627,2.785l-0.371,1.408c-1.109,4.244-2.252,8.602-3.469,13.027
		C163.396,192.685,162.198,193.395,161.019,193.124z M45.013,152.943c-0.044-0.01-0.087-0.021-0.133-0.032
		c-1.207-0.356-1.902-1.624-1.545-2.828c0.972-3.328,1.804-6.492,2.471-9.4c0.378-1.648,0.715-3.26,1.005-4.846
		c0.231-1.235,1.419-2.054,2.656-1.827c1.302,0.167,2.059,1.419,1.831,2.658c-0.304,1.638-0.651,3.32-1.045,5.034
		c-0.687,2.995-1.543,6.247-2.542,9.656C47.37,152.522,46.18,153.211,45.013,152.943z M168.762,164.321
		c-0.044-0.01-0.086-0.02-0.125-0.032c-1.211-0.353-1.907-1.617-1.557-2.823c1.672-5.776,3.177-10.334,4.734-14.347
		c0.455-1.174,1.768-1.759,2.951-1.301c1.176,0.458,1.755,1.775,1.299,2.953c-1.508,3.882-2.971,8.317-4.602,13.962
		C171.123,163.899,169.931,164.59,168.762,164.321z M51.738,123.931c-0.028-0.007-0.057-0.014-0.083-0.02
		c-1.218-0.327-1.938-1.579-1.609-2.794c1.34-4.979,2.917-9.817,4.689-14.379c0.457-1.172,1.791-1.743,2.951-1.299
		c1.176,0.456,1.756,1.777,1.299,2.95c-1.713,4.411-3.237,9.09-4.538,13.91C54.129,123.491,52.928,124.203,51.738,123.931z
		 M180.127,136.802c-0.254-0.059-0.506-0.166-0.729-0.319c-1.035-0.713-1.358-2.046-0.649-3.083c0.021-0.033,0.155-0.224,0.18-0.253
		c2.507-3.623,4.59-7.848,6.134-12.483c0.399-1.196,1.694-1.863,2.884-1.442c1.195,0.398,1.84,1.688,1.441,2.882
		c-1.679,5.047-3.958,9.661-6.77,13.718C182.06,136.628,181.04,137.011,180.127,136.802z M62.57,96.271
		c-0.196-0.045-0.388-0.115-0.574-0.216c-1.109-0.6-1.523-1.98-0.922-3.09c2.431-4.499,5.155-8.819,8.104-12.841
		c0.744-1.017,2.167-1.239,3.187-0.491c1.017,0.746,1.235,2.173,0.491,3.188c-2.826,3.854-5.439,7.997-7.772,12.312
		C64.587,96.056,63.544,96.495,62.57,96.271z M189.711,109.048c-1.094-0.252-1.866-1.28-1.756-2.433
		c0.436-4.713,0.396-9.563-0.116-14.421c-0.134-1.251,0.771-2.376,2.023-2.508c1.255-0.123,2.377,0.775,2.509,2.028
		c0.545,5.153,0.589,10.31,0.124,15.321c-0.115,1.254-1.227,2.177-2.48,2.059C189.91,109.088,189.811,109.07,189.711,109.048z
		 M80.141,72.357c-0.398-0.091-0.776-0.288-1.086-0.594c-0.9-0.883-0.912-2.326-0.03-3.224c3.488-3.554,7.314-6.943,11.371-10.074
		c0.995-0.773,2.43-0.583,3.198,0.41c0.77,0.997,0.585,2.429-0.411,3.2c-3.894,3.003-7.561,6.253-10.903,9.66
		C81.702,72.32,80.887,72.528,80.141,72.357z M186.625,79.595c-0.768-0.176-1.424-0.748-1.674-1.555
		c-1.442-4.717-3.329-9.175-5.606-13.25c-0.613-1.099-0.219-2.487,0.88-3.102c1.1-0.611,2.488-0.224,3.103,0.877
		c2.434,4.356,4.448,9.114,5.989,14.138c0.366,1.205-0.309,2.48-1.518,2.848C187.406,79.672,187.002,79.681,186.625,79.595z
		 M103.593,54.134c-0.583-0.134-1.117-0.496-1.444-1.051c-0.65-1.08-0.299-2.482,0.785-3.126c4.024-2.406,8.373-4.739,13.297-7.132
		l0.399-0.196c1.132-0.55,2.498-0.084,3.049,1.05c0.554,1.133,0.085,2.497-1.046,3.05l-0.432,0.207
		c-4.781,2.324-9.016,4.596-12.931,6.935C104.747,54.184,104.145,54.26,103.593,54.134z M172.017,53.94
		c-0.415-0.095-0.804-0.306-1.121-0.633c-3.417-3.513-7.207-6.338-11.279-8.397c-1.12-0.568-1.573-1.939-1.005-3.062
		c0.565-1.128,1.959-1.569,3.064-1.006c4.518,2.285,8.722,5.412,12.486,9.29c0.879,0.904,0.859,2.346-0.044,3.225
		C173.543,53.914,172.747,54.108,172.017,53.94z M131.137,41.951c-0.832-0.191-1.522-0.84-1.722-1.729
		c-0.271-1.229,0.506-2.447,1.734-2.72c5.318-1.18,10.542-1.526,15.516-1.03c1.276,0.151,2.17,1.245,2.045,2.495
		c-0.126,1.255-1.242,2.167-2.497,2.043c-4.493-0.45-9.229-0.132-14.076,0.943C131.798,42.03,131.455,42.024,131.137,41.951z"/>
	<path clip-path="url(#SVGID_2_)" d="M-48.434,188.023c-2.122-0.486-3.811-1.482-4.956-2.993
		c-3.089-4.075-3.096-12.664,14.415-30.407c26.973-27.329,53.342-62.861,68.818-92.728c2.257-4.356,4.639-9.664,7.16-15.281
		c14.201-31.636,35.658-79.444,89.319-80.706c10.009-0.234,15.064-0.959,17.569-1.545c-10.724-3.42-52.442-5.025-73.062,14.225
		C47.737,0.148,39.091,21.937,32.143,39.446c-2.833,7.141-5.28,13.309-8.287,18.243c-10.203,16.741-42.819,63.417-54.607,73.383
		c-2.649,2.238-5.918,2.752-9.2,1.449c-7.944-3.156-14.486-15.935-15.609-25.892c-0.837-7.4,1.147-13.156,5.591-16.217
		c3.395-2.34,7.5-4.563,11.846-6.916c13.185-7.138,29.593-16.018,37.654-34.634C9.504,25.829,21.916-2.836,14.284-22.962
		l4.263-1.617c8.289,21.857-4.53,51.463-14.832,75.254C-4.973,70.737-22.15,80.037-35.952,87.506
		c-4.236,2.292-8.236,4.458-11.432,6.659c-4.032,2.778-4.017,8.68-3.646,11.953c1.058,9.366,7.143,19.931,12.766,22.162
		c1.731,0.705,3.193,0.476,4.569-0.691c11.251-9.51,43.85-56.179,53.658-72.273c2.804-4.604,5.185-10.603,7.942-17.552
		c6.74-16.988,15.97-40.251,39.815-62.51c23.273-21.726,72.169-18.869,80.56-13.866c2.384,1.427,2.211,3.218,2.026,3.921
		c-0.428,1.618-1.219,4.628-23.878,5.159C75.644-28.34,55.717,16.062,41.165,48.481c-2.548,5.678-4.956,11.043-7.272,15.513
		c-15.671,30.246-42.349,66.199-69.62,93.835c-13.592,13.769-16.051,21.777-14.026,24.452c2.037,2.69,10.22,2.237,21.359-3.91
		c20.055-11.074,50.328-59.735,77.037-102.669c2.729-4.388,5.437-8.74,8.107-13.012c15.646-25.022,42.161-37.338,61.653-43.261
		c21.004-6.385,38.097-6.908,38.812-6.925l0.125,4.558c-0.68,0.019-68.171,2.374-96.72,48.045
		c-2.671,4.272-5.375,8.618-8.105,13.004c-28.321,45.527-57.608,92.604-78.704,104.251
		C-35.131,187.294-43.132,189.24-48.434,188.023z"/>
</g>
<path id="contour" d="M88.408,175.2c-48.105,0-87.242-39.136-87.242-87.243c0-48.105,39.137-87.242,87.242-87.242
	c48.107,0,87.242,39.137,87.242,87.242C175.65,136.064,136.516,175.2,88.408,175.2z M88.408,5.63
	c-45.396,0-82.327,36.932-82.327,82.327c0,45.396,36.932,82.328,82.327,82.328c45.395,0,82.326-36.934,82.326-82.328
	C170.734,42.562,133.803,5.63,88.408,5.63z"/>
</svg>
